STARTFONT 2.1
FONT -ADECW-Myungcho-Medium-R-Normal--32-320-75-75-M-320-KSC5601.1987-1
SIZE 32 75 75
FONTBOUNDINGBOX 32 32 0 -8

STARTPROPERTIES 26
FOUNDRY "ADECW"
FAMILY_NAME "Myungcho"
WEIGHT_NAME "Medium"
SLANT "R"
SETWIDTH_NAME "Normal"
ADD_STYLE_NAME ""
PIXEL_SIZE 32
POINT_SIZE 320
RESOLUTION_X 75
RESOLUTION_Y 75
SPACING "M"
AVERAGE_WIDTH 320
CHARSET_REGISTRY "KSC5601.1987"
CHARSET_ENCODING "1"
DEVICE_FONT_NAME "Myungcho-KSC5601.1987-1"
CHARSET_COLLECTIONS "KSC5601.1987 1"
FULL_NAME "Myungcho KSC5601.1987 1"
CAP_HEIGHT 23
X_HEIGHT 16
COPYRIGHT "Copyright (c) 1988, 1991 Digital Equitment Corporation Asia"
NOTICE ""
WEIGHT 10
QUAD_WIDTH 32
DEFAULT_CHAR 65278
FONT_DESCENT 8
FONT_ASCENT 24
ENDPROPERTIES

CHARS 8225

STARTCHAR A1A1
ENCODING 41377
SWIDTH 960 0
DWIDTH 32 0
BBX 32 32 0 -8
BITMAP
00000000
00000000
00000000
00000000
00000000
00000000
00000000
00000000
00000000
00000000
00000000
00000000
00000000
00000000
00000000
00000000
00000000
00000000
00000000
00000000
00000000
00000000
00000000
00000000
00000000
00000000
00000000
00000000
00000000
00000000
00000000
00000000
ENDCHAR

STARTCHAR A1A2
ENCODING 41378
SWIDTH 960 0
DWIDTH 32 0
BBX 32 32 0 -8
BITMAP
00000000
00000000
00000000
00000000
00000300
000001C0
000000F0
00000078
0000007C
0000003C
0000003C
0000001C
00000000
00000000
00000000
00000000
00000000
00000000
00000000
00000000
00000000
00000000
00000000
00000000
00000000
00000000
00000000
00000000
00000000
00000000
00000000
00000000
ENDCHAR

STARTCHAR A1A3
ENCODING 41379
SWIDTH 960 0
DWIDTH 32 0
BBX 32 32 0 -8
BITMAP
00000000
00000000
00000000
00000000
000001E0
00000210
00000408
00000408
00000408
00000408
00000210
000001E0
00000000
00000000
00000000
00000000
00000000
00000000
00000000
00000000
00000000
00000000
00000000
00000000
00000000
00000000
00000000
00000000
00000000
00000000
00000000
00000000
ENDCHAR

STARTCHAR A1A4
ENCODING 41380
SWIDTH 960 0
DWIDTH 32 0
BBX 32 32 0 -8
BITMAP
00000000
00000000
00000000
00000000
00000000
00000000
00000000
00000000
00000000
00000000
00000000
00000000
00000000
0003C000
0007E000
0007E000
0007E000
0007E000
0003C000
00000000
00000000
00000000
00000000
00000000
00000000
00000000
00000000
00000000
00000000
00000000
00000000
00000000
ENDCHAR

STARTCHAR A1A5
ENCODING 41381
SWIDTH 960 0
DWIDTH 32 0
BBX 32 32 0 -8
BITMAP
00000000
00000000
00000000
00000000
00000000
00000000
00000000
00000000
00000000
00000000
00000000
00000000
00000000
01E00780
03F00FC0
03F00FC0
03F00FC0
03F00FC0
01E00780
00000000
00000000
00000000
00000000
00000000
00000000
00000000
00000000
00000000
00000000
00000000
00000000
00000000
ENDCHAR

STARTCHAR A1A6
ENCODING 41382
SWIDTH 960 0
DWIDTH 32 0
BBX 32 32 0 -8
BITMAP
00000000
00000000
00000000
00000000
00000000
00000000
00000000
00000000
00000000
00000000
00000000
00000000
00000000
1E03C078
3F07E0FC
3F07E0FC
3F07E0FC
3F07E0FC
1E03C078
00000000
00000000
00000000
00000000
00000000
00000000
00000000
00000000
00000000
00000000
00000000
00000000
00000000
ENDCHAR

STARTCHAR A1A7
ENCODING 41383
SWIDTH 960 0
DWIDTH 32 0
BBX 32 32 0 -8
BITMAP
00000000
00000000
00000000
00000000
01E00780
03F00FC0
03F00FC0
03F00FC0
03F00FC0
01E00780
00000000
00000000
00000000
00000000
00000000
00000000
00000000
00000000
00000000
00000000
00000000
00000000
00000000
00000000
00000000
00000000
00000000
00000000
00000000
00000000
00000000
00000000
ENDCHAR

STARTCHAR A1A8
ENCODING 41384
SWIDTH 960 0
DWIDTH 32 0
BBX 32 32 0 -8
BITMAP
00000000
00000000
00000000
00000000
00000000
00000000
00000000
00000000
00000000
00000000
000C0C00
000C0C00
001C1C00
00181800
00181800
00303000
00303000
00202000
00606000
00404000
00404000
00808000
00000000
00000000
00000000
00000000
00000000
00000000
00000000
00000000
00000000
00000000
ENDCHAR

STARTCHAR A1A9
ENCODING 41385
SWIDTH 960 0
DWIDTH 32 0
BBX 32 32 0 -8
BITMAP
00000000
00000000
00000000
00000000
00000000
00000000
00000000
00000000
00000000
00000000
00000000
00000000
00000000
00000000
00000000
000FF000
000FF000
00000000
00000000
00000000
00000000
00000000
00000000
00000000
00000000
00000000
00000000
00000000
00000000
00000000
00000000
00000000
ENDCHAR

STARTCHAR A1AA
ENCODING 41386
SWIDTH 960 0
DWIDTH 32 0
BBX 32 32 0 -8
BITMAP
00000000
00000000
00000000
00000000
00000000
00000000
00000000
00000000
00000000
00000000
00000000
00000000
00000000
00000000
00000000
1FFFFFF8
1FFFFFF8
00000000
00000000
00000000
00000000
00000000
00000000
00000000
00000000
00000000
00000000
00000000
00000000
00000000
00000000
00000000
ENDCHAR

STARTCHAR A1AB
ENCODING 41387
SWIDTH 960 0
DWIDTH 32 0
BBX 32 32 0 -8
BITMAP
00000000
00000000
00000000
00000000
000C3000
000C3000
000C3000
000C3000
000C3000
000C3000
000C3000
000C3000
000C3000
000C3000
000C3000
000C3000
000C3000
000C3000
000C3000
000C3000
000C3000
000C3000
000C3000
000C3000
000C3000
000C3000
000C3000
000C3000
00000000
00000000
00000000
00000000
ENDCHAR

STARTCHAR A1AC
ENCODING 41388
SWIDTH 960 0
DWIDTH 32 0
BBX 32 32 0 -8
BITMAP
00000000
00000000
00000000
08000000
1C000000
0E000000
07000000
03800000
01C00000
00E00000
00700000
00380000
001C0000
000E0000
00070000
00038000
0001C000
0000E000
00007000
00003800
00001C00
00000E00
00000700
00000380
000001C0
000000E0
00000070
00000038
00000010
00000000
00000000
00000000
ENDCHAR

STARTCHAR A1AD
ENCODING 41389
SWIDTH 960 0
DWIDTH 32 0
BBX 32 32 0 -8
BITMAP
00000000
00000000
00000000
00000000
00000000
00000000
00000000
00000000
00000000
00000000
00000000
00000000
01F00004
07FC0004
0F1F000C
1C078018
1801E038
3000F8F0
20003FE0
20000F80
00000000
00000000
00000000
00000000
00000000
00000000
00000000
00000000
00000000
00000000
00000000
00000000
ENDCHAR

STARTCHAR A1AE
ENCODING 41390
SWIDTH 960 0
DWIDTH 32 0
BBX 32 32 0 -8
BITMAP
00000000
00000000
00000000
00000000
00000018
00000030
00000060
00000040
000000C0
000000F0
000000F8
000000F8
00000070
00000000
00000000
00000000
00000000
00000000
00000000
00000000
00000000
00000000
00000000
00000000
00000000
00000000
00000000
00000000
00000000
00000000
00000000
00000000
ENDCHAR

STARTCHAR A1AF
ENCODING 41391
SWIDTH 960 0
DWIDTH 32 0
BBX 32 32 0 -8
BITMAP
00000000
00000000
00000000
00000000
0E000000
1F000000
1F000000
0F000000
03000000
02000000
06000000
0C000000
18000000
00000000
00000000
00000000
00000000
00000000
00000000
00000000
00000000
00000000
00000000
00000000
00000000
00000000
00000000
00000000
00000000
00000000
00000000
00000000
ENDCHAR

STARTCHAR A1B0
ENCODING 41392
SWIDTH 960 0
DWIDTH 32 0
BBX 32 32 0 -8
BITMAP
00000000
00000000
00000000
00000000
00001818
00003030
00006060
00004040
0000C0C0
0000F0F0
0000F8F8
0000F8F8
00007070
00000000
00000000
00000000
00000000
00000000
00000000
00000000
00000000
00000000
00000000
00000000
00000000
00000000
00000000
00000000
00000000
00000000
00000000
00000000
ENDCHAR

STARTCHAR A1B1
ENCODING 41393
SWIDTH 960 0
DWIDTH 32 0
BBX 32 32 0 -8
BITMAP
00000000
00000000
00000000
00000000
0E0E0000
1F1F0000
1F1F0000
0F0F0000
03030000
02020000
06060000
0C0C0000
18180000
00000000
00000000
00000000
00000000
00000000
00000000
00000000
00000000
00000000
00000000
00000000
00000000
00000000
00000000
00000000
00000000
00000000
00000000
00000000
ENDCHAR

STARTCHAR A1B2
ENCODING 41394
SWIDTH 960 0
DWIDTH 32 0
BBX 32 32 0 -8
BITMAP
00000000
00000000
00000018
00000078
000001E0
00000780
00000600
00000600
00000600
00000600
00000600
00000600
00000600
00000600
00000600
00000600
00000600
00000600
00000600
00000600
00000600
00000600
00000600
00000600
00000600
00000600
00000780
000001E0
00000078
00000018
00000000
00000000
ENDCHAR

STARTCHAR A1B3
ENCODING 41395
SWIDTH 960 0
DWIDTH 32 0
BBX 32 32 0 -8
BITMAP
00000000
00000000
18000000
1E000000
07800000
01E00000
00600000
00600000
00600000
00600000
00600000
00600000
00600000
00600000
00600000
00600000
00600000
00600000
00600000
00600000
00600000
00600000
00600000
00600000
00600000
00600000
01E00000
07800000
1E000000
18000000
00000000
00000000
ENDCHAR

STARTCHAR A1B4
ENCODING 41396
SWIDTH 960 0
DWIDTH 32 0
BBX 32 32 0 -8
BITMAP
00000000
00000000
00000018
00000010
00000030
00000060
00000040
000000C0
00000180
00000100
00000300
00000600
00000400
00000C00
00001800
00001000
00001000
00001800
00000C00
00000400
00000600
00000300
00000100
00000180
000000C0
00000040
00000060
00000030
00000010
00000018
00000000
00000000
ENDCHAR

STARTCHAR A1B5
ENCODING 41397
SWIDTH 960 0
DWIDTH 32 0
BBX 32 32 0 -8
BITMAP
00000000
00000000
18000000
08000000
0C000000
06000000
02000000
03000000
01800000
00800000
00C00000
00600000
00200000
00300000
00180000
00080000
00080000
00180000
00300000
00200000
00600000
00C00000
00800000
01800000
03000000
02000000
06000000
0C000000
08000000
18000000
00000000
00000000
ENDCHAR

STARTCHAR A1B6
ENCODING 41398
SWIDTH 960 0
DWIDTH 32 0
BBX 32 32 0 -8
BITMAP
00000000
00000000
00000108
00000108
00000210
00000210
00000420
00000420
00000840
00000840
00001080
00001080
00002100
00002100
00004200
00004200
00004200
00004200
00002100
00002100
00001080
00001080
00000840
00000840
00000420
00000420
00000210
00000210
00000108
00000108
00000000
00000000
ENDCHAR

STARTCHAR A1B7
ENCODING 41399
SWIDTH 960 0
DWIDTH 32 0
BBX 32 32 0 -8
BITMAP
00000000
00000000
10800000
10800000
08400000
08400000
04200000
04200000
02100000
02100000
01080000
01080000
00840000
00840000
00420000
00420000
00420000
00420000
00840000
00840000
01080000
01080000
02100000
02100000
04200000
04200000
08400000
08400000
10800000
10800000
00000000
00000000
ENDCHAR

STARTCHAR A1B8
ENCODING 41400
SWIDTH 960 0
DWIDTH 32 0
BBX 32 32 0 -8
BITMAP
00000000
00000000
000007F8
000007F8
00000600
00000600
00000600
00000600
00000600
00000600
00000600
00000600
00000600
00000600
00000600
00000600
00000600
00000600
00000600
00000600
00000600
00000000
00000000
00000000
00000000
00000000
00000000
00000000
00000000
00000000
00000000
00000000
ENDCHAR

STARTCHAR A1B9
ENCODING 41401
SWIDTH 960 0
DWIDTH 32 0
BBX 32 32 0 -8
BITMAP
00000000
00000000
00000000
00000000
00000000
00000000
00000000
00000000
00000000
00000000
00000000
00600000
00600000
00600000
00600000
00600000
00600000
00600000
00600000
00600000
00600000
00600000
00600000
00600000
00600000
00600000
00600000
00600000
1FE00000
1FE00000
00000000
00000000
ENDCHAR

STARTCHAR A1BA
ENCODING 41402
SWIDTH 960 0
DWIDTH 32 0
BBX 32 32 0 -8
BITMAP
00000000
00000000
00003FF8
00002008
00002008
00002008
000023F8
00002200
00002200
00002200
00002200
00002200
00002200
00002200
00002200
00002200
00002200
00002200
00003E00
00000000
00000000
00000000
00000000
00000000
00000000
00000000
00000000
00000000
00000000
00000000
00000000
00000000
ENDCHAR

STARTCHAR A1BB
ENCODING 41403
SWIDTH 960 0
DWIDTH 32 0
BBX 32 32 0 -8
BITMAP
00000000
00000000
00000000
00000000
00000000
00000000
00000000
00000000
00000000
00000000
00000000
00000000
00000000
007C0000
00440000
00440000
00440000
00440000
00440000
00440000
00440000
00440000
00440000
00440000
00440000
1FC40000
10040000
10040000
10040000
1FFC0000
00000000
00000000
ENDCHAR

STARTCHAR A1BC
ENCODING 41404
SWIDTH 960 0
DWIDTH 32 0
BBX 32 32 0 -8
BITMAP
00000000
00000000
000007F8
000007F0
000007E0
000007C0
000007C0
00000780
00000780
00000700
00000700
00000700
00000600
00000600
00000600
00000600
00000600
00000600
00000600
00000600
00000700
00000700
00000700
00000780
00000780
000007C0
000007C0
000007E0
000007F0
000007F8
00000000
00000000
ENDCHAR

STARTCHAR A1BD
ENCODING 41405
SWIDTH 960 0
DWIDTH 32 0
BBX 32 32 0 -8
BITMAP
00000000
00000000
1FE00000
0FE00000
07E00000
03E00000
03E00000
01E00000
01E00000
00E00000
00E00000
00E00000
00600000
00600000
00600000
00600000
00600000
00600000
00600000
00600000
00E00000
00E00000
00E00000
01E00000
01E00000
03E00000
03E00000
07E00000
0FE00000
1FE00000
00000000
00000000
ENDCHAR

STARTCHAR A1BE
ENCODING 41406
SWIDTH 960 0
DWIDTH 32 0
BBX 32 32 0 -8
BITMAP
00000000
00000000
00000000
00000000
00000000
00000000
00018000
00018000
00018000
00018000
00018000
00018000
03FFFFC0
03FFFFC0
00018000
00018000
00018000
00018000
00018000
00018000
00000000
00000000
03FFFFC0
03FFFFC0
00000000
00000000
00000000
00000000
00000000
00000000
00000000
00000000
ENDCHAR

STARTCHAR A1BF
ENCODING 41407
SWIDTH 960 0
DWIDTH 32 0
BBX 32 32 0 -8
BITMAP
00000000
00000000
00000000
00000000
00000000
00000000
00000000
00000000
00C00300
00600600
00300C00
00181800
000C3000
00066000
0003C000
00018000
0003C000
00066000
000C3000
00181800
00300C00
00600600
00C00300
00800100
00000000
00000000
00000000
00000000
00000000
00000000
00000000
00000000
ENDCHAR

STARTCHAR A1C0
ENCODING 41408
SWIDTH 960 0
DWIDTH 32 0
BBX 32 32 0 -8
BITMAP
00000000
00000000
00000000
00000000
0003C000
0007E000
0007E000
0007E000
0007E000
0003C000
00000000
00000000
00000000
00000000
00000000
03FFFFC0
03FFFFC0
00000000
00000000
00000000
00000000
00000000
0003C000
0007E000
0007E000
0007E000
0007E000
0003C000
00000000
00000000
00000000
00000000
ENDCHAR

STARTCHAR A1C1
ENCODING 41409
SWIDTH 960 0
DWIDTH 32 0
BBX 32 32 0 -8
BITMAP
00000000
00000000
00000000
00000000
00000000
00000000
00300000
00300000
00180000
000C0000
00040000
00060000
03FFFFC0
03FFFFC0
00018000
0000C000
00004000
00006000
03FFFFC0
03FFFFC0
00001800
00000C00
00000400
00000600
00000300
00000300
00000000
00000000
00000000
00000000
00000000
00000000
ENDCHAR

STARTCHAR A1C2
ENCODING 41410
SWIDTH 960 0
DWIDTH 32 0
BBX 32 32 0 -8
BITMAP
00000000
00000000
00000000
00000000
00000000
000000C0
000007C0
00003F00
0001F800
000FC000
007E0000
03F00000
03F00000
007E0000
000FC000
0001F800
00003F00
000007C0
000000C0
00000000
00000000
00000000
00000000
03FFFFC0
03FFFFC0
00000000
00000000
00000000
00000000
00000000
00000000
00000000
ENDCHAR

STARTCHAR A1C3
ENCODING 41411
SWIDTH 960 0
DWIDTH 32 0
BBX 32 32 0 -8
BITMAP
00000000
00000000
00000000
00000000
00000000
03000000
03E00000
00FC0000
001F8000
0003F000
00007E00
00000FC0
00000FC0
00007E00
0003F000
001F8000
00FC0000
03E00000
03000000
00000000
00000000
00000000
00000000
03FFFFC0
03FFFFC0
00000000
00000000
00000000
00000000
00000000
00000000
00000000
ENDCHAR

STARTCHAR A1C4
ENCODING 41412
SWIDTH 960 0
DWIDTH 32 0
BBX 32 32 0 -8
BITMAP
00000000
00000000
00000000
00000000
00000000
00000000
00000000
00000000
00000000
00F81F00
03FE7FC0
0707E0E0
0603C060
0C018030
0C018030
0C018030
0C018030
0C018030
0C018030
0603C060
0707E0E0
03FE7FC0
00F81F00
00000000
00000000
00000000
00000000
00000000
00000000
00000000
00000000
00000000
ENDCHAR

STARTCHAR A1C5
ENCODING 41413
SWIDTH 960 0
DWIDTH 32 0
BBX 32 32 0 -8
BITMAP
00000000
00000000
00000000
00000000
00000000
00000000
0003C000
0007E000
0007E000
0007E000
0007E000
0003C000
00000000
00000000
00000000
00000000
00000000
00000000
00000000
00000000
03C003C0
07E007E0
07E007E0
07E007E0
07E007E0
03C003C0
00000000
00000000
00000000
00000000
00000000
00000000
ENDCHAR

STARTCHAR A1C6
ENCODING 41414
SWIDTH 960 0
DWIDTH 32 0
BBX 32 32 0 -8
BITMAP
00000000
00000000
00000000
00000000
07E00000
08100000
10080000
10080000
10080000
10080000
10080000
10080000
08100000
07E00000
00000000
00000000
00000000
00000000
00000000
00000000
00000000
00000000
00000000
00000000
00000000
00000000
00000000
00000000
00000000
00000000
00000000
00000000
ENDCHAR

STARTCHAR A1C7
ENCODING 41415
SWIDTH 960 0
DWIDTH 32 0
BBX 32 32 0 -8
BITMAP
00000000
00000000
00000000
00000000
07000000
07000000
06000000
06000000
0C000000
0C000000
08000000
18000000
10000000
10000000
00000000
00000000
00000000
00000000
00000000
00000000
00000000
00000000
00000000
00000000
00000000
00000000
00000000
00000000
00000000
00000000
00000000
00000000
ENDCHAR

STARTCHAR A1C8
ENCODING 41416
SWIDTH 960 0
DWIDTH 32 0
BBX 32 32 0 -8
BITMAP
00000000
00000000
00000000
00000000
06180000
06180000
0C300000
0C300000
08200000
18600000
10400000
10400000
10400000
00000000
00000000
00000000
00000000
00000000
00000000
00000000
00000000
00000000
00000000
00000000
00000000
00000000
00000000
00000000
00000000
00000000
00000000
00000000
ENDCHAR

STARTCHAR A1C9
ENCODING 41417
SWIDTH 960 0
DWIDTH 32 0
BBX 32 32 0 -8
BITMAP
00000000
00000000
03C00000
04200000
08100000
08100000
0810F820
08138660
042601E0
03CC00E0
000C0060
00180020
00180000
00180000
00300000
00300000
00300000
00300000
00300000
00300000
00300000
00380000
00180030
00180020
000C0060
000C00C0
00060180
00038700
0000FC00
00000000
00000000
00000000
ENDCHAR

STARTCHAR A1CA
ENCODING 41418
SWIDTH 960 0
DWIDTH 32 0
BBX 32 32 0 -8
BITMAP
00000000
00000000
0003C000
00042000
00081000
00081000
00081000
00081000
00042000
0003C000
00000000
00010000
00018000
00038000
0003C000
0004C000
00046000
00086000
00083000
00103000
00101800
00201800
003FFC00
00400C00
00400600
00800600
00800300
01000300
01000180
0FC00FE0
00000000
00000000
ENDCHAR

STARTCHAR A1CB
ENCODING 41419
SWIDTH 960 0
DWIDTH 32 0
BBX 32 32 0 -8
BITMAP
00000000
00000000
00000300
00000300
00000600
00000600
00000C00
0003FC00
000E1D00
00183B00
00303300
00606100
00606100
00C0C000
00C0C000
00C18000
00C18000
00C30000
00C30000
00C60000
00660000
006C0300
003C0300
00180200
00380600
003E1C00
0063F000
00600000
00C00000
00C00000
00000000
00000000
ENDCHAR

STARTCHAR A1CC
ENCODING 41420
SWIDTH 960 0
DWIDTH 32 0
BBX 32 32 0 -8
BITMAP
00000000
00000000
00000000
00000000
0000F800
00030600
00060300
00060300
000E0300
000C0000
000C0000
000C0000
000C0000
000C0000
00FFFC00
00FFFC00
00060000
00060000
00060000
00020000
00020000
00720000
018E00C0
030700C0
03070180
03058180
018CE700
00703C00
00000000
00000000
00000000
00000000
ENDCHAR

STARTCHAR A1CD
ENCODING 41421
SWIDTH 960 0
DWIDTH 32 0
BBX 32 32 0 -8
BITMAP
00000000
00000000
00000000
00000000
07F007E0
01800080
01C00080
00E00100
00600200
00700200
00380400
00180800
001C0800
000E1000
01FFFF80
0003C000
0003C000
00018000
01FFFF80
00018000
00018000
00018000
00018000
00018000
00018000
00018000
000FF000
00000000
00000000
00000000
00000000
00000000
ENDCHAR

STARTCHAR A1CE
ENCODING 41422
SWIDTH 960 0
DWIDTH 32 0
BBX 32 32 0 -8
BITMAP
00000000
00000000
00000000
00000000
00018000
0003C000
0007E000
000FF000
001DB800
00399C00
00718E00
00E18700
01C18380
00818100
00018000
00018000
0003C000
000FF000
001C3800
00181800
00300C00
00300C00
00300C00
00300C00
00181800
001C3800
000FF000
0003C000
00000000
00000000
00000000
00000000
ENDCHAR

STARTCHAR A1CF
ENCODING 41423
SWIDTH 960 0
DWIDTH 32 0
BBX 32 32 0 -8
BITMAP
00000000
00000000
00000000
00000000
0003C000
000FF000
001C3800
00181800
00300C00
00300C00
00300C00
00300C00
00181800
001C3800
000FF000
0003C000
00018000
00018000
01FFFF80
01FFFF80
00018000
00018000
00018000
00018000
00018000
00018000
00018000
00018000
00000000
00000000
00000000
00000000
ENDCHAR

STARTCHAR A1D0
ENCODING 41424
SWIDTH 960 0
DWIDTH 32 0
BBX 32 32 0 -8
BITMAP
00000000
00000000
00000000
00000000
00000000
00000000
00000180
00000300
00000600
00000C00
00001800
00003000
00006000
0000C000
00018000
00030000
00060000
000C0000
00180000
00300000
00600000
00C00000
01FFFF80
01FFFF80
00000000
00000000
00000000
00000000
00000000
00000000
00000000
00000000
ENDCHAR

STARTCHAR A1D1
ENCODING 41425
SWIDTH 960 0
DWIDTH 32 0
BBX 32 32 0 -8
BITMAP
00000000
00000000
00000000
00000000
00000000
00000000
00000000
00000000
00018000
00018000
00018000
00018000
00018000
00018000
00018000
00018000
00018000
00018000
00018000
00018000
00018000
00018000
01FFFF80
01FFFF80
00000000
00000000
00000000
00000000
00000000
00000000
00000000
00000000
ENDCHAR

STARTCHAR A1D2
ENCODING 41426
SWIDTH 960 0
DWIDTH 32 0
BBX 32 32 0 -8
BITMAP
00000000
00000000
00000000
00000000
0007E000
001FF800
00781E00
00E00700
01C00380
038001C0
030000C0
06000060
06000060
00000000
00000000
00000000
00000000
00000000
00000000
00000000
00000000
00000000
00000000
00000000
00000000
00000000
00000000
00000000
00000000
00000000
00000000
00000000
ENDCHAR

STARTCHAR A1D3
ENCODING 41427
SWIDTH 960 0
DWIDTH 32 0
BBX 32 32 0 -8
BITMAP
00000000
00000000
00000000
00000000
00018000
0007E000
000C7000
00183000
00101800
00201800
00001800
00000800
00000800
00000800
0003C800
000E7800
00181000
00181000
00301000
00303000
00302000
00302000
00304000
0038C000
001F8000
000E0000
00000000
00000000
00000000
00000000
00000000
00000000
ENDCHAR

STARTCHAR A1D4
ENCODING 41428
SWIDTH 960 0
DWIDTH 32 0
BBX 32 32 0 -8
BITMAP
00000000
00000000
00000000
00000000
00000000
00000000
03FFFFC0
03FFFFC0
01800180
01800180
00C00300
00C00300
00600600
00600600
00300C00
00300C00
00181800
00181800
000C3000
000C3000
00066000
00066000
0003C000
0003C000
00018000
00018000
00000000
00000000
00000000
00000000
00000000
00000000
ENDCHAR

STARTCHAR A1D5
ENCODING 41429
SWIDTH 960 0
DWIDTH 32 0
BBX 32 32 0 -8
BITMAP
00000000
00000000
00000000
00000000
00000000
00000000
00000000
07FFFFE0
07FFFFE0
00000000
00000000
00000000
00000000
00000000
00000000
07FFFFE0
07FFFFE0
00000000
00000000
00000000
00000000
00000000
00000000
07FFFFE0
07FFFFE0
00000000
00000000
00000000
00000000
00000000
00000000
00000000
ENDCHAR

STARTCHAR A1D6
ENCODING 41430
SWIDTH 960 0
DWIDTH 32 0
BBX 32 32 0 -8
BITMAP
00000000
00000000
00000000
00000000
00000000
00F00000
00F00000
00F00000
00F00000
00000000
00000000
00000000
00000000
07FFFFE0
07FFFFE0
00000000
00000000
07FFFFE0
07FFFFE0
00000000
00000000
00000000
00000000
00000F00
00000F00
00000F00
00000F00
00000000
00000000
00000000
00000000
00000000
ENDCHAR

STARTCHAR A1D7
ENCODING 41431
SWIDTH 960 0
DWIDTH 32 0
BBX 32 32 0 -8
BITMAP
00000000
00000000
0003C000
000FF000
001C3800
00381800
00700C00
00700C00
00700000
00380000
000F0000
00078000
001CE000
00383800
00701C00
00700E00
00700E00
00380E00
001C0C00
00071800
0003F000
0000F800
00001C00
00000E00
00300E00
00300E00
00180C00
001C1800
000FF000
0003C000
00000000
00000000
ENDCHAR

STARTCHAR A1D8
ENCODING 41432
SWIDTH 960 0
DWIDTH 32 0
BBX 32 32 0 -8
BITMAP
00000000
00000000
00000000
00000000
0803C010
0C07E030
0607E060
0307E0C0
0187E180
00C3C300
00600600
00300C00
00181800
000C3000
078661E0
0FC3C3F0
0FC183F0
0FC3C3F0
0FC663F0
078C31E0
00181800
00300C00
00600600
00C3C300
0187E180
0307E0C0
0607E060
0C07E030
0003C000
00000000
00000000
00000000
ENDCHAR

STARTCHAR A1D9
ENCODING 41433
SWIDTH 960 0
DWIDTH 32 0
BBX 32 32 0 -8
BITMAP
00000000
00000000
00018000
00018000
0003C000
0003C000
0003C000
0007E000
00066000
00066000
000E7000
000C3000
1FFC3FFC
1FFC3FFC
0E000038
07000070
038000E0
01C001C0
00E00380
00700700
00300600
00600300
00600300
00C00180
00C1C180
0187F0C0
019E3CC0
03780F60
03E003E0
038000E0
00000000
00000000
ENDCHAR

STARTCHAR A1DA
ENCODING 41434
SWIDTH 960 0
DWIDTH 32 0
BBX 32 32 0 -8
BITMAP
00000000
00000000
00010000
00010000
00038000
00038000
00038000
0007C000
0007C000
0007C000
000FE000
000FE000
3FFFFFFC
1FFFFFF8
07FFFFE0
03FFFFC0
00FFFF00
007FFE00
003FFC00
003FFC00
007FFE00
007FFE00
00FFFF00
00FFFF00
01FC3F80
01F00F80
03C003C0
030000C0
00000000
00000000
00000000
00000000
ENDCHAR

STARTCHAR A1DB
ENCODING 41435
SWIDTH 960 0
DWIDTH 32 0
BBX 32 32 0 -8
BITMAP
00000000
00000000
00000000
00000000
000FF000
003FFC00
00F81F00
01E00780
038001C0
030000C0
070000E0
06000060
0E000070
0C000030
0C000030
0C000030
0C000030
0C000030
0C000030
0E000070
06000060
070000E0
030000C0
038001C0
01E00780
00F81F00
003FFC00
000FF000
00000000
00000000
00000000
00000000
ENDCHAR

STARTCHAR A1DC
ENCODING 41436
SWIDTH 960 0
DWIDTH 32 0
BBX 32 32 0 -8
BITMAP
00000000
00000000
00000000
00000000
000FF000
003FFC00
00FFFF00
01FFFF80
03FFFFC0
03FFFFC0
07FFFFE0
07FFFFE0
0FFFFFF0
0FFFFFF0
0FFFFFF0
0FFFFFF0
0FFFFFF0
0FFFFFF0
0FFFFFF0
0FFFFFF0
07FFFFE0
07FFFFE0
03FFFFC0
03FFFFC0
01FFFF80
00FFFF00
003FFC00
000FF000
00000000
00000000
00000000
00000000
ENDCHAR

STARTCHAR A1DD
ENCODING 41437
SWIDTH 960 0
DWIDTH 32 0
BBX 32 32 0 -8
BITMAP
00000000
00000000
00000000
00000000
000FF000
003FFC00
00F81F00
01E00780
038001C0
0303C0C0
070FF0E0
061C3860
0E300C70
0C300C30
0C600630
0C600630
0C600630
0C600630
0C300C30
0E300C70
061C3860
070FF0E0
0303C0C0
038001C0
01E00780
00F81F00
003FFC00
000FF000
00000000
00000000
00000000
00000000
ENDCHAR

STARTCHAR A1DE
ENCODING 41438
SWIDTH 960 0
DWIDTH 32 0
BBX 32 32 0 -8
BITMAP
00000000
00000000
00000000
00000000
00018000
0003C000
00066000
000C3000
00181800
00300C00
00600600
00C00300
01800180
030000C0
06000060
0C000030
0C000030
06000060
030000C0
01800180
00C00300
00600600
00300C00
00181800
000C3000
00066000
0003C000
00018000
00000000
00000000
00000000
00000000
ENDCHAR

STARTCHAR A1DF
ENCODING 41439
SWIDTH 960 0
DWIDTH 32 0
BBX 32 32 0 -8
BITMAP
00000000
00000000
00000000
00000000
00018000
0003C000
0007E000
000FF000
001FF800
003FFC00
007FFE00
00FFFF00
01FFFF80
03FFFFC0
07FFFFE0
0FFFFFF0
0FFFFFF0
07FFFFE0
03FFFFC0
01FFFF80
00FFFF00
007FFE00
003FFC00
001FF800
000FF000
0007E000
0003C000
00018000
00000000
00000000
00000000
00000000
ENDCHAR

STARTCHAR A1E0
ENCODING 41440
SWIDTH 960 0
DWIDTH 32 0
BBX 32 32 0 -8
BITMAP
00000000
00000000
00000000
00000000
0FFFFFF0
0FFFFFF0
0C000030
0C000030
0C000030
0C000030
0C000030
0C000030
0C000030
0C000030
0C000030
0C000030
0C000030
0C000030
0C000030
0C000030
0C000030
0C000030
0C000030
0C000030
0C000030
0C000030
0FFFFFF0
0FFFFFF0
00000000
00000000
00000000
00000000
ENDCHAR

STARTCHAR A1E1
ENCODING 41441
SWIDTH 960 0
DWIDTH 32 0
BBX 32 32 0 -8
BITMAP
00000000
00000000
00000000
00000000
0FFFFFF0
0FFFFFF0
0FFFFFF0
0FFFFFF0
0FFFFFF0
0FFFFFF0
0FFFFFF0
0FFFFFF0
0FFFFFF0
0FFFFFF0
0FFFFFF0
0FFFFFF0
0FFFFFF0
0FFFFFF0
0FFFFFF0
0FFFFFF0
0FFFFFF0
0FFFFFF0
0FFFFFF0
0FFFFFF0
0FFFFFF0
0FFFFFF0
0FFFFFF0
0FFFFFF0
00000000
00000000
00000000
00000000
ENDCHAR

STARTCHAR A1E2
ENCODING 41442
SWIDTH 960 0
DWIDTH 32 0
BBX 32 32 0 -8
BITMAP
00000000
00000000
00000000
00000000
00018000
00018000
0003C000
0003C000
00066000
00066000
000C3000
000C3000
00181800
00181800
00300C00
00300C00
00600600
00600600
00C00300
00C00300
01800180
01800180
030000C0
030000C0
06000060
06000060
0FFFFFF0
0FFFFFF0
00000000
00000000
00000000
00000000
ENDCHAR

STARTCHAR A1E3
ENCODING 41443
SWIDTH 960 0
DWIDTH 32 0
BBX 32 32 0 -8
BITMAP
00000000
00000000
00000000
00000000
00018000
00018000
0003C000
0003C000
0007E000
0007E000
000FF000
000FF000
001FF800
001FF800
003FFC00
003FFC00
007FFE00
007FFE00
00FFFF00
00FFFF00
01FFFF80
01FFFF80
03FFFFC0
03FFFFC0
07FFFFE0
07FFFFE0
0FFFFFF0
0FFFFFF0
00000000
00000000
00000000
00000000
ENDCHAR

STARTCHAR A1E4
ENCODING 41444
SWIDTH 960 0
DWIDTH 32 0
BBX 32 32 0 -8
BITMAP
00000000
00000000
00000000
00000000
0FFFFFF0
0FFFFFF0
06000060
06000060
030000C0
030000C0
01800180
01800180
00C00300
00C00300
00600600
00600600
00300C00
00300C00
00181800
00181800
000C3000
000C3000
00066000
00066000
0003C000
0003C000
00018000
00018000
00000000
00000000
00000000
00000000
ENDCHAR

STARTCHAR A1E5
ENCODING 41445
SWIDTH 960 0
DWIDTH 32 0
BBX 32 32 0 -8
BITMAP
00000000
00000000
00000000
00000000
0FFFFFF0
0FFFFFF0
07FFFFE0
07FFFFE0
03FFFFC0
03FFFFC0
01FFFF80
01FFFF80
00FFFF00
00FFFF00
007FFE00
007FFE00
003FFC00
003FFC00
001FF800
001FF800
000FF000
000FF000
0007E000
0007E000
0003C000
0003C000
00018000
00018000
00000000
00000000
00000000
00000000
ENDCHAR

STARTCHAR A1E6
ENCODING 41446
SWIDTH 960 0
DWIDTH 32 0
BBX 32 32 0 -8
BITMAP
00000000
00000000
00000000
00000000
00000000
00000000
00000000
00000000
00000000
00000000
00000000
00000080
000000C0
000000E0
000000F0
1FFFFFF8
1FFFFFF8
000000F0
000000E0
000000C0
00000080
00000000
00000000
00000000
00000000
00000000
00000000
00000000
00000000
00000000
00000000
00000000
ENDCHAR

STARTCHAR A1E7
ENCODING 41447
SWIDTH 960 0
DWIDTH 32 0
BBX 32 32 0 -8
BITMAP
00000000
00000000
00000000
00000000
00000000
00000000
00000000
00000000
00000000
00000000
00000000
01000000
03000000
07000000
0F000000
1FFFFFF8
1FFFFFF8
0F000000
07000000
03000000
01000000
00000000
00000000
00000000
00000000
00000000
00000000
00000000
00000000
00000000
00000000
00000000
ENDCHAR

STARTCHAR A1E8
ENCODING 41448
SWIDTH 960 0
DWIDTH 32 0
BBX 32 32 0 -8
BITMAP
00000000
00000000
00000000
00018000
0003C000
0007E000
000FF000
001FF800
00018000
00018000
00018000
00018000
00018000
00018000
00018000
00018000
00018000
00018000
00018000
00018000
00018000
00018000
00018000
00018000
00018000
00018000
00018000
00018000
00018000
00000000
00000000
00000000
ENDCHAR

STARTCHAR A1E9
ENCODING 41449
SWIDTH 960 0
DWIDTH 32 0
BBX 32 32 0 -8
BITMAP
00000000
00000000
00000000
00018000
00018000
00018000
00018000
00018000
00018000
00018000
00018000
00018000
00018000
00018000
00018000
00018000
00018000
00018000
00018000
00018000
00018000
00018000
00018000
00018000
001FF800
000FF000
0007E000
0003C000
00018000
00000000
00000000
00000000
ENDCHAR

STARTCHAR A1EA
ENCODING 41450
SWIDTH 960 0
DWIDTH 32 0
BBX 32 32 0 -8
BITMAP
00000000
00000000
00000000
00000000
00000000
00000000
00000000
00000000
00000000
00000000
00000000
01000080
030000C0
070000E0
0F0000F0
1FFFFFF8
1FFFFFF8
0F0000F0
070000E0
030000C0
01000080
00000000
00000000
00000000
00000000
00000000
00000000
00000000
00000000
00000000
00000000
00000000
ENDCHAR

STARTCHAR A1EB
ENCODING 41451
SWIDTH 960 0
DWIDTH 32 0
BBX 32 32 0 -8
BITMAP
00000000
00000000
00000000
00000000
00000000
00000000
00000000
00000000
00000000
00000000
00000000
00000000
0FFFFFF0
0FFFFFF0
00000000
00000000
00000000
00000000
0FFFFFF0
0FFFFFF0
00000000
00000000
00000000
00000000
00000000
00000000
00000000
00000000
00000000
00000000
00000000
00000000
ENDCHAR

STARTCHAR A1EC
ENCODING 41452
SWIDTH 960 0
DWIDTH 32 0
BBX 32 32 0 -8
BITMAP
00000000
00000000
00000000
00000000
00000000
00000000
00000000
00000000
00000000
00006060
0001C1C0
00070700
001C1C00
00707000
01C1C000
07070000
07070000
01C1C000
00707000
001C1C00
00070700
0001C1C0
00006060
00000000
00000000
00000000
00000000
00000000
00000000
00000000
00000000
00000000
ENDCHAR

STARTCHAR A1ED
ENCODING 41453
SWIDTH 960 0
DWIDTH 32 0
BBX 32 32 0 -8
BITMAP
00000000
00000000
00000000
00000000
00000000
00000000
00000000
00000000
00000000
06060000
03838000
00E0E000
00383800
000E0E00
00038380
0000E0E0
0000E0E0
00038380
000E0E00
00383800
00E0E000
03838000
06060000
00000000
00000000
00000000
00000000
00000000
00000000
00000000
00000000
00000000
ENDCHAR

STARTCHAR A1EE
ENCODING 41454
SWIDTH 960 0
DWIDTH 32 0
BBX 32 32 0 -8
BITMAP
00000000
0001FFFE
0001FFFE
00018000
00030000
00030000
00030000
00030000
00060000
00060000
00060000
00060000
000C0000
000C0000
000C0000
000C0000
00180000
18180000
18180000
3C180000
2C300000
4E300000
46300000
07300000
03600000
03C00000
01C00000
01C00000
00800000
00800000
00000000
00000000
ENDCHAR

STARTCHAR A1EF
ENCODING 41455
SWIDTH 960 0
DWIDTH 32 0
BBX 32 32 0 -8
BITMAP
00000000
00000000
00000000
00000000
00000000
00000000
00000000
00000000
00000000
00000000
00E00F00
03F83FC0
071870E0
06006060
0C00C030
0C018030
0C018030
0C030030
06070060
070E18E0
03FC1FC0
00F00700
00000000
00000000
00000000
00000000
00000000
00000000
00000000
00000000
00000000
00000000
ENDCHAR

STARTCHAR A1F0
ENCODING 41456
SWIDTH 960 0
DWIDTH 32 0
BBX 32 32 0 -8
BITMAP
00000000
00000000
00000000
00000000
00000000
00000000
00000000
00000000
00000000
00000000
00F01E00
03FC7F80
070EE000
0607C000
0C038000
0C018000
0C018000
0C038000
0607C000
070EE000
03FC7F80
00F01E00
00000000
00000000
00000000
00000000
00000000
00000000
00000000
00000000
00000000
00000000
ENDCHAR

STARTCHAR A1F1
ENCODING 41457
SWIDTH 960 0
DWIDTH 32 0
BBX 32 32 0 -8
BITMAP
00000000
00000000
00000000
00000000
00000000
00000000
03C003C0
07E007E0
07E007E0
07E007E0
07E007E0
03C003C0
00000000
00000000
00000000
00000000
00000000
00000000
00000000
00000000
0003C000
0007E000
0007E000
0007E000
0007E000
0003C000
00000000
00000000
00000000
00000000
00000000
00000000
ENDCHAR

STARTCHAR A1F2
ENCODING 41458
SWIDTH 960 0
DWIDTH 32 0
BBX 32 32 0 -8
BITMAP
00000000
00000000
00006000
00019800
00010C00
00030C00
00030C00
00030000
00030000
00030000
00030000
00030000
00018000
00018000
00018000
00018000
00018000
00018000
00018000
0000C000
0000C000
0000C000
0000C000
0000C000
0000C000
0030C000
0030C000
00308000
00198000
00060000
00000000
00000000
ENDCHAR

STARTCHAR A1F3
ENCODING 41459
SWIDTH 960 0
DWIDTH 32 0
BBX 32 32 0 -8
BITMAP
00000000
00000000
000C0300
00330CC0
00218860
00619860
00619860
00601800
00601800
00601800
00601800
00601800
00300C00
00300C00
00300C00
00300C00
00300C00
00300C00
00300C00
00180600
00180600
00180600
00180600
00180600
00180600
06198600
06198600
06118400
0330CC00
00C03000
00000000
00000000
ENDCHAR

STARTCHAR A1F4
ENCODING 41460
SWIDTH 960 0
DWIDTH 32 0
BBX 32 32 0 -8
BITMAP
00000000
00000000
00000000
00000000
00000000
00000000
00000000
00000000
003FFFE0
00FFFFE0
01C00000
03000000
03000000
06000000
06000000
06000000
07FFFFE0
07FFFFE0
06000000
06000000
06000000
03000000
03000000
01C00000
00FFFFE0
003FFFE0
00000000
00000000
00000000
00000000
00000000
00000000
ENDCHAR

STARTCHAR A1F5
ENCODING 41461
SWIDTH 960 0
DWIDTH 32 0
BBX 32 32 0 -8
BITMAP
00000000
00000000
00000000
00000000
00000000
00000000
00000000
00000000
07FFFC00
07FFFF00
00000780
000001C0
000000C0
000000E0
00000060
00000060
07FFFFE0
07FFFFE0
00000060
00000060
000000E0
000000C0
000001C0
00000780
07FFFF00
07FFFC00
00000000
00000000
00000000
00000000
00000000
00000000
ENDCHAR

STARTCHAR A1F6
ENCODING 41462
SWIDTH 960 0
DWIDTH 32 0
BBX 32 32 0 -8
BITMAP
00000000
00000000
00000000
00000000
00000000
00000000
003FFFE0
00FFFFE0
01C00000
03000000
03000000
06000000
06000000
06000000
06000000
06000000
06000000
03000000
03000000
01C00000
00FFFFE0
003FFFE0
00000000
00000000
00000000
00000000
07FFFFE0
07FFFFE0
00000000
00000000
00000000
00000000
ENDCHAR

STARTCHAR A1F7
ENCODING 41463
SWIDTH 960 0
DWIDTH 32 0
BBX 32 32 0 -8
BITMAP
00000000
00000000
00000000
00000000
00000000
00000000
07FFFC00
07FFFF00
00000780
000001C0
000000C0
000000E0
00000060
00000060
00000060
00000060
000000E0
000000C0
000001C0
00000780
07FFFF00
07FFFC00
00000000
00000000
00000000
00000000
07FFFFE0
07FFFFE0
00000000
00000000
00000000
00000000
ENDCHAR

STARTCHAR A1F8
ENCODING 41464
SWIDTH 960 0
DWIDTH 32 0
BBX 32 32 0 -8
BITMAP
00000000
00000000
00000000
00000000
00000000
00000000
00000000
00000000
003FFFE0
00FFFFE0
01E00000
03800000
03000000
07000000
06000000
06000000
06000000
06000000
06000000
06000000
07000000
03000000
03800000
01E00000
00FFFFE0
003FFFE0
00000000
00000000
00000000
00000000
00000000
00000000
ENDCHAR

STARTCHAR A1F9
ENCODING 41465
SWIDTH 960 0
DWIDTH 32 0
BBX 32 32 0 -8
BITMAP
00000000
00000000
00000000
00000000
00000000
00000000
00000000
00000000
07FFFC00
07FFFF00
00000780
000001C0
000000C0
000000E0
00000060
00000060
00000060
00000060
00000060
00000060
000000E0
000000C0
000001C0
00000780
07FFFF00
07FFFC00
00000000
00000000
00000000
00000000
00000000
00000000
ENDCHAR

STARTCHAR A1FA
ENCODING 41466
SWIDTH 960 0
DWIDTH 32 0
BBX 32 32 0 -8
BITMAP
00000000
00000000
00000000
00000000
00000000
01800180
01800180
01800180
01800180
01800180
01800180
01800180
01800180
01800180
01800180
01800180
01800180
01800180
01800180
01800180
01800180
01C00380
00C00300
00E00700
00781E00
003FFC00
000FF000
00000000
00000000
00000000
00000000
00000000
ENDCHAR

STARTCHAR A1FB
ENCODING 41467
SWIDTH 960 0
DWIDTH 32 0
BBX 32 32 0 -8
BITMAP
00000000
00000000
00000000
00000000
00000000
000FF000
003FFC00
00781E00
00E00700
00C00300
01C00380
01800180
01800180
01800180
01800180
01800180
01800180
01800180
01800180
01800180
01800180
01800180
01800180
01800180
01800180
01800180
01800180
00000000
00000000
00000000
00000000
00000000
ENDCHAR

STARTCHAR A1FC
ENCODING 41468
SWIDTH 960 0
DWIDTH 32 0
BBX 32 32 0 -8
BITMAP
00000000
00000000
00000000
00000000
00000000
00018000
00018000
0003C000
0003C000
00066000
00066000
000C3000
000C3000
000C3000
00181800
00181800
00300C00
00300C00
00300C00
00600600
00600600
00C00300
00C00300
01800180
01800180
030000C0
030000C0
00000000
00000000
00000000
00000000
00000000
ENDCHAR

STARTCHAR A1FD
ENCODING 41469
SWIDTH 960 0
DWIDTH 32 0
BBX 32 32 0 -8
BITMAP
00000000
00000000
00000000
00000000
00000000
030000C0
030000C0
01800180
01800180
00C00300
00C00300
00600600
00600600
00300C00
00300C00
00300C00
00181800
00181800
000C3000
000C3000
000C3000
00066000
00066000
0003C000
0003C000
00018000
00018000
00000000
00000000
00000000
00000000
00000000
ENDCHAR

STARTCHAR A1FE
ENCODING 41470
SWIDTH 960 0
DWIDTH 32 0
BBX 32 32 0 -8
BITMAP
00000000
00000000
00000000
00000000
00000000
00000000
00000000
00000000
00000000
00000000
00000000
00000000
03FFFFF0
03FFFFF0
00000030
00000030
00000030
00000030
00000030
00000030
00000030
00000030
00000000
00000000
00000000
00000000
00000000
00000000
00000000
00000000
00000000
00000000
ENDCHAR

STARTCHAR A2A1
ENCODING 41633
SWIDTH 960 0
DWIDTH 32 0
BBX 32 32 0 -8
BITMAP
00000000
00000000
00000000
00000000
00000000
00000000
00001800
00001C00
00000E00
00000700
1FFFFF80
1FFFFFC0
000000E0
00000070
00000038
00000038
00000070
000000E0
1FFFFFC0
1FFFFF80
00000700
00000E00
00001C00
00001800
00000000
00000000
00000000
00000000
00000000
00000000
00000000
00000000
ENDCHAR

STARTCHAR A2A2
ENCODING 41634
SWIDTH 960 0
DWIDTH 32 0
BBX 32 32 0 -8
BITMAP
00000000
00000000
00000000
00000000
00000000
00000000
00600600
00E00700
01C00380
038001C0
07FFFFE0
0FFFFFF0
1C000038
3800001C
7000000E
7000000E
3800001C
1C000038
0FFFFFF0
07FFFFE0
038001C0
01C00380
00E00700
00600600
00000000
00000000
00000000
00000000
00000000
00000000
00000000
00000000
ENDCHAR

STARTCHAR A2A3
ENCODING 41635
SWIDTH 960 0
DWIDTH 32 0
BBX 32 32 0 -8
BITMAP
00000000
00000000
030000C0
030000C0
01800180
01800180
00C00300
00C00300
00600600
00600600
007FFE00
00300C00
00300C00
00181800
00181800
000C3000
000C3000
000C3000
00066000
00066000
0003C000
0003C000
00018000
00018000
00018000
00000000
00000000
00000000
00000000
00000000
00000000
00000000
ENDCHAR

STARTCHAR A2A4
ENCODING 41636
SWIDTH 960 0
DWIDTH 32 0
BBX 32 32 0 -8
BITMAP
00000000
00000000
00000000
00FFFE00
00000600
00000600
00000600
00000600
00000600
00000600
00000600
00000600
00000600
00FFFE00
00000600
00000600
00000600
00000600
00000600
00000600
00000600
00000600
00000600
00FFFE00
00000000
00000000
00000000
00000000
00000000
00000000
00000000
00000000
ENDCHAR

STARTCHAR A2A5
ENCODING 41637
SWIDTH 960 0
DWIDTH 32 0
BBX 32 32 0 -8
BITMAP
00000000
00000000
00000000
00000000
00030000
00030000
00020000
00020000
00020000
00040000
00040000
00040000
00000000
00000000
00000000
00000000
00000000
00000000
00000000
00000000
00000000
00000000
00000000
00000000
00000000
00000000
00000000
00000000
00000000
00000000
00000000
00000000
ENDCHAR

STARTCHAR A2A6
ENCODING 41638
SWIDTH 960 0
DWIDTH 32 0
BBX 32 32 0 -8
BITMAP
00000000
00000000
00000000
00000000
000E0400
00110400
00208800
00207000
00000000
00000000
00000000
00000000
00000000
00000000
00000000
00000000
00000000
00000000
00000000
00000000
00000000
00000000
00000000
00000000
00000000
00000000
00000000
00000000
00000000
00000000
00000000
00000000
ENDCHAR

STARTCHAR A2A7
ENCODING 41639
SWIDTH 960 0
DWIDTH 32 0
BBX 32 32 0 -8
BITMAP
00000000
00000000
00000000
00000000
00300C00
00181800
000C3000
00066000
0003C000
00018000
00000000
00000000
00000000
00000000
00000000
00000000
00000000
00000000
00000000
00000000
00000000
00000000
00000000
00000000
00000000
00000000
00000000
00000000
00000000
00000000
00000000
00000000
ENDCHAR

STARTCHAR A2A8
ENCODING 41640
SWIDTH 960 0
DWIDTH 32 0
BBX 32 32 0 -8
BITMAP
00000000
00000000
00000000
00000000
00100800
00100800
000C3000
0003C000
00000000
00000000
00000000
00000000
00000000
00000000
00000000
00000000
00000000
00000000
00000000
00000000
00000000
00000000
00000000
00000000
00000000
00000000
00000000
00000000
00000000
00000000
00000000
00000000
ENDCHAR

STARTCHAR A2A9
ENCODING 41641
SWIDTH 960 0
DWIDTH 32 0
BBX 32 32 0 -8
BITMAP
00000000
00000000
00000000
00000000
000C3000
000C3000
00082000
00186000
00104000
00104000
00208000
00208000
00000000
00000000
00000000
00000000
00000000
00000000
00000000
00000000
00000000
00000000
00000000
00000000
00000000
00000000
00000000
00000000
00000000
00000000
00000000
00000000
ENDCHAR

STARTCHAR A2AA
ENCODING 41642
SWIDTH 960 0
DWIDTH 32 0
BBX 32 32 0 -8
BITMAP
00000000
00000000
00000000
00000000
0003C000
00042000
00081000
00081000
00081000
00081000
00042000
0003C000
00000000
00000000
00000000
00000000
00000000
00000000
00000000
00000000
00000000
00000000
00000000
00000000
00000000
00000000
00000000
00000000
00000000
00000000
00000000
00000000
ENDCHAR

STARTCHAR A2AB
ENCODING 41643
SWIDTH 960 0
DWIDTH 32 0
BBX 32 32 0 -8
BITMAP
00000000
00000000
00000000
00000000
0003C000
0007E000
0007E000
0007E000
0007E000
0003C000
00000000
00000000
00000000
00000000
00000000
00000000
00000000
00000000
00000000
00000000
00000000
00000000
00000000
00000000
00000000
00000000
00000000
00000000
00000000
00000000
00000000
00000000
ENDCHAR

STARTCHAR A2AC
ENCODING 41644
SWIDTH 960 0
DWIDTH 32 0
BBX 32 32 0 -8
BITMAP
00000000
00000000
00000000
00000000
00000000
00000000
00000000
00000000
00000000
00000000
00000000
00000000
00040000
00040000
000C0000
000E0000
00060000
00070000
00038000
0001C000
0000E000
00006000
00003000
00003000
00003000
00006000
001FE000
000F8000
00000000
00000000
00000000
00000000
ENDCHAR

STARTCHAR A2AD
ENCODING 41645
SWIDTH 960 0
DWIDTH 32 0
BBX 32 32 0 -8
BITMAP
00000000
00000000
00000000
00000000
00000000
00000000
00000000
00000000
00000000
00000000
00000000
00000000
00000000
00000000
00000000
00000000
00008000
00018000
00030000
00030000
00060000
00060000
000C0000
000C0000
000C0000
000E3000
000FE000
00078000
00000000
00000000
00000000
00000000
ENDCHAR

STARTCHAR A2AE
ENCODING 41646
SWIDTH 960 0
DWIDTH 32 0
BBX 32 32 0 -8
BITMAP
00000000
00000000
00000000
00000000
00018000
0003C000
0003C000
00018000
00000000
00000000
00000000
00018000
00018000
00018000
00018000
00018000
00018000
00018000
00018000
0003C000
0003C000
0003C000
0003C000
0003C000
0003C000
0003C000
00018000
00000000
00000000
00000000
00000000
00000000
ENDCHAR

STARTCHAR A2AF
ENCODING 41647
SWIDTH 960 0
DWIDTH 32 0
BBX 32 32 0 -8
BITMAP
00000000
00000000
00000000
00000000
0000C000
0001E000
0001E000
0000C000
00000000
00000000
0000C000
0000C000
0000C000
0000C000
0000C000
0000C000
0003C000
000FC000
001C0000
00180000
00300000
00300000
00300000
00301000
00101000
00186000
00078000
00000000
00000000
00000000
00000000
00000000
ENDCHAR

STARTCHAR A2B0
ENCODING 41648
SWIDTH 960 0
DWIDTH 32 0
BBX 32 32 0 -8
BITMAP
00000000
00000000
00000000
00000000
00000000
00000000
00000000
00000000
0007E000
0003C000
0003C000
00018000
00018000
00000000
00000000
00000000
00000000
00000000
00000000
00018000
00018000
0003C000
0003C000
0007E000
00000000
00000000
00000000
00000000
00000000
00000000
00000000
00000000
ENDCHAR

STARTCHAR A2B1
ENCODING 41649
SWIDTH 960 0
DWIDTH 32 0
BBX 32 32 0 -8
BITMAP
00000000
00000000
00007000
00019800
00011800
00030000
00030000
00030000
00030000
00030000
00030000
00078000
001B6000
00132000
00231000
00231000
00231000
00231000
00132000
001B6000
00078000
00030000
00030000
00030000
00030000
00030000
00030000
00620000
00660000
00380000
00000000
00000000
ENDCHAR

STARTCHAR A2B2
ENCODING 41650
SWIDTH 960 0
DWIDTH 32 0
BBX 32 32 0 -8
BITMAP
00000000
00000000
00000000
00000000
00000000
00000000
01FFFF80
00E00080
00700080
00380080
001C0080
000E0080
00070000
00038000
0001C000
0000E000
00006000
0000C000
00018000
00030000
00060000
000C0000
00180080
00300080
00600080
00C00180
01800180
03FFFF80
00000000
00000000
00000000
00000000
ENDCHAR

STARTCHAR A2B3
ENCODING 41651
SWIDTH 960 0
DWIDTH 32 0
BBX 32 32 0 -8
BITMAP
00000000
00000000
00000000
00000000
00000000
00000000
00000000
007FFF80
00180600
00180600
00180600
00180600
00180600
00180600
00180600
00180600
00180600
00180600
00180600
00180600
00180600
00180600
00180600
00180600
00180600
00180600
00000000
00000000
00000000
00000000
00000000
00000000
ENDCHAR

STARTCHAR A2B4
ENCODING 41652
SWIDTH 960 0
DWIDTH 32 0
BBX 32 32 0 -8
BITMAP
00000000
00000000
00000000
00000000
00000000
00000000
00000000
00000000
00400100
0061C300
0037F600
001E3C00
00180C00
00300600
00300300
00600300
00600300
00600300
00600300
00300600
00380E00
006C1B00
00C7F180
0081C080
00000000
00000000
00000000
00000000
00000000
00000000
00000000
00000000
ENDCHAR

STARTCHAR A2B5
ENCODING 41653
SWIDTH 960 0
DWIDTH 32 0
BBX 32 32 0 -8
BITMAP
00000000
00000000
07800000
08400000
10200000
10200000
1027FFF8
10230018
08430008
07830008
00030008
00030000
00030000
00030000
00030100
00030100
00030300
0003FF00
00030300
00030100
00030100
00030000
00030000
00030000
00030000
00030000
00030000
00030000
00030000
00078000
00000000
00000000
ENDCHAR

STARTCHAR A2B6
ENCODING 41654
SWIDTH 960 0
DWIDTH 32 0
BBX 32 32 0 -8
BITMAP
00000000
00000000
00000000
00004000
00004000
07008000
0C808000
18C10000
18C10000
30C20000
30C20000
30C40000
31840000
31880000
13080000
0E10E038
00119064
002318C6
002318C6
00461986
00461986
00861986
0086318C
0106318C
01026098
0201C070
02000000
04000000
04000000
00000000
00000000
00000000
ENDCHAR

STARTCHAR A2B7
ENCODING 41655
SWIDTH 960 0
DWIDTH 32 0
BBX 32 32 0 -8
BITMAP
00000000
00000000
00000000
00000000
00000000
00000060
000001E0
000007E0
00001E60
00007860
0001E060
00078060
001E0060
00780060
01E00060
07800060
07800060
01E00060
00780060
001E0060
00078060
0001E060
00007860
00001E60
000007E0
000001E0
00000060
00000000
00000000
00000000
00000000
00000000
ENDCHAR

STARTCHAR A2B8
ENCODING 41656
SWIDTH 960 0
DWIDTH 32 0
BBX 32 32 0 -8
BITMAP
00000000
00000000
00000000
00000000
00000000
00000060
000001E0
000007E0
00001FE0
00007FE0
0001FFE0
0007FFE0
001FFFE0
007FFFE0
01FFFFE0
07FFFFE0
07FFFFE0
01FFFFE0
007FFFE0
001FFFE0
0007FFE0
0001FFE0
00007FE0
00001FE0
000007E0
000001E0
00000060
00000000
00000000
00000000
00000000
00000000
ENDCHAR

STARTCHAR A2B9
ENCODING 41657
SWIDTH 960 0
DWIDTH 32 0
BBX 32 32 0 -8
BITMAP
00000000
00000000
00000000
00000000
00000000
06000000
07800000
07E00000
06780000
061E0000
06078000
0601E000
06007800
06001E00
06000780
060001E0
060001E0
06000780
06001E00
06007800
0601E000
06078000
061E0000
06780000
07E00000
07800000
06000000
00000000
00000000
00000000
00000000
00000000
ENDCHAR

STARTCHAR A2BA
ENCODING 41658
SWIDTH 960 0
DWIDTH 32 0
BBX 32 32 0 -8
BITMAP
00000000
00000000
00000000
00000000
00000000
06000000
07800000
07E00000
07F80000
07FE0000
07FF8000
07FFE000
07FFF800
07FFFE00
07FFFF80
07FFFFE0
07FFFFE0
07FFFF80
07FFFE00
07FFF800
07FFE000
07FF8000
07FE0000
07F80000
07E00000
07800000
06000000
00000000
00000000
00000000
00000000
00000000
ENDCHAR

STARTCHAR A2BB
ENCODING 41659
SWIDTH 960 0
DWIDTH 32 0
BBX 32 32 0 -8
BITMAP
00000000
00000000
00000000
00018000
00018000
0003C000
0003C000
00066000
000C3000
00181800
00300C00
00300C00
00600600
00C00300
00C00300
01800180
01800180
030000C0
030000C0
030000C0
030000C0
030180C0
0387E1C0
01FFFF80
00F99F00
00018000
00018000
00018000
0007E000
00000000
00000000
00000000
ENDCHAR

STARTCHAR A2BC
ENCODING 41660
SWIDTH 960 0
DWIDTH 32 0
BBX 32 32 0 -8
BITMAP
00000000
00000000
00000000
00018000
00018000
0003C000
0003C000
0007E000
000FF000
001FF800
003FFC00
003FFC00
007FFE00
00FFFF00
00FFFF00
01FFFF80
01FFFF80
03FFFFC0
03FFFFC0
03FFFFC0
03FFFFC0
03FFFFC0
03FFFFC0
01FFFF80
00F99F00
00018000
00018000
00018000
0007E000
00000000
00000000
00000000
ENDCHAR

STARTCHAR A2BD
ENCODING 41661
SWIDTH 960 0
DWIDTH 32 0
BBX 32 32 0 -8
BITMAP
00000000
00000000
00000000
00000000
00000000
00781E00
01FE7F80
0383C1C0
030180C0
06000060
06000060
06000060
06000060
06000060
030000C0
030000C0
01800180
01800180
00C00300
00600600
00600600
00300C00
00181800
000C3000
00066000
0003C000
00018000
00000000
00000000
00000000
00000000
00000000
ENDCHAR

STARTCHAR A2BE
ENCODING 41662
SWIDTH 960 0
DWIDTH 32 0
BBX 32 32 0 -8
BITMAP
00000000
00000000
00000000
00000000
00000000
00781E00
01FE7F80
03FFFFC0
03FFFFC0
07FFFFE0
07FFFFE0
07FFFFE0
07FFFFE0
07FFFFE0
03FFFFC0
03FFFFC0
01FFFF80
01FFFF80
00FFFF00
007FFE00
007FFE00
003FFC00
001FF800
000FF000
0007E000
0003C000
00018000
00000000
00000000
00000000
00000000
00000000
ENDCHAR

STARTCHAR A2BF
ENCODING 41663
SWIDTH 960 0
DWIDTH 32 0
BBX 32 32 0 -8
BITMAP
00000000
00000000
00000000
00000000
0007E000
000FF000
001C3800
00181800
00181800
00181800
00181800
00181800
000C3000
00042000
00F66F00
01FE7F80
038001C0
030000C0
030000C0
030000C0
030180C0
0383C1C0
01FFFF80
00F99F00
00018000
00018000
00018000
0007E000
00000000
00000000
00000000
00000000
ENDCHAR

STARTCHAR A2C0
ENCODING 41664
SWIDTH 960 0
DWIDTH 32 0
BBX 32 32 0 -8
BITMAP
00000000
00000000
00000000
00000000
0007E000
000FF000
001FF800
001FF800
001FF800
001FF800
001FF800
001FF800
000FF000
0007E000
00F7EF00
01FFFF80
03FFFFC0
03FFFFC0
03FFFFC0
03FFFFC0
03FFFFC0
03FFFFC0
01FFFF80
00F99F00
00018000
00018000
00018000
0007E000
00000000
00000000
00000000
00000000
ENDCHAR

STARTCHAR A2C1
ENCODING 41665
SWIDTH 960 0
DWIDTH 32 0
BBX 32 32 0 -8
BITMAP
00000000
00000000
00000000
00000000
00000000
000FF000
003FFC00
00700E00
00C00300
01800180
030000C0
030000C0
06000060
0603C060
0607E060
0607E060
0607E060
0607E060
0603C060
06000060
030000C0
030000C0
01800180
00C00300
00700E00
003FFC00
000FF000
00000000
00000000
00000000
00000000
00000000
ENDCHAR

STARTCHAR A2C2
ENCODING 41666
SWIDTH 960 0
DWIDTH 32 0
BBX 32 32 0 -8
BITMAP
00000000
00000000
00000000
00000000
00018000
0003C000
00066000
000C3000
00181800
00300C00
00600600
00C18300
0183C180
0307E0C0
060FF060
0C1FF830
0C1FF830
060FF060
0307E0C0
0183C180
00C18300
00600600
00300C00
00181800
000C3000
00066000
0003C000
00018000
00000000
00000000
00000000
00000000
ENDCHAR

STARTCHAR A2C3
ENCODING 41667
SWIDTH 960 0
DWIDTH 32 0
BBX 32 32 0 -8
BITMAP
00000000
00000000
00000000
00000000
00000000
07FFFFE0
07FFFFE0
06000060
06000060
06000060
06000060
06000060
060FF060
060FF060
060FF060
060FF060
060FF060
060FF060
060FF060
060FF060
06000060
06000060
06000060
06000060
06000060
07FFFFE0
07FFFFE0
00000000
00000000
00000000
00000000
00000000
ENDCHAR

STARTCHAR A2C4
ENCODING 41668
SWIDTH 960 0
DWIDTH 32 0
BBX 32 32 0 -8
BITMAP
00000000
00000000
00000000
00000000
00000000
000FF000
003FFC00
007F0E00
00FF0300
01FF0180
03FF00C0
03FF00C0
07FF0060
07FF0060
07FF0060
07FF0060
07FF0060
07FF0060
07FF0060
07FF0060
03FF00C0
03FF00C0
01FF0180
00FF0300
007F0E00
003FFC00
000FF000
00000000
00000000
00000000
00000000
00000000
ENDCHAR

STARTCHAR A2C5
ENCODING 41669
SWIDTH 960 0
DWIDTH 32 0
BBX 32 32 0 -8
BITMAP
00000000
00000000
00000000
00000000
00000000
000FF000
003FFC00
0070FE00
00C0FF00
0180FF80
0300FFC0
0300FFC0
0600FFE0
0600FFE0
0600FFE0
0600FFE0
0600FFE0
0600FFE0
0600FFE0
0600FFE0
0300FFC0
0300FFC0
0180FF80
00C0FF00
0070FE00
003FFC00
000FF000
00000000
00000000
00000000
00000000
00000000
ENDCHAR

STARTCHAR A2C6
ENCODING 41670
SWIDTH 960 0
DWIDTH 32 0
BBX 32 32 0 -8
BITMAP
00000000
00000000
00000000
1FFFFFF8
10000008
10000008
130C30C8
130C30C8
10000008
10000008
10000008
10000008
18618618
18618618
10000008
10000008
10000008
10000008
130C30C8
130C30C8
10000008
10000008
10000008
10000008
18618618
18618618
10000008
10000008
1FFFFFF8
00000000
00000000
00000000
ENDCHAR

STARTCHAR A2C7
ENCODING 41671
SWIDTH 960 0
DWIDTH 32 0
BBX 32 32 0 -8
BITMAP
00000000
00000000
00000000
1FFFFFF0
10000010
10000010
10000010
10000010
10000010
1FFFFFF0
10000010
10000010
10000010
10000010
10000010
1FFFFFF0
10000010
10000010
10000010
10000010
10000010
1FFFFFF0
10000010
10000010
10000010
10000010
10000010
1FFFFFF0
00000000
00000000
00000000
00000000
ENDCHAR

STARTCHAR A2C8
ENCODING 41672
SWIDTH 960 0
DWIDTH 32 0
BBX 32 32 0 -8
BITMAP
00000000
00000000
00000000
1FFFFFF0
10410410
10410410
10410410
10410410
10410410
10410410
10410410
10410410
10410410
10410410
10410410
10410410
10410410
10410410
10410410
10410410
10410410
10410410
10410410
10410410
10410410
10410410
10410410
1FFFFFF0
00000000
00000000
00000000
00000000
ENDCHAR

STARTCHAR A2C9
ENCODING 41673
SWIDTH 960 0
DWIDTH 32 0
BBX 32 32 0 -8
BITMAP
00000000
00000000
00000000
1FFFFFF0
10030030
10060070
100C00D0
10180190
10300310
10600610
10C00C10
11801810
13003010
16006010
1C00C010
18018010
10030030
10060070
100C00D0
10180190
10300310
10600610
10C00C10
11801810
13003010
16006010
1C00C010
1FFFFFF0
00000000
00000000
00000000
00000000
ENDCHAR

STARTCHAR A2CA
ENCODING 41674
SWIDTH 960 0
DWIDTH 32 0
BBX 32 32 0 -8
BITMAP
00000000
00000000
00000000
1FFFFFF0
18018010
1C00C010
16006010
13003010
11801810
10C00C10
10600610
10300310
10180190
100C00D0
10060070
18030030
1C018010
1600C010
13006010
11803010
10C01810
10600C10
10300610
10180310
100C0190
100600D0
10030070
1FFFFFF0
00000000
00000000
00000000
00000000
ENDCHAR

STARTCHAR A2CB
ENCODING 41675
SWIDTH 960 0
DWIDTH 32 0
BBX 32 32 0 -8
BITMAP
00000000
00000000
00000000
1FFFFFF0
10410410
10410410
10410410
10410410
10410410
1FFFFFF0
10410410
10410410
10410410
10410410
10410410
1FFFFFF0
10410410
10410410
10410410
10410410
10410410
1FFFFFF0
10410410
10410410
10410410
10410410
10410410
1FFFFFF0
00000000
00000000
00000000
00000000
ENDCHAR

STARTCHAR A2CC
ENCODING 41676
SWIDTH 960 0
DWIDTH 32 0
BBX 32 32 0 -8
BITMAP
00000000
00000000
00000000
1FFFFFF0
18038030
1C06C070
160C60D0
13183190
11B01B10
10E00E10
10E00E10
11B01B10
13183190
160C60D0
1C06C070
18038030
1C038030
1606C070
130C60D0
11983190
10F01B10
10600E10
10F00E10
11981B10
130C3190
160660D0
1C03C070
1FFFFFF0
00000000
00000000
00000000
00000000
ENDCHAR

STARTCHAR A2CD
ENCODING 41677
SWIDTH 960 0
DWIDTH 32 0
BBX 32 32 0 -8
BITMAP
00000000
00000000
00000000
00004000
00008000
00090400
00130800
00221000
00263000
00663000
00663000
00663000
00631800
00331800
00319800
00318C00
00198C00
00D8CD00
0318CCC0
0218CC40
0418C820
0410C820
04108820
06008060
02000040
038001C0
01E00780
007FFE00
000FF000
00000000
00000000
00000000
ENDCHAR

STARTCHAR A2CE
ENCODING 41678
SWIDTH 960 0
DWIDTH 32 0
BBX 32 32 0 -8
BITMAP
00000000
00000000
00000000
00000000
007FFC00
03800380
0C000060
107FFC10
10882210
21082108
22082088
22082088
3E0820F8
000FE000
00183000
00301800
00501400
00901200
01101100
02101080
04082040
0407C040
08000020
08000020
087FFE20
08400220
0FC003E0
00000000
00000000
00000000
00000000
00000000
ENDCHAR

STARTCHAR A2CF
ENCODING 41679
SWIDTH 960 0
DWIDTH 32 0
BBX 32 32 0 -8
BITMAP
00000000
00000000
00000000
00000000
007FFC00
03FFFF80
0FFFFFE0
1FFFFFF0
1F9833F0
3F1831F8
3E1830F8
3E1830F8
3E1830F8
001FF000
00183000
00301800
00701C00
00F01E00
01F01F00
03F01F80
07F83FC0
07FFFFC0
0FFFFFE0
0FFFFFE0
0FFFFFE0
0F8003E0
0F8003E0
00000000
00000000
00000000
00000000
00000000
ENDCHAR

STARTCHAR A2D0
ENCODING 41680
SWIDTH 960 0
DWIDTH 32 0
BBX 32 32 0 -8
BITMAP
00000000
00000000
00000000
00000000
00000000
00000000
00000000
00000000
00000000
0000003E
3FFFFE22
400001E2
40000022
3FFE0022
00200022
00200022
001E0022
00200022
00200022
001F0022
001001E2
00100622
000FF822
0000003E
00000000
00000000
00000000
00000000
00000000
00000000
00000000
00000000
ENDCHAR

STARTCHAR A2D1
ENCODING 41681
SWIDTH 960 0
DWIDTH 32 0
BBX 32 32 0 -8
BITMAP
00000000
00000000
00000000
00000000
00000000
00000000
00000000
00000000
00000000
7C000000
447FFFFC
47800002
44000002
4400FFFC
44000400
44000400
4400F800
44000400
44000400
4401F800
47800800
44600800
441FF000
7C000000
00000000
00000000
00000000
00000000
00000000
00000000
00000000
00000000
ENDCHAR

STARTCHAR A2D2
ENCODING 41682
SWIDTH 960 0
DWIDTH 32 0
BBX 32 32 0 -8
BITMAP
00000000
00000000
00000000
00000000
00000000
000FE300
003FE300
00706300
00606300
00C06300
00C06300
00C06300
00C06300
00606300
00706300
003FE300
000FE300
00006300
00006300
00006300
00006300
00006300
00006300
00006300
00006300
00006300
00006300
00000000
00000000
00000000
00000000
00000000
ENDCHAR

STARTCHAR A2D3
ENCODING 41683
SWIDTH 960 0
DWIDTH 32 0
BBX 32 32 0 -8
BITMAP
00000000
00000000
00000000
00018000
00018000
00018000
00018000
00018000
00018000
00018000
00018000
007FFE00
007FFE00
00018000
00018000
00018000
00018000
00018000
00018000
00018000
00018000
00018000
00018000
00018000
00018000
00018000
00018000
00018000
00018000
00000000
00000000
00000000
ENDCHAR

STARTCHAR A2D4
ENCODING 41684
SWIDTH 960 0
DWIDTH 32 0
BBX 32 32 0 -8
BITMAP
00000000
00000000
00000000
00018000
00018000
00018000
00018000
00018000
00018000
007FFE00
007FFE00
00018000
00018000
00018000
00018000
007FFE00
007FFE00
00018000
00018000
00018000
00018000
00018000
00018000
00018000
00018000
00018000
00018000
00018000
00018000
00000000
00000000
00000000
ENDCHAR

STARTCHAR A2D5
ENCODING 41685
SWIDTH 960 0
DWIDTH 32 0
BBX 32 32 0 -8
BITMAP
00000000
00000000
00018000
0003C000
0007E000
000FF000
00018000
00018000
00018000
00018000
00018000
00018000
00018000
00018000
00018000
00018000
00018000
00018000
00018000
00018000
00018000
00018000
00018000
00018000
00018000
00018000
000FF000
0007E000
0003C000
00018000
00000000
00000000
ENDCHAR

STARTCHAR A2D6
ENCODING 41686
SWIDTH 960 0
DWIDTH 32 0
BBX 32 32 0 -8
BITMAP
00000000
00000000
00000000
00000000
00000000
000007E0
000007E0
000000E0
000001E0
00000360
00000660
00000C60
00001800
00003000
00006000
0000C000
00018000
00030000
00060000
000C0000
00180000
00300000
00600000
00C00000
01800000
03000000
06000000
00000000
00000000
00000000
00000000
00000000
ENDCHAR

STARTCHAR A2D7
ENCODING 41687
SWIDTH 960 0
DWIDTH 32 0
BBX 32 32 0 -8
BITMAP
00000000
00000000
00000000
00000000
00000000
00000060
000000C0
00000180
00000300
00000600
00000C00
00001800
00003000
00006000
0000C000
00018000
00030000
00060000
000C0000
00180000
06300000
06600000
06C00000
07800000
07000000
07E00000
07E00000
00000000
00000000
00000000
00000000
00000000
ENDCHAR

STARTCHAR A2D8
ENCODING 41688
SWIDTH 960 0
DWIDTH 32 0
BBX 32 32 0 -8
BITMAP
00000000
00000000
00000000
00000000
00000000
07E00000
07E00000
07000000
07800000
06C00000
06600000
06300000
00180000
000C0000
00060000
00030000
00018000
0000C000
00006000
00003000
00001800
00000C00
00000600
00000300
00000180
000000C0
00000060
00000000
00000000
00000000
00000000
00000000
ENDCHAR

STARTCHAR A2D9
ENCODING 41689
SWIDTH 960 0
DWIDTH 32 0
BBX 32 32 0 -8
BITMAP
00000000
00000000
00000000
00000000
00000000
06000000
03000000
01800000
00C00000
00600000
00300000
00180000
000C0000
00060000
00030000
00018000
0000C000
00006000
00003000
00001800
00000C60
00000660
00000360
000001E0
000000E0
000007E0
000007E0
00000000
00000000
00000000
00000000
00000000
ENDCHAR

STARTCHAR A2DA
ENCODING 41690
SWIDTH 960 0
DWIDTH 32 0
BBX 32 32 0 -8
BITMAP
00000000
00000000
00000000
00000000
00000000
000C0000
000C0000
000C0000
000C0000
000C0000
000C0000
000C0000
000C0000
000C0000
000C0000
000DE000
000E1800
000C0C00
000C0C00
000C0C00
000C0C00
000C1800
000C1800
000C3000
000CE000
000F8000
000E0000
00080000
00000000
00000000
00000000
00000000
ENDCHAR

STARTCHAR A2DB
ENCODING 41691
SWIDTH 960 0
DWIDTH 32 0
BBX 32 32 0 -8
BITMAP
00000000
00000000
00003000
00003000
00003000
00003000
00003000
00003000
00003000
00003000
00003000
00003000
00003000
00003000
00003000
00003000
00003000
00003000
00003000
00003000
00003000
00003000
0001F000
0007F000
000FE000
001FE000
001FC000
003F8000
001E0000
00000000
00000000
00000000
ENDCHAR

STARTCHAR A2DC
ENCODING 41692
SWIDTH 960 0
DWIDTH 32 0
BBX 32 32 0 -8
BITMAP
00000000
00000000
00030000
00030000
00030000
00038000
00038000
0003C000
00036000
00033000
00031800
00030C00
00030600
00030600
00030300
00030300
00030300
00030300
00030600
00030C00
00030000
00030000
000F0000
003F0000
007F0000
00FE0000
00FE0000
01FC0000
01F80000
01E00000
00000000
00000000
ENDCHAR

STARTCHAR A2DD
ENCODING 41693
SWIDTH 960 0
DWIDTH 32 0
BBX 32 32 0 -8
BITMAP
00000000
00000000
00000000
00000000
000FFFE0
000FFFE0
000C0060
000C0060
000C0060
000C0060
000FFFE0
000FFFE0
000C0060
000C0060
000C0060
000C0060
000C0060
000C0060
000C0060
000C0060
000C0060
000C0060
000C0060
007C03E0
01F80FE0
01F80FC0
03F81FC0
03F01F80
03C01C00
00000000
00000000
00000000
ENDCHAR

STARTCHAR A2DE
ENCODING 41694
SWIDTH 960 0
DWIDTH 32 0
BBX 32 32 0 -8
BITMAP
00000000
00000000
00000000
001FF800
007FFE00
01F00F80
03C003C0
070000E0
06000060
0E0C0870
0C0C1830
1C0C3000
180C6000
180CC000
180D8000
1FCFC3F8
1FCEC3F8
000C6018
000C6018
000C3018
000C3038
0C0C1830
0E0C1870
06000060
070000E0
03C003C0
01F00F80
007FFE00
001FF800
00000000
00000000
00000000
ENDCHAR

STARTCHAR A2DF
ENCODING 41695
SWIDTH 960 0
DWIDTH 32 0
BBX 32 32 0 -8
BITMAP
00000000
00000000
01000100
02000080
04000040
0C000060
08601820
183FFC30
18183830
18006030
30018018
3007E018
301C3E18
30E00618
30000018
30000018
32000718
31FFFF98
30E18018
30018018
30018018
18018018
18018030
18018030
08018030
0C018020
0C010060
04000040
02000080
01000100
00000000
00000000
ENDCHAR

STARTCHAR A2E0
ENCODING 41696
SWIDTH 960 0
DWIDTH 32 0
BBX 32 32 0 -8
BITMAP
00000000
00000000
381F0000
08040000
0C040000
0C040000
0E040000
0E040000
0B040000
0B040000
09840C00
09843300
08C46180
08C46180
08646180
08646180
08346180
08346180
081C6180
081C6180
080C6180
080C6180
08043318
3E040C18
00000000
00000000
00000000
00000000
00000000
00000000
00000000
00000000
ENDCHAR

STARTCHAR A2E1
ENCODING 41697
SWIDTH 960 0
DWIDTH 32 0
BBX 32 32 0 -8
BITMAP
00000000
00000000
01C20000
07360000
0C0E0000
18060000
18020000
30020000
30000000
30000000
30000C00
30003300
30006180
30006180
30006180
30006180
30006180
30006180
38006180
18026180
18046180
0C046180
06183318
01E00C18
00000000
00000000
00000000
00000000
00000000
00000000
00000000
00000000
ENDCHAR

STARTCHAR A2E2
ENCODING 41698
SWIDTH 960 0
DWIDTH 32 0
BBX 32 32 0 -8
BITMAP
00000000
00000000
7FEF001E
66630018
46230018
46238018
06038038
06028038
0602C038
0602C078
06024058
06026058
060260D8
06022098
06023098
06023198
06021118
06021918
06021B18
06020A18
06020E18
06020E18
06020418
1F8F847E
00000000
00000000
00000000
00000000
00000000
00000000
00000000
00000000
ENDCHAR

STARTCHAR A2E3
ENCODING 41699
SWIDTH 960 0
DWIDTH 32 0
BBX 32 32 0 -8
BITMAP
00000000
00000000
00000000
00000000
00000000
00000000
00000000
00000000
00000000
00000000
1F01BDC0
2183CE60
21818C60
01818C60
0F818C60
19818C60
31818C60
31818C60
31818C60
31818C60
31818C60
31818C60
19998C66
0EDBDEF6
00000000
00000000
00000000
00000000
00000000
00000000
00000000
00000000
ENDCHAR

STARTCHAR A2E4
ENCODING 41700
SWIDTH 960 0
DWIDTH 32 0
BBX 32 32 0 -8
BITMAP
00000000
00000000
00000000
00000000
00000000
00000000
00000000
00000000
00000000
00000000
7E037780
318F99C0
30C318C0
30C318C0
30C318C0
30C318C0
30C318C0
30C318C0
30C318C0
30C318C0
308318C0
318318C0
3E3318CC
3037BDEC
30000000
30000000
30000000
30000000
30000000
78000000
00000000
00000000
ENDCHAR

STARTCHAR A2E5
ENCODING 41701
SWIDTH 960 0
DWIDTH 32 0
BBX 32 32 0 -8
BITMAP
00000000
00000000
3FFF0030
30C30070
30C30030
20C10030
20C10030
00C00030
00C00030
00C00030
00C00030
00C00030
00C07030
00C18C30
00C30630
00C30630
00C30630
00C30630
00C3FE30
00C30030
00C30030
00C30630
00C18E30
03F0787C
00000000
00000000
00000000
00000000
00000000
00000000
00000000
00000000
ENDCHAR

STARTCHAR A3A1
ENCODING 41889
SWIDTH 960 0
DWIDTH 32 0
BBX 32 32 0 -8
BITMAP
00000000
00000000
00000000
00000000
00018000
00018000
0003C000
0003C000
0003C000
0003C000
0003C000
0003C000
0003C000
0003C000
0003C000
0003C000
00018000
00018000
00018000
00018000
00018000
00018000
00000000
00000000
00018000
0003C000
0003C000
00018000
00000000
00000000
00000000
00000000
ENDCHAR

STARTCHAR A3A2
ENCODING 41890
SWIDTH 960 0
DWIDTH 32 0
BBX 32 32 0 -8
BITMAP
00000000
00000000
000E3800
000E3800
000E3800
000C3000
000C3000
001C7000
00186000
00186000
00104000
0030C000
00208000
00000000
00000000
00000000
00000000
00000000
00000000
00000000
00000000
00000000
00000000
00000000
00000000
00000000
00000000
00000000
00000000
00000000
00000000
00000000
ENDCHAR

STARTCHAR A3A3
ENCODING 41891
SWIDTH 960 0
DWIDTH 32 0
BBX 32 32 0 -8
BITMAP
00000000
00000000
00000000
00300C00
00300C00
00300C00
00300C00
00300DE0
00303FE0
0033FFE0
007FFE00
07FFCC00
07FC0C00
07B00C00
00300C00
00300C00
00300DE0
00303FE0
0033FFE0
007FFE00
07FFCC00
07FC0C00
07B00C00
00300C00
00300C00
00300C00
00300C00
00300C00
00300C00
00000000
00000000
00000000
ENDCHAR

STARTCHAR A3A4
ENCODING 41892
SWIDTH 960 0
DWIDTH 32 0
BBX 32 32 0 -8
BITMAP
00000000
00000000
00022000
00022000
000FF100
003E3D00
00722700
00622300
00E22180
00E22080
00E22000
00722000
007E2000
003FA000
000FF800
0002FE00
00023F00
00022700
00022380
01022380
01022380
01822380
00C22300
00F22700
009E3E00
0087F800
00022000
00022000
00022000
00022000
00000000
00000000
ENDCHAR

STARTCHAR A3A5
ENCODING 41893
SWIDTH 960 0
DWIDTH 32 0
BBX 32 32 0 -8
BITMAP
00000000
00000000
00000000
00000000
00001800
00701000
01983000
030C3000
030C2000
060C6000
060C6000
060C4000
060CC000
0618C000
06188000
03318380
01E18CC0
00011860
00031860
00033060
00023060
00063060
00063060
000430C0
000C30C0
000C1980
00080E00
00180000
00000000
00000000
00000000
00000000
ENDCHAR

STARTCHAR A3A6
ENCODING 41894
SWIDTH 960 0
DWIDTH 32 0
BBX 32 32 0 -8
BITMAP
00000000
00000000
00000000
00000000
001E0000
00618000
00408000
00C0C000
00C0C000
00C0C000
00C1C000
00618000
00638000
00370000
001E0F80
003C0200
007E0200
00E70200
01C38400
0181C400
0380FC00
03007800
03003800
03003C00
03006700
0180C0E0
01C30000
007C0000
00000000
00000000
00000000
00000000
ENDCHAR

STARTCHAR A3A7
ENCODING 41895
SWIDTH 960 0
DWIDTH 32 0
BBX 32 32 0 -8
BITMAP
00000000
00000000
00000000
00000000
00038000
00038000
00038000
00030000
00030000
00030000
00030000
00060000
00060000
00060000
00060000
00000000
00000000
00000000
00000000
00000000
00000000
00000000
00000000
00000000
00000000
00000000
00000000
00000000
00000000
00000000
00000000
00000000
ENDCHAR

STARTCHAR A3A8
ENCODING 41896
SWIDTH 960 0
DWIDTH 32 0
BBX 32 32 0 -8
BITMAP
00000000
00000000
00000008
00000010
00000030
00000020
00000060
00000040
000000C0
000000C0
000000C0
00000180
00000180
00000180
00000180
00000180
00000180
00000180
00000180
00000180
00000180
000000C0
000000C0
000000C0
00000040
00000060
00000020
00000030
00000010
00000008
00000000
00000000
ENDCHAR

STARTCHAR A3A9
ENCODING 41897
SWIDTH 960 0
DWIDTH 32 0
BBX 32 32 0 -8
BITMAP
00000000
00000000
10000000
08000000
0C000000
04000000
06000000
02000000
03000000
03000000
03000000
01800000
01800000
01800000
01800000
01800000
01800000
01800000
01800000
01800000
01800000
03000000
03000000
03000000
02000000
06000000
04000000
0C000000
08000000
10000000
00000000
00000000
ENDCHAR

STARTCHAR A3AA
ENCODING 41898
SWIDTH 960 0
DWIDTH 32 0
BBX 32 32 0 -8
BITMAP
00000000
00000000
00000000
00000000
00000000
00000000
00000000
00000000
00000000
00018000
00118800
00399C00
001DB800
000FF000
0007E000
0003C000
0007E000
000FF000
001DB800
00399C00
00118800
00018000
00000000
00000000
00000000
00000000
00000000
00000000
00000000
00000000
00000000
00000000
ENDCHAR

STARTCHAR A3AB
ENCODING 41899
SWIDTH 960 0
DWIDTH 32 0
BBX 32 32 0 -8
BITMAP
00000000
00000000
00000000
00000000
00000000
00000000
00018000
00018000
00018000
00018000
00018000
00018000
00018000
00018000
00018000
03FFFFC0
03FFFFC0
00018000
00018000
00018000
00018000
00018000
00018000
00018000
00018000
00018000
00000000
00000000
00000000
00000000
00000000
00000000
ENDCHAR

STARTCHAR A3AC
ENCODING 41900
SWIDTH 960 0
DWIDTH 32 0
BBX 32 32 0 -8
BITMAP
00000000
00000000
00000000
00000000
00000000
00000000
00000000
00000000
00000000
00000000
00000000
00000000
00000000
00000000
00000000
00000000
00000000
00000000
00000000
00000000
00000000
00000000
00000000
0C000000
1E000000
1E000000
0E000000
02000000
02000000
04000000
18000000
00000000
ENDCHAR

STARTCHAR A3AD
ENCODING 41901
SWIDTH 960 0
DWIDTH 32 0
BBX 32 32 0 -8
BITMAP
00000000
00000000
00000000
00000000
00000000
00000000
00000000
00000000
00000000
00000000
00000000
00000000
00000000
00000000
00000000
03FFFFC0
03FFFFC0
00000000
00000000
00000000
00000000
00000000
00000000
00000000
00000000
00000000
00000000
00000000
00000000
00000000
00000000
00000000
ENDCHAR

STARTCHAR A3AE
ENCODING 41902
SWIDTH 960 0
DWIDTH 32 0
BBX 32 32 0 -8
BITMAP
00000000
00000000
00000000
00000000
00000000
00000000
00000000
00000000
00000000
00000000
00000000
00000000
00000000
00000000
00000000
00000000
00000000
00000000
00000000
00000000
00000000
00000000
00000000
0C000000
1E000000
1E000000
0C000000
00000000
00000000
00000000
00000000
00000000
ENDCHAR

STARTCHAR A3AF
ENCODING 41903
SWIDTH 960 0
DWIDTH 32 0
BBX 32 32 0 -8
BITMAP
00000000
00000000
00000000
00000000
00000030
00000030
000000F0
000000C0
000003C0
00000300
00000F00
00000C00
00003C00
00003000
0000F000
0000C000
0003C000
00030000
000F0000
000C0000
003C0000
00300000
00F00000
00C00000
03C00000
03000000
0F000000
0C000000
0C000000
00000000
00000000
00000000
ENDCHAR

STARTCHAR A3B0
ENCODING 41904
SWIDTH 960 0
DWIDTH 32 0
BBX 32 32 0 -8
BITMAP
00000000
00000000
00000000
00000000
0003C000
000C3000
00181800
00181800
00300C00
00300C00
00300C00
00600600
00600600
00600600
00600600
00600600
00600600
00600600
00600600
00600600
00700E00
00300C00
00300C00
00300C00
00181800
00181800
000C3000
0003C000
00000000
00000000
00000000
00000000
ENDCHAR

STARTCHAR A3B1
ENCODING 41905
SWIDTH 960 0
DWIDTH 32 0
BBX 32 32 0 -8
BITMAP
00000000
00000000
00000000
00000000
00018000
000F8000
00018000
00018000
00018000
00018000
00018000
00018000
00018000
00018000
00018000
00018000
00018000
00018000
00018000
00018000
00018000
00018000
00018000
00018000
00018000
00018000
00018000
000FF000
00000000
00000000
00000000
00000000
ENDCHAR

STARTCHAR A3B2
ENCODING 41906
SWIDTH 960 0
DWIDTH 32 0
BBX 32 32 0 -8
BITMAP
00000000
00000000
00000000
00000000
0007E000
001C3800
00381C00
00300C00
00700E00
00700600
00200600
00000E00
00000C00
00001C00
00003800
00007000
0000E000
00018000
00030000
00060000
000C0000
00180200
00100200
00300200
00200200
00200600
007FFE00
007FFE00
00000000
00000000
00000000
00000000
ENDCHAR

STARTCHAR A3B3
ENCODING 41907
SWIDTH 960 0
DWIDTH 32 0
BBX 32 32 0 -8
BITMAP
00000000
00000000
00000000
00000000
0007C000
001C7000
00381800
00301800
00700C00
00700C00
00200C00
00001800
00001800
00003000
0000E000
0007F000
00003800
00000C00
00000C00
00000600
00000600
00000600
00200600
00700E00
00700C00
00301C00
00383800
000FE000
00000000
00000000
00000000
00000000
ENDCHAR

STARTCHAR A3B4
ENCODING 41908
SWIDTH 960 0
DWIDTH 32 0
BBX 32 32 0 -8
BITMAP
00000000
00000000
00000000
00000000
00003000
00003000
00007000
00007000
0000F000
0001B000
0001B000
00033000
00023000
00063000
00043000
000C3000
00183000
00103000
00303000
00203000
00603000
00C03000
00FFFF00
00003000
00003000
00003000
00003000
0001FE00
00000000
00000000
00000000
00000000
ENDCHAR

STARTCHAR A3B5
ENCODING 41909
SWIDTH 960 0
DWIDTH 32 0
BBX 32 32 0 -8
BITMAP
00000000
00000000
00000000
00000000
007FFE00
007FFC00
00600000
00600000
00600000
00600000
00600000
00600000
00600000
0067C000
007C7000
00603800
00001800
00001C00
00000C00
00000C00
00000C00
00700C00
00700C00
00701C00
00301800
00383800
001CF000
0007C000
00000000
00000000
00000000
00000000
ENDCHAR

STARTCHAR A3B6
ENCODING 41910
SWIDTH 960 0
DWIDTH 32 0
BBX 32 32 0 -8
BITMAP
00000000
00000000
00000000
00000000
0003E000
000E3800
00181C00
00180C00
00300E00
00300E00
00300E00
00600000
00600000
00600000
0061E000
00663800
00681C00
00700C00
00700E00
00700600
00300600
00300600
00300600
00300E00
00180C00
00181C00
000E3800
0003E000
00000000
00000000
00000000
00000000
ENDCHAR

STARTCHAR A3B7
ENCODING 41911
SWIDTH 960 0
DWIDTH 32 0
BBX 32 32 0 -8
BITMAP
00000000
00000000
00000000
00000000
003FFF00
003FFF00
00300300
00300200
00200600
00200400
00200C00
00200800
00000800
00001800
00001000
00003000
00003000
00002000
00006000
00006000
00006000
0000C000
0000C000
0000C000
0001C000
0001C000
0001C000
00018000
00000000
00000000
00000000
00000000
ENDCHAR

STARTCHAR A3B8
ENCODING 41912
SWIDTH 960 0
DWIDTH 32 0
BBX 32 32 0 -8
BITMAP
00000000
00000000
00000000
00000000
0003C000
000E7000
00181800
00181800
00300C00
00300C00
00300C00
00301C00
00181800
001E3800
000FF000
0007E000
001CF000
00303800
00301C00
00600C00
00600E00
00600600
00600600
00600E00
00300C00
00301C00
001C3800
0007E000
00000000
00000000
00000000
00000000
ENDCHAR

STARTCHAR A3B9
ENCODING 41913
SWIDTH 960 0
DWIDTH 32 0
BBX 32 32 0 -8
BITMAP
00000000
00000000
00000000
00000000
0007C000
001C7000
00383800
00301C00
00700C00
00600E00
00600600
00600600
00600600
00700E00
00300E00
00381E00
001C7600
0007C600
00000600
00000600
00000E00
00000E00
00700C00
00701C00
00301C00
00383800
001C7000
0007C000
00000000
00000000
00000000
00000000
ENDCHAR

STARTCHAR A3BA
ENCODING 41914
SWIDTH 960 0
DWIDTH 32 0
BBX 32 32 0 -8
BITMAP
00000000
00000000
00000000
00000000
00000000
00000000
00018000
0003C000
0003C000
00018000
00000000
00000000
00000000
00000000
00000000
00000000
00000000
00000000
00000000
00000000
00000000
00000000
00018000
0003C000
0003C000
00018000
00000000
00000000
00000000
00000000
00000000
00000000
ENDCHAR

STARTCHAR A3BB
ENCODING 41915
SWIDTH 960 0
DWIDTH 32 0
BBX 32 32 0 -8
BITMAP
00000000
00000000
00000000
00000000
00000000
00000000
00018000
0003C000
0003C000
00018000
00000000
00000000
00000000
00000000
00000000
00000000
00000000
00000000
00000000
00000000
00000000
00000000
00018000
0003C000
0003C000
0001C000
00004000
00004000
00008000
00030000
00000000
00000000
ENDCHAR

STARTCHAR A3BC
ENCODING 41916
SWIDTH 960 0
DWIDTH 32 0
BBX 32 32 0 -8
BITMAP
00000000
00000000
00000000
00000000
00000000
00000000
00000000
00000000
00000000
000001C0
000007C0
00003F00
0000F800
0007E000
001F0000
00FC0000
03E00000
03E00000
00FC0000
001F0000
0007E000
0000F800
00003F00
000007C0
000001C0
00000000
00000000
00000000
00000000
00000000
00000000
00000000
ENDCHAR

STARTCHAR A3BD
ENCODING 41917
SWIDTH 960 0
DWIDTH 32 0
BBX 32 32 0 -8
BITMAP
00000000
00000000
00000000
00000000
00000000
00000000
00000000
00000000
00000000
00000000
00000000
03FFFFC0
03FFFFC0
00000000
00000000
00000000
00000000
00000000
00000000
03FFFFC0
03FFFFC0
00000000
00000000
00000000
00000000
00000000
00000000
00000000
00000000
00000000
00000000
00000000
ENDCHAR

STARTCHAR A3BE
ENCODING 41918
SWIDTH 960 0
DWIDTH 32 0
BBX 32 32 0 -8
BITMAP
00000000
00000000
00000000
00000000
00000000
00000000
00000000
00000000
00000000
03800000
03E00000
00FC0000
001F0000
0007E000
0000F800
00003F00
000007C0
000007C0
00003F00
0000F800
0007E000
001F0000
00FC0000
03E00000
03800000
00000000
00000000
00000000
00000000
00000000
00000000
00000000
ENDCHAR

STARTCHAR A3BF
ENCODING 41919
SWIDTH 960 0
DWIDTH 32 0
BBX 32 32 0 -8
BITMAP
00000000
00000000
00000000
000FC000
00387000
00703800
00601800
00E01C00
00E01C00
00E01C00
00001C00
00003800
00003800
00007000
0000E000
0001C000
00018000
00038000
00030000
00030000
00030000
00030000
00000000
00000000
00000000
00030000
00078000
00078000
00030000
00000000
00000000
00000000
ENDCHAR

STARTCHAR A3C0
ENCODING 41920
SWIDTH 960 0
DWIDTH 32 0
BBX 32 32 0 -8
BITMAP
00000000
00000000
00000000
00000000
000FFC00
00380700
00E00180
01C000C0
03800060
03000060
0603D830
060C3830
0C181830
0C181830
0C301830
0C301830
0C301830
0C301830
0C181860
0E181860
060C39C0
0603CF00
03000000
03800000
01C00000
00F00000
003C0380
0007FC00
00000000
00000000
00000000
00000000
ENDCHAR

STARTCHAR A3C1
ENCODING 41921
SWIDTH 960 0
DWIDTH 32 0
BBX 32 32 0 -8
BITMAP
00000000
00000000
00000000
00030000
00030000
00038000
00078000
0005C000
0005C000
000CC000
0008E000
0008E000
00186000
00107000
00107000
00303000
00203800
00203800
00601800
007FFC00
00401C00
00C00C00
00800E00
00800E00
01800600
01000700
01000700
0FE03FE0
00000000
00000000
00000000
00000000
ENDCHAR

STARTCHAR A3C2
ENCODING 41922
SWIDTH 960 0
DWIDTH 32 0
BBX 32 32 0 -8
BITMAP
00000000
00000000
00000000
00000000
03FFF800
00C00E00
00C00300
00C00380
00C00180
00C00180
00C00180
00C00300
00C00700
00C01E00
00FFFC00
00C01E00
00C00300
00C00180
00C00180
00C000C0
00C000C0
00C000C0
00C000C0
00C001C0
00C00180
00C00380
00C00F00
03FFFC00
00000000
00000000
00000000
00000000
ENDCHAR

STARTCHAR A3C3
ENCODING 41923
SWIDTH 960 0
DWIDTH 32 0
BBX 32 32 0 -8
BITMAP
00000000
00000000
00000000
00000000
000FF080
003C1C80
00700680
00E00380
00C001C0
01C000C0
01800040
01800000
03000000
03000000
03000000
03000000
03000000
03000000
03000000
03000000
03800040
018000C0
01800080
00C00180
00E00300
00700600
003C1C00
000FF000
00000000
00000000
00000000
00000000
ENDCHAR

STARTCHAR A3C4
ENCODING 41924
SWIDTH 960 0
DWIDTH 32 0
BBX 32 32 0 -8
BITMAP
00000000
00000000
00000000
00000000
07FFE000
01807800
01800E00
01800700
01800300
01800380
01800180
018001C0
018000C0
018000C0
018000C0
018000C0
018000C0
018000C0
018000C0
018000C0
018001C0
01800180
01800180
01800380
01800300
01800600
01803C00
07FFF000
00000000
00000000
00000000
00000000
ENDCHAR

STARTCHAR A3C5
ENCODING 41925
SWIDTH 960 0
DWIDTH 32 0
BBX 32 32 0 -8
BITMAP
00000000
00000000
00000000
00000000
03FFFF00
00C00700
00C00300
00C00300
00C00100
00C00100
00C00000
00C00000
00C01000
00C01000
00C03000
00FFF000
00C03000
00C01000
00C01000
00C00000
00C00000
00C00000
00C00100
00C00100
00C00300
00C00300
00C00700
03FFFF00
00000000
00000000
00000000
00000000
ENDCHAR

STARTCHAR A3C6
ENCODING 41926
SWIDTH 960 0
DWIDTH 32 0
BBX 32 32 0 -8
BITMAP
00000000
00000000
00000000
00000000
01FFFF80
00600380
00600180
00600180
00600080
00600080
00600080
00600000
00600000
00601000
00601000
007FF000
00601000
00601000
00600000
00600000
00600000
00600000
00600000
00600000
00600000
00600000
00600000
01FC0000
00000000
00000000
00000000
00000000
ENDCHAR

STARTCHAR A3C7
ENCODING 41927
SWIDTH 960 0
DWIDTH 32 0
BBX 32 32 0 -8
BITMAP
00000000
00000000
00000000
00000000
000FE100
00383900
00E00D00
01C00700
01800380
03800380
03000100
07000000
07000000
06000000
06000000
06000000
06001FE0
06000300
06000300
07000300
07000300
03000300
03800300
01800300
01C00300
00E00300
00380700
000FFC00
00000000
00000000
00000000
00000000
ENDCHAR

STARTCHAR A3C8
ENCODING 41928
SWIDTH 960 0
DWIDTH 32 0
BBX 32 32 0 -8
BITMAP
00000000
00000000
00000000
00000000
0FF01FE0
01800300
01800300
01800300
01800300
01800300
01800300
01800300
01800300
01800300
01800300
01FFFF00
01800300
01800300
01800300
01800300
01800300
01800300
01800300
01800300
01800300
01800300
01800300
0FF01FE0
00000000
00000000
00000000
00000000
ENDCHAR

STARTCHAR A3C9
ENCODING 41929
SWIDTH 960 0
DWIDTH 32 0
BBX 32 32 0 -8
BITMAP
00000000
00000000
00000000
00000000
000FF000
00018000
00018000
00018000
00018000
00018000
00018000
00018000
00018000
00018000
00018000
00018000
00018000
00018000
00018000
00018000
00018000
00018000
00018000
00018000
00018000
00018000
00018000
000FF000
00000000
00000000
00000000
00000000
ENDCHAR

STARTCHAR A3CA
ENCODING 41930
SWIDTH 960 0
DWIDTH 32 0
BBX 32 32 0 -8
BITMAP
00000000
00000000
00000000
00000000
0001FE00
00003000
00003000
00003000
00003000
00003000
00003000
00003000
00003000
00003000
00003000
00003000
00003000
00003000
00003000
00003000
00003000
00003000
00C03000
01E03000
01E03000
01C07000
00C06000
00C06000
0061C000
001F0000
00000000
00000000
ENDCHAR

STARTCHAR A3CB
ENCODING 41931
SWIDTH 960 0
DWIDTH 32 0
BBX 32 32 0 -8
BITMAP
00000000
00000000
00000000
00000000
0FF07F80
01800C00
01801800
01803000
01806000
0180C000
01818000
01830000
01860000
018C0000
019E0000
01B60000
01E30000
01C38000
0181C000
0180C000
0180E000
01807000
01803000
01803800
01801C00
01800C00
01800E00
0FF07FC0
00000000
00000000
00000000
00000000
ENDCHAR

STARTCHAR A3CC
ENCODING 41932
SWIDTH 960 0
DWIDTH 32 0
BBX 32 32 0 -8
BITMAP
00000000
00000000
00000000
00000000
03FC0000
00600000
00600000
00600000
00600000
00600000
00600000
00600000
00600000
00600000
00600000
00600000
00600000
00600000
00600000
00600000
00600000
00600020
00600020
00600060
00600060
006000C0
006003C0
03FFFFC0
00000000
00000000
00000000
00000000
ENDCHAR

STARTCHAR A3CD
ENCODING 41933
SWIDTH 960 0
DWIDTH 32 0
BBX 32 32 0 -8
BITMAP
00000000
00000000
00000000
00000000
1FC001F8
03C001C0
02C003C0
02E002C0
026002C0
026004C0
027004C0
023004C0
023008C0
023808C0
021808C0
021810C0
021C10C0
020C10C0
020C20C0
020E20C0
020620C0
020640C0
020740C0
0203C0C0
020380C0
020380C0
020180C0
1FC107F8
00000000
00000000
00000000
00000000
ENDCHAR

STARTCHAR A3CE
ENCODING 41934
SWIDTH 960 0
DWIDTH 32 0
BBX 32 32 0 -8
BITMAP
00000000
00000000
00000000
00000000
07C00FE0
00E00100
00F00100
00B00100
00B80100
00980100
009C0100
008E0100
00860100
00870100
00838100
0081C100
0081C100
0080E100
00807100
00807100
00803900
00801D00
00801D00
00800F00
00800700
00800300
00800300
07F00100
00000000
00000000
00000000
00000000
ENDCHAR

STARTCHAR A3CF
ENCODING 41935
SWIDTH 960 0
DWIDTH 32 0
BBX 32 32 0 -8
BITMAP
00000000
00000000
00000000
00000000
001FF000
00701C00
00C00600
01800300
01800300
03000180
03000180
070001C0
060000C0
060000C0
060000C0
060000C0
060000C0
060000C0
060000C0
060000C0
070001C0
03000180
03000180
01800300
01800300
00C00600
00701C00
001FF000
00000000
00000000
00000000
00000000
ENDCHAR

STARTCHAR A3D0
ENCODING 41936
SWIDTH 960 0
DWIDTH 32 0
BBX 32 32 0 -8
BITMAP
00000000
00000000
00000000
00000000
01FFFC00
00300F00
00300380
00300180
003001C0
003000C0
003000C0
003000C0
003000C0
003001C0
00300180
00300380
00300F00
003FFC00
00300000
00300000
00300000
00300000
00300000
00300000
00300000
00300000
00300000
01FE0000
00000000
00000000
00000000
00000000
ENDCHAR

STARTCHAR A3D1
ENCODING 41937
SWIDTH 960 0
DWIDTH 32 0
BBX 32 32 0 -8
BITMAP
00000000
00000000
00000000
00000000
003FE000
00E03800
01800C00
03000600
03000600
06000300
06000300
0E000380
0C000180
0C000180
0C000180
0C000180
0C000180
0C000180
0C000180
0C000180
0E0F0180
0630C300
06206300
03403200
03C03600
01C03C00
00F03800
003FF820
00001C60
00000FC0
00000780
00000000
ENDCHAR

STARTCHAR A3D2
ENCODING 41938
SWIDTH 960 0
DWIDTH 32 0
BBX 32 32 0 -8
BITMAP
00000000
00000000
00000000
00000000
07FFF000
00C01C00
00C00600
00C00600
00C00300
00C00300
00C00300
00C00300
00C00300
00C00600
00C00600
00C01C00
00FFF800
00C03000
00C03800
00C01800
00C01C00
00C00C00
00C00E00
00C00600
00C00700
00C00300
00C00380
07F801F0
00000000
00000000
00000000
00000000
ENDCHAR

STARTCHAR A3D3
ENCODING 41939
SWIDTH 960 0
DWIDTH 32 0
BBX 32 32 0 -8
BITMAP
00000000
00000000
00000000
00000000
001FE200
00783A00
00E00E00
00C00600
01800300
01800100
01C00000
00C00000
00F00000
007F0000
000FE000
0000F800
00003C00
00000E00
00000E00
02000700
02000700
03000700
03000600
01800E00
01C00C00
01601C00
01387800
010FE000
00000000
00000000
00000000
00000000
ENDCHAR

STARTCHAR A3D4
ENCODING 41940
SWIDTH 960 0
DWIDTH 32 0
BBX 32 32 0 -8
BITMAP
00000000
00000000
00000000
00000000
07FFFFE0
078181E0
06018060
06018060
04018020
04018020
04018020
00018000
00018000
00018000
00018000
00018000
00018000
00018000
00018000
00018000
00018000
00018000
00018000
00018000
00018000
00018000
00018000
001FF800
00000000
00000000
00000000
00000000
ENDCHAR

STARTCHAR A3D5
ENCODING 41941
SWIDTH 960 0
DWIDTH 32 0
BBX 32 32 0 -8
BITMAP
00000000
00000000
00000000
00000000
0FF00FF0
01800180
01800180
01800180
01800180
01800180
01800180
01800180
01800180
01800180
01800180
01800180
01800180
01800180
01800180
01800180
01800180
01800180
01800180
01C00380
00C00300
00E00700
00781E00
001FF800
00000000
00000000
00000000
00000000
ENDCHAR

STARTCHAR A3D6
ENCODING 41942
SWIDTH 960 0
DWIDTH 32 0
BBX 32 32 0 -8
BITMAP
00000000
00000000
00000000
00000000
0FFC1FE0
01C00100
01C00100
00C00200
00E00200
00600200
00600400
00700400
00300400
00300800
00380800
00180800
00181000
001C1000
000C1000
000C2000
000E2000
00062000
00074000
00074000
0003C000
00038000
00018000
00018000
00000000
00000000
00000000
00000000
ENDCHAR

STARTCHAR A3D7
ENCODING 41943
SWIDTH 960 0
DWIDTH 32 0
BBX 32 32 0 -8
BITMAP
00000000
00000000
00000000
00000000
3F87F0F8
0E01C020
0E01C020
0601C020
0603C020
0702E040
0702E040
03026040
03026040
03847080
03847080
01843080
01843080
01883100
01C83900
00C81900
00C81900
00F01E00
00F01E00
00F01E00
00700E00
00600C00
00600C00
00600C00
00000000
00000000
00000000
00000000
ENDCHAR

STARTCHAR A3D8
ENCODING 41944
SWIDTH 960 0
DWIDTH 32 0
BBX 32 32 0 -8
BITMAP
00000000
00000000
00000000
00000000
0FFC1FE0
00E00100
00600300
00700600
00380C00
00181800
001C1000
000E3000
00076000
0007C000
00038000
0003C000
0003C000
0006E000
00046000
000C7000
00183800
00301C00
00201C00
00600E00
00C00700
01800700
01000380
0FE03FF0
00000000
00000000
00000000
00000000
ENDCHAR

STARTCHAR A3D9
ENCODING 41945
SWIDTH 960 0
DWIDTH 32 0
BBX 32 32 0 -8
BITMAP
00000000
00000000
00000000
00000000
3FF007F8
070000C0
03800180
01C00100
01C00300
00E00200
00700400
00300C00
00380800
001C1000
000E3000
00072000
0007C000
0003C000
00018000
00018000
00018000
00018000
00018000
00018000
00018000
00018000
00018000
000FF000
00000000
00000000
00000000
00000000
ENDCHAR

STARTCHAR A3DA
ENCODING 41946
SWIDTH 960 0
DWIDTH 32 0
BBX 32 32 0 -8
BITMAP
00000000
00000000
00000000
00000000
01FFFF80
01C00380
01800700
01800700
01000E00
01001C00
01001800
00003800
00007000
00006000
0000E000
0001C000
00038000
00030000
00060000
000E0000
001C0000
00180080
00300080
00700080
00600180
00C00180
01C00380
01FFFF80
00000000
00000000
00000000
00000000
ENDCHAR

STARTCHAR A3DB
ENCODING 41947
SWIDTH 960 0
DWIDTH 32 0
BBX 32 32 0 -8
BITMAP
00000000
00000000
00000000
000003F8
00000300
00000300
00000300
00000300
00000300
00000300
00000300
00000300
00000300
00000300
00000300
00000300
00000300
00000300
00000300
00000300
00000300
00000300
00000300
00000300
00000300
00000300
00000300
00000300
000003F8
00000000
00000000
00000000
ENDCHAR

STARTCHAR A3DC
ENCODING 41948
SWIDTH 960 0
DWIDTH 32 0
BBX 32 32 0 -8
BITMAP
00000000
00000000
00000000
00000000
3F87F0F8
0E01C020
0E01C020
0601C020
0603C060
0702E040
0702E040
03026040
3FFFFFF8
03046080
03847080
01843080
3FFFFFF8
01883100
01883100
01C83900
00D81B00
00D01A00
00F01E00
00F00E00
00600E00
00600C00
00600C00
00600C00
00000000
00000000
00000000
00000000
ENDCHAR

STARTCHAR A3DD
ENCODING 41949
SWIDTH 960 0
DWIDTH 32 0
BBX 32 32 0 -8
BITMAP
00000000
00000000
00000000
1FC00000
00C00000
00C00000
00C00000
00C00000
00C00000
00C00000
00C00000
00C00000
00C00000
00C00000
00C00000
00C00000
00C00000
00C00000
00C00000
00C00000
00C00000
00C00000
00C00000
00C00000
00C00000
00C00000
00C00000
00C00000
1FC00000
00000000
00000000
00000000
ENDCHAR

STARTCHAR A3DE
ENCODING 41950
SWIDTH 960 0
DWIDTH 32 0
BBX 32 32 0 -8
BITMAP
00000000
00000000
00018000
0003C000
0007E000
000E7000
001C3800
00381C00
00700E00
00600600
00000000
00000000
00000000
00000000
00000000
00000000
00000000
00000000
00000000
00000000
00000000
00000000
00000000
00000000
00000000
00000000
00000000
00000000
00000000
00000000
00000000
00000000
ENDCHAR

STARTCHAR A3DF
ENCODING 41951
SWIDTH 960 0
DWIDTH 32 0
BBX 32 32 0 -8
BITMAP
00000000
00000000
00000000
00000000
00000000
00000000
00000000
00000000
00000000
00000000
00000000
00000000
00000000
00000000
00000000
00000000
00000000
00000000
00000000
00000000
00000000
00000000
00000000
00000000
00000000
00000000
00000000
00000000
00000000
7FFFFFFE
7FFFFFFE
00000000
ENDCHAR

STARTCHAR A3E0
ENCODING 41952
SWIDTH 960 0
DWIDTH 32 0
BBX 32 32 0 -8
BITMAP
00000000
00000000
1C000000
1E000000
1F000000
07000000
03800000
01800000
00800000
00800000
00000000
00000000
00000000
00000000
00000000
00000000
00000000
00000000
00000000
00000000
00000000
00000000
00000000
00000000
00000000
00000000
00000000
00000000
00000000
00000000
00000000
00000000
ENDCHAR

STARTCHAR A3E1
ENCODING 41953
SWIDTH 960 0
DWIDTH 32 0
BBX 32 32 0 -8
BITMAP
00000000
00000000
00000000
00000000
00000000
00000000
00000000
00000000
00000000
00000000
0007C000
00187000
00203000
00203800
00701800
00701800
00201800
00001800
000FD800
00387800
00703800
00601800
00E01800
00E01800
00E03880
00603880
00707980
001F9F00
00000000
00000000
00000000
00000000
ENDCHAR

STARTCHAR A3E2
ENCODING 41954
SWIDTH 960 0
DWIDTH 32 0
BBX 32 32 0 -8
BITMAP
00000000
00000000
00000000
00000000
00300000
00F00000
00300000
00300000
00300000
00300000
00300000
0031F000
00371C00
003C0E00
00380600
00380700
00300300
00300300
00300300
00300300
00300300
00300300
00300300
00300700
00380600
003C0E00
00371C00
0021F000
00000000
00000000
00000000
00000000
ENDCHAR

STARTCHAR A3E3
ENCODING 41955
SWIDTH 960 0
DWIDTH 32 0
BBX 32 32 0 -8
BITMAP
00000000
00000000
00000000
00000000
00000000
00000000
00000000
00000000
00000000
00000000
003F8000
00F0E000
01C03000
01801000
03801800
03801800
03000000
03000000
03000000
03000000
03000000
03000000
03801800
03801800
01801000
01C03000
00F0E000
003F8000
00000000
00000000
00000000
00000000
ENDCHAR

STARTCHAR A3E4
ENCODING 41956
SWIDTH 960 0
DWIDTH 32 0
BBX 32 32 0 -8
BITMAP
00000000
00000000
00000000
00000000
00000800
00007800
00001800
00001800
00001800
00001800
00001800
000F9800
00385800
00703800
00601800
00E01800
00E01800
00C01800
00C01800
00C01800
00C01800
00C01800
00C01800
00E01800
00601800
00701800
00383800
000FCE00
00000000
00000000
00000000
00000000
ENDCHAR

STARTCHAR A3E5
ENCODING 41957
SWIDTH 960 0
DWIDTH 32 0
BBX 32 32 0 -8
BITMAP
00000000
00000000
00000000
00000000
00000000
00000000
00000000
00000000
00000000
00000000
000FC000
00387000
00601800
00601800
00E00C00
00C00C00
00C00C00
00C00C00
00FFFC00
00C00000
00C00000
00C00000
00C00200
00E00600
00600400
00700C00
003C3800
000FE000
00000000
00000000
00000000
00000000
ENDCHAR

STARTCHAR A3E6
ENCODING 41958
SWIDTH 960 0
DWIDTH 32 0
BBX 32 32 0 -8
BITMAP
00000000
00000000
00000000
00000000
0001E000
00073800
00061C00
000E1C00
000C1C00
000C0000
000C0000
000C0000
000C0000
00FFE000
000C0000
000C0000
000C0000
000C0000
000C0000
000C0000
000C0000
000C0000
000C0000
000C0000
000C0000
000C0000
000C0000
007F8000
00000000
00000000
00000000
00000000
ENDCHAR

STARTCHAR A3E7
ENCODING 41959
SWIDTH 960 0
DWIDTH 32 0
BBX 32 32 0 -8
BITMAP
00000000
00000000
00000000
00000000
00000000
00000000
00000000
00000000
00000000
00000000
003FCE00
00707B00
00E03300
00C01800
00C01800
00E03800
00707000
003FE000
00600000
00C00000
00C00000
00600000
00FFC000
01DFF000
01803800
03800C00
03000C00
03000C00
01800800
01C03800
007FE000
00000000
ENDCHAR

STARTCHAR A3E8
ENCODING 41960
SWIDTH 960 0
DWIDTH 32 0
BBX 32 32 0 -8
BITMAP
00000000
00000000
00000000
00000000
00300000
00F00000
00300000
00300000
00300000
00300000
0031E000
00367800
00381800
00381C00
00300C00
00300C00
00300C00
00300C00
00300C00
00300C00
00300C00
00300C00
00300C00
00300C00
00300C00
00300C00
00300C00
00FC3F00
00000000
00000000
00000000
00000000
ENDCHAR

STARTCHAR A3E9
ENCODING 41961
SWIDTH 960 0
DWIDTH 32 0
BBX 32 32 0 -8
BITMAP
00000000
00000000
00000000
00000000
00018000
00018000
00018000
00000000
00000000
00000000
00000000
00018000
00018000
00078000
00018000
00018000
00018000
00018000
00018000
00018000
00018000
00018000
00018000
00018000
00018000
00018000
00018000
0007E000
00000000
00000000
00000000
00000000
ENDCHAR

STARTCHAR A3EA
ENCODING 41962
SWIDTH 960 0
DWIDTH 32 0
BBX 32 32 0 -8
BITMAP
00000000
00000000
00000000
00000000
0000C000
0000C000
0000C000
00000000
00000000
00000000
00000000
0000C000
0000C000
0007C000
0000C000
0000C000
0000C000
0000C000
0000C000
0000C000
0000C000
0000C000
0000C000
0000C000
0000C000
0000C000
00C0C000
00C18000
00418000
00730000
001E0000
00000000
ENDCHAR

STARTCHAR A3EB
ENCODING 41963
SWIDTH 960 0
DWIDTH 32 0
BBX 32 32 0 -8
BITMAP
00000000
00000000
00000000
00000000
00C00000
00C00000
03C00000
00C00000
00C00000
00C00000
00C0FF00
00C01800
00C03000
00C06000
00C0C000
00C18000
00C30000
00C78000
00CF8000
00D9C000
00F0E000
00E0E000
00C07000
00C03000
00C03800
00C01C00
00C01C00
03F07F80
00000000
00000000
00000000
00000000
ENDCHAR

STARTCHAR A3EC
ENCODING 41964
SWIDTH 960 0
DWIDTH 32 0
BBX 32 32 0 -8
BITMAP
00000000
00000000
00000000
00000000
00018000
00018000
000F8000
00018000
00018000
00018000
00018000
00018000
00018000
00018000
00018000
00018000
00018000
00018000
00018000
00018000
00018000
00018000
00018000
00018000
00018000
00018000
00018000
000FF000
00000000
00000000
00000000
00000000
ENDCHAR

STARTCHAR A3ED
ENCODING 41965
SWIDTH 960 0
DWIDTH 32 0
BBX 32 32 0 -8
BITMAP
00000000
00000000
00000000
00000000
00000000
00000000
00000000
00000000
00000000
00000000
3CFC1F80
0F8770E0
0E03C060
0E01C030
0C018030
0C018030
0C018030
0C018030
0C018030
0C018030
0C018030
0C018030
0C018030
0C018030
0C018030
0C018030
0C018030
3F07E0FC
00000000
00000000
00000000
00000000
ENDCHAR

STARTCHAR A3EE
ENCODING 41966
SWIDTH 960 0
DWIDTH 32 0
BBX 32 32 0 -8
BITMAP
00000000
00000000
00000000
00000000
00000000
00000000
00000000
00000000
00000000
00000000
00F1E000
0037F800
003C3C00
00380C00
00380E00
00300600
00300600
00300600
00300600
00300600
00300600
00300600
00300600
00300600
00300600
00300600
00300600
00FC1F80
00000000
00000000
00000000
00000000
ENDCHAR

STARTCHAR A3EF
ENCODING 41967
SWIDTH 960 0
DWIDTH 32 0
BBX 32 32 0 -8
BITMAP
00000000
00000000
00000000
00000000
00000000
00000000
00000000
00000000
00000000
00000000
000FE000
00383800
00701C00
00600C00
00600E00
00C00600
00C00600
00C00600
00C00600
00C00600
00C00600
00C00600
00C00600
00E00E00
00600C00
00701C00
00383800
000FE000
00000000
00000000
00000000
00000000
ENDCHAR

STARTCHAR A3F0
ENCODING 41968
SWIDTH 960 0
DWIDTH 32 0
BBX 32 32 0 -8
BITMAP
00000000
00000000
00000000
00000000
00000000
00000000
00000000
00000000
00000000
00000000
0037E000
003C7800
00F81C00
00300C00
00300E00
00300600
00300600
00300600
00300600
00300600
00300600
00300C00
00380C00
003C3800
0037E000
00300000
00300000
00300000
00300000
00300000
00FC0000
00000000
ENDCHAR

STARTCHAR A3F1
ENCODING 41969
SWIDTH 960 0
DWIDTH 32 0
BBX 32 32 0 -8
BITMAP
00000000
00000000
00000000
00000000
00000000
00000000
00000000
00000000
00000000
00000000
000FC200
003C3600
00700E00
00600E00
00E00600
00E00600
00C00600
00C00600
00C00600
00C00600
00E00600
00E00600
00600E00
00700E00
003C3600
000FC600
00000600
00000600
00000600
00000600
00001F80
00000000
ENDCHAR

STARTCHAR A3F2
ENCODING 41970
SWIDTH 960 0
DWIDTH 32 0
BBX 32 32 0 -8
BITMAP
00000000
00000000
00000000
00000000
00000000
00000000
00000000
00000000
00000000
00000000
00300000
0030F000
00F3B800
00363800
003C3800
00380000
00300000
00300000
00300000
00300000
00300000
00300000
00300000
00300000
00300000
00300000
00300000
00FE0000
00000000
00000000
00000000
00000000
ENDCHAR

STARTCHAR A3F3
ENCODING 41971
SWIDTH 960 0
DWIDTH 32 0
BBX 32 32 0 -8
BITMAP
00000000
00000000
00000000
00000000
00000000
00000000
00000000
00000000
00000000
00000000
0003E400
000C3400
00080C00
00180600
00180200
001C0000
000E0000
00078000
0001E000
00007000
00003800
00001C00
00200C00
00300E00
00180C00
001C0C00
00161800
0011E000
00000000
00000000
00000000
00000000
ENDCHAR

STARTCHAR A3F4
ENCODING 41972
SWIDTH 960 0
DWIDTH 32 0
BBX 32 32 0 -8
BITMAP
00000000
00000000
00000000
00000000
00000000
00000000
00040000
00040000
000C0000
000C0000
000C0000
00FFF000
000C0000
000C0000
000C0000
000C0000
000C0000
000C0000
000C0000
000C0000
000C0000
000C0000
000C0000
000C3000
000C3000
000E3000
00066000
0003C000
00000000
00000000
00000000
00000000
ENDCHAR

STARTCHAR A3F5
ENCODING 41973
SWIDTH 960 0
DWIDTH 32 0
BBX 32 32 0 -8
BITMAP
00000000
00000000
00000000
00000000
00000000
00000000
00000000
00000000
00000000
00000000
00C01800
00C01800
03C07800
00C01800
00C01800
00C01800
00C01800
00C01800
00C01800
00C01800
00C01800
00C01800
00C01800
00C01800
00E03800
00603800
00706800
001F8F00
00000000
00000000
00000000
00000000
ENDCHAR

STARTCHAR A3F6
ENCODING 41974
SWIDTH 960 0
DWIDTH 32 0
BBX 32 32 0 -8
BITMAP
00000000
00000000
00000000
00000000
00000000
00000000
00000000
00000000
00000000
00000000
01FE1F80
00300400
00300400
00300400
00180800
00180800
00180800
000C1000
000C1000
000C1000
00062000
00062000
00062000
00034000
00034000
0003C000
00018000
00018000
00000000
00000000
00000000
00000000
ENDCHAR

STARTCHAR A3F7
ENCODING 41975
SWIDTH 960 0
DWIDTH 32 0
BBX 32 32 0 -8
BITMAP
00000000
00000000
00000000
00000000
00000000
00000000
00000000
00000000
00000000
00000000
3F87F0F8
0E01C020
0E01C020
0603C020
0603E040
0702E040
07026040
03046080
03047080
03847080
01883100
01883100
01C83900
01D03A00
00F01E00
00E01C00
00E01C00
00E01C00
00000000
00000000
00000000
00000000
ENDCHAR

STARTCHAR A3F8
ENCODING 41976
SWIDTH 960 0
DWIDTH 32 0
BBX 32 32 0 -8
BITMAP
00000000
00000000
00000000
00000000
00000000
00000000
00000000
00000000
00000000
00000000
03FE0FE0
00700180
00380300
00180600
001C0C00
000E1800
00073000
0003E000
0003C000
0001C000
0003E000
00067000
000C3800
00181C00
00300E00
00600700
00C00780
03F01FE0
00000000
00000000
00000000
00000000
ENDCHAR

STARTCHAR A3F9
ENCODING 41977
SWIDTH 960 0
DWIDTH 32 0
BBX 32 32 0 -8
BITMAP
00000000
00000000
00000000
00000000
00000000
00000000
00000000
00000000
00000000
00000000
03FC1FC0
00600200
00700600
00300400
00300C00
00380800
00181800
001C1000
000C3000
000E2000
000E6000
00064000
0007C000
00038000
00038000
00010000
03030000
03820000
03860000
018C0000
00F80000
00000000
ENDCHAR

STARTCHAR A3FA
ENCODING 41978
SWIDTH 960 0
DWIDTH 32 0
BBX 32 32 0 -8
BITMAP
00000000
00000000
00000000
00000000
00000000
00000000
00000000
00000000
00000000
00000000
003FFF00
00300700
00300600
00200C00
00201C00
00201800
00003000
00007000
0000E000
0000C000
00018000
00038000
00070100
00060100
000C0100
00180300
00300300
003FFF00
00000000
00000000
00000000
00000000
ENDCHAR

STARTCHAR A3FB
ENCODING 41979
SWIDTH 960 0
DWIDTH 32 0
BBX 32 32 0 -8
BITMAP
00000000
00000000
00000000
00000038
000000C0
00000180
00000180
00000380
00000300
00000300
00000300
00000300
00000300
00000300
00000600
00001C00
00000600
00000300
00000300
00000300
00000300
00000300
00000300
00000300
00000380
00000180
00000180
000000C0
00000038
00000000
00000000
00000000
ENDCHAR

STARTCHAR A3FC
ENCODING 41980
SWIDTH 960 0
DWIDTH 32 0
BBX 32 32 0 -8
BITMAP
00000000
00000000
00018000
00018000
00018000
00018000
00018000
00018000
00018000
00018000
00018000
00018000
00018000
00018000
00018000
00018000
00018000
00018000
00018000
00018000
00018000
00018000
00018000
00018000
00018000
00018000
00018000
00018000
00018000
00018000
00000000
00000000
ENDCHAR

STARTCHAR A3FD
ENCODING 41981
SWIDTH 960 0
DWIDTH 32 0
BBX 32 32 0 -8
BITMAP
00000000
00000000
00000000
1C000000
03000000
01800000
01800000
00C00000
00C00000
00C00000
00C00000
00C00000
00C00000
00C00000
00600000
00380000
00600000
00C00000
00C00000
00C00000
00C00000
00C00000
00C00000
00C00000
00C00000
01800000
01800000
03000000
1C000000
00000000
00000000
00000000
ENDCHAR

STARTCHAR A3FE
ENCODING 41982
SWIDTH 960 0
DWIDTH 32 0
BBX 32 32 0 -8
BITMAP
00000000
7FFFFFFE
7FFFFFFE
00000000
00000000
00000000
00000000
00000000
00000000
00000000
00000000
00000000
00000000
00000000
00000000
00000000
00000000
00000000
00000000
00000000
00000000
00000000
00000000
00000000
00000000
00000000
00000000
00000000
00000000
00000000
00000000
00000000
ENDCHAR

STARTCHAR A4A1
ENCODING 42145
SWIDTH 960 0
DWIDTH 32 0
BBX 32 32 0 -8
BITMAP
00000000
00000000
00000000
00000000
00000000
00000000
00000000
01000300
00FFFF80
00300300
00000300
00000300
00000300
00000300
00000300
00000300
00000300
00000300
00000300
00000300
00000300
00000300
00000300
00000300
00000200
00000000
00000000
00000000
00000000
00000000
00000000
00000000
ENDCHAR

STARTCHAR A4A2
ENCODING 42146
SWIDTH 960 0
DWIDTH 32 0
BBX 32 32 0 -8
BITMAP
00000000
00000000
00000000
00000000
00000000
00000000
00000000
10030060
0FFFFFF0
03036060
00030060
00030060
00030060
00030060
00030060
00030060
00030060
00030060
00030060
00030060
00030060
00030060
00030060
00030060
00020040
00000000
00000000
00000000
00000000
00000000
00000000
00000000
ENDCHAR

STARTCHAR A4A3
ENCODING 42147
SWIDTH 960 0
DWIDTH 32 0
BBX 32 32 0 -8
BITMAP
00000000
00000000
00000000
00000000
00000000
00000000
00000000
10060E00
0FFF0380
03060300
00060300
00060300
00060700
00060600
00060600
00060600
00060D00
00060CC0
00061860
00061030
00063038
0006201C
0006401C
0006800C
00050000
00000000
00000000
00000000
00000000
00000000
00000000
00000000
ENDCHAR

STARTCHAR A4A4
ENCODING 42148
SWIDTH 960 0
DWIDTH 32 0
BBX 32 32 0 -8
BITMAP
00000000
00000000
00000000
00000000
00000000
00000000
00000000
07000000
01C00000
00E00000
00C00000
00C00000
00C00000
00C00000
00C00000
00C00000
00C00000
00C00000
00C00000
00C00000
00C00000
00C00000
00C00000
00E00780
007FFFC0
00000000
00000000
00000000
00000000
00000000
00000000
00000000
ENDCHAR

STARTCHAR A4A5
ENCODING 42149
SWIDTH 960 0
DWIDTH 32 0
BBX 32 32 0 -8
BITMAP
00000000
00000000
00000000
00000000
00000000
00000000
00000000
38010030
0E00FFF8
07003030
06000060
06000060
060000C0
060000C0
06000180
06000180
06000380
060006C0
06000660
06000C70
06001838
0601B038
060E601C
03F0C00C
00010000
00000000
00000000
00000000
00000000
00000000
00000000
00000000
ENDCHAR

STARTCHAR A4A6
ENCODING 42150
SWIDTH 960 0
DWIDTH 32 0
BBX 32 32 0 -8
BITMAP
00000000
00000000
00000000
00000000
00000000
00000000
00000000
38004000
0E003F80
07000000
06000000
06080018
0607FFFC
06018000
06000400
06000600
06001F00
060060C0
06004040
0600C060
0601C060
060EC060
07F860C0
03C07FC0
00001F00
00000000
00000000
00000000
00000000
00000000
00000000
00000000
ENDCHAR

STARTCHAR A4A7
ENCODING 42151
SWIDTH 960 0
DWIDTH 32 0
BBX 32 32 0 -8
BITMAP
00000000
00000000
00000000
00000000
00000000
00000000
00000000
03800E00
00FFFF00
00C00000
00C00000
00C00000
00C00000
00C00000
00C00000
00C00000
00C00000
00C00000
00C00000
00C00000
00C00000
00C00000
00C00000
00C00700
007FFF80
00000000
00000000
00000000
00000000
00000000
00000000
00000000
ENDCHAR

STARTCHAR A4A8
ENCODING 42152
SWIDTH 960 0
DWIDTH 32 0
BBX 32 32 0 -8
BITMAP
00000000
00000000
00000000
00000000
00000000
00000000
00000000
181981C0
0FFCFFE0
0C00C000
0C00C000
0C00C000
0C00C000
0C00C000
0C00C000
0C00C000
0C00C000
0C00C000
0C00C000
0C00C000
0C00C000
0C01C000
0C0EC0E0
0FF07FF0
07800000
00000000
00000000
00000000
00000000
00000000
00000000
00000000
ENDCHAR

STARTCHAR A4A9
ENCODING 42153
SWIDTH 960 0
DWIDTH 32 0
BBX 32 32 0 -8
BITMAP
00000000
00000000
00000000
00000000
00000000
00000000
00000000
02000600
01FFFF00
00600600
00000600
00000600
00000600
00000400
03800400
00FFFE00
00C00000
00C00000
00C00000
00C00000
00C00000
00C00000
00C00000
00E00300
007FFF80
00000000
00000000
00000000
00000000
00000000
00000000
00000000
ENDCHAR

STARTCHAR A4AA
ENCODING 42154
SWIDTH 960 0
DWIDTH 32 0
BBX 32 32 0 -8
BITMAP
00000000
00000000
00000000
00000000
00000000
00000000
00000000
10068030
0FFF7FF8
03061830
00060030
00060030
00060030
00060030
1C060030
07FF0030
06000030
06000030
06000030
06000030
06000030
06000030
0603C030
07FC0030
03C00020
00000000
00000000
00000000
00000000
00000000
00000000
00000000
ENDCHAR

STARTCHAR A4AB
ENCODING 42155
SWIDTH 960 0
DWIDTH 32 0
BBX 32 32 0 -8
BITMAP
00000000
00000000
00000000
00000000
00000000
00000000
00000000
10066030
0FFF3FF8
03063030
00063030
00063030
00063030
00063030
1C063030
07FF3030
06003030
06003030
06003030
06003030
06003030
06003030
0603B030
07FC3FF8
03C03000
00000000
00000000
00000000
00000000
00000000
00000000
00000000
ENDCHAR

STARTCHAR A4AC
ENCODING 42156
SWIDTH 960 0
DWIDTH 32 0
BBX 32 32 0 -8
BITMAP
00000000
00000000
00000000
00000000
00000000
00000000
00000000
100CC1C0
0FFE7070
030C3030
000C3030
000C3030
000C3030
000C3030
1C0C3030
07FE3FF0
06003030
06003030
06003030
06003030
06003030
06003030
06073030
07F83FF0
03C02020
00000000
00000000
00000000
00000000
00000000
00000000
00000000
ENDCHAR

STARTCHAR A4AD
ENCODING 42157
SWIDTH 960 0
DWIDTH 32 0
BBX 32 32 0 -8
BITMAP
00000000
00000000
00000000
00000000
00000000
00000000
00000000
10060600
0FFF0380
03060300
00060300
00060300
00060600
00060600
1C060600
07FF0C00
06000E00
06001B00
06001980
060030C0
060020E0
06006070
0606C030
07F98038
03C10018
00000000
00000000
00000000
00000000
00000000
00000000
00000000
ENDCHAR

STARTCHAR A4AE
ENCODING 42158
SWIDTH 960 0
DWIDTH 32 0
BBX 32 32 0 -8
BITMAP
00000000
00000000
00000000
00000000
00000000
00000000
00000000
200CC060
1FFE7FF0
060C6000
000C6000
000C6000
000C6000
000C6000
380C6060
0FFE7FF0
0C006000
0C006000
0C006000
0C006000
0C006000
0C006000
0C076000
0FF87030
07803FF8
00000000
00000000
00000000
00000000
00000000
00000000
00000000
ENDCHAR

STARTCHAR A4AF
ENCODING 42159
SWIDTH 960 0
DWIDTH 32 0
BBX 32 32 0 -8
BITMAP
00000000
00000000
00000000
00000000
00000000
00000000
00000000
20180060
1FFFFFF0
06193180
00183180
00183180
00183180
00183180
38183180
0FFC3180
0C003180
0C003180
0C003180
0C003180
0C003180
0C033180
0C0C31B0
0FF3FFF8
07818000
00000000
00000000
00000000
00000000
00000000
00000000
00000000
ENDCHAR

STARTCHAR A4B0
ENCODING 42160
SWIDTH 960 0
DWIDTH 32 0
BBX 32 32 0 -8
BITMAP
00000000
00000000
00000000
00000000
00000000
00000000
00000000
20182000
1FFC1FC0
06180000
00180000
001A0018
0019FFFC
00186000
38180000
0FFC0000
0C000F80
0C003060
0C002020
0C006030
0C006030
0C006030
0C062020
0FF83060
07C00F80
00000000
00000000
00000000
00000000
00000000
00000000
00000000
ENDCHAR

STARTCHAR A4B1
ENCODING 42161
SWIDTH 960 0
DWIDTH 32 0
BBX 32 32 0 -8
BITMAP
00000000
00000000
00000000
00000000
00000000
00000000
00000000
03800300
00FFFF80
00C00300
00C00300
00C00300
00C00300
00C00300
00C00300
00C00300
00C00300
00C00300
00C00300
00C00300
00C00300
00C00300
00FFFF80
00C00000
00800000
00000000
00000000
00000000
00000000
00000000
00000000
00000000
ENDCHAR

STARTCHAR A4B2
ENCODING 42162
SWIDTH 960 0
DWIDTH 32 0
BBX 32 32 0 -8
BITMAP
00000000
00000000
00000000
00000000
00000000
00000000
00000000
03001800
01C00E00
00C00600
00C00600
00C00600
00C00600
00C00600
00FFFE00
00C00600
00C00600
00C00600
00C00600
00C00600
00C00600
00C00600
00FFFE00
00C00600
00800400
00000000
00000000
00000000
00000000
00000000
00000000
00000000
ENDCHAR

STARTCHAR A4B3
ENCODING 42163
SWIDTH 960 0
DWIDTH 32 0
BBX 32 32 0 -8
BITMAP
00000000
00000000
00000000
00000000
00000000
00000000
00000000
00180180
0C0E60E0
07063060
03063060
03063060
03063060
03063060
03FE3FE0
03063060
03063060
03063060
03063060
03063060
03063060
03063060
03FE3FE0
03063060
02042040
00000000
00000000
00000000
00000000
00000000
00000000
00000000
ENDCHAR

STARTCHAR A4B4
ENCODING 42164
SWIDTH 960 0
DWIDTH 32 0
BBX 32 32 0 -8
BITMAP
00000000
00000000
00000000
00000000
00000000
00000000
00000000
00180C00
0C0E0700
07060600
03060600
03060600
03060C00
03060C00
03FE0C00
03060C00
03061A00
03061B00
03061100
03063180
030620C0
030660C0
03FE40E0
03068060
02050060
00000000
00000000
00000000
00000000
00000000
00000000
00000000
ENDCHAR

STARTCHAR A4B5
ENCODING 42165
SWIDTH 960 0
DWIDTH 32 0
BBX 32 32 0 -8
BITMAP
00000000
00000000
00000000
00000000
00000000
00000000
00000000
00030000
0001C000
00018000
00018000
00038000
00030000
00070000
00060000
000F0000
000F8000
001CC000
00187000
00303C00
00601E00
00C00F00
01800700
03000380
0C000180
00000000
00000000
00000000
00000000
00000000
00000000
00000000
ENDCHAR

STARTCHAR A4B6
ENCODING 42166
SWIDTH 960 0
DWIDTH 32 0
BBX 32 32 0 -8
BITMAP
00000000
00000000
00000000
00000000
00000000
00000000
00000000
00300C00
001C0700
00180600
00180600
00180600
00180E00
00300C00
00300C00
00381E00
006C1B00
00663900
00C63180
00C360C0
018360E0
0301C060
02018070
04010030
08020000
00000000
00000000
00000000
00000000
00000000
00000000
00000000
ENDCHAR

STARTCHAR A4B7
ENCODING 42167
SWIDTH 960 0
DWIDTH 32 0
BBX 32 32 0 -8
BITMAP
00000000
00000000
00000000
00000000
00000000
00000000
00030000
0001C000
00018000
00038000
000FF000
00381C00
00600600
00C00300
00C00300
01800180
01800180
01800180
01800180
01800180
01C00380
00C00300
00E00700
00781E00
003FFC00
000FF000
00000000
00000000
00000000
00000000
00000000
00000000
ENDCHAR

STARTCHAR A4B8
ENCODING 42168
SWIDTH 960 0
DWIDTH 32 0
BBX 32 32 0 -8
BITMAP
00000000
00000000
00000000
00000000
00000000
00000000
00000000
02000600
01FFFF00
00600E00
00001C00
00001C00
00003800
00007000
0000E000
0001C000
0003C000
00076000
000E3800
001C1C00
00380F00
00600780
00C00380
038001C0
060000C0
00000000
00000000
00000000
00000000
00000000
00000000
00000000
ENDCHAR

STARTCHAR A4B9
ENCODING 42169
SWIDTH 960 0
DWIDTH 32 0
BBX 32 32 0 -8
BITMAP
00000000
00000000
00000000
00000000
00000000
00000000
00000000
080600C0
07FFFFE0
0186C0C0
000600C0
000C0180
000C0180
00180300
00180300
00380700
00640D80
00660CC0
00C318C0
0183B060
0181F070
0301E030
0600C038
0C018018
10020018
00000000
00000000
00000000
00000000
00000000
00000000
00000000
ENDCHAR

STARTCHAR A4BA
ENCODING 42170
SWIDTH 960 0
DWIDTH 32 0
BBX 32 32 0 -8
BITMAP
00000000
00000000
00000000
00000000
00000000
00000000
00000000
00200000
001FF000
00000000
00000000
02000600
01FFFF00
00600E00
00001C00
00003800
00007000
0000E000
0001C000
00033000
00061800
000C0E00
00380780
006003C0
01C001C0
070000C0
00000000
00000000
00000000
00000000
00000000
00000000
ENDCHAR

STARTCHAR A4BB
ENCODING 42171
SWIDTH 960 0
DWIDTH 32 0
BBX 32 32 0 -8
BITMAP
00000000
00000000
00000000
00000000
00000000
00000000
00000000
02000180
01FFFFC0
00600180
00000180
00000180
00000180
00000180
01000180
00FFFF80
00300180
00000180
00000180
00000180
00000180
00000180
00000180
00000180
00000100
00000000
00000000
00000000
00000000
00000000
00000000
00000000
ENDCHAR

STARTCHAR A4BC
ENCODING 42172
SWIDTH 960 0
DWIDTH 32 0
BBX 32 32 0 -8
BITMAP
00000000
00000000
00000000
00000000
00000000
00000000
00000000
03800700
00FFFF80
00C00000
00C00000
00C00000
00C00000
00C00000
00C00E00
00FFFF00
00C00000
00C00000
00C00000
00C00000
00C00000
00C00000
00C00000
00E00380
007FFFC0
00000000
00000000
00000000
00000000
00000000
00000000
00000000
ENDCHAR

STARTCHAR A4BD
ENCODING 42173
SWIDTH 960 0
DWIDTH 32 0
BBX 32 32 0 -8
BITMAP
00000000
00000000
00000000
00000000
00000000
00000000
00000000
020000C0
01FFFFE0
00600000
00001000
00000C00
00200700
00100600
00180600
00180400
000C0C00
000C0800
000C0800
000C1000
000C1000
00042000
08000070
07FFFFF8
01800000
00000000
00000000
00000000
00000000
00000000
00000000
00000000
ENDCHAR

STARTCHAR A4BE
ENCODING 42174
SWIDTH 960 0
DWIDTH 32 0
BBX 32 32 0 -8
BITMAP
00000000
00000000
00000000
00000000
00000000
00200000
001FF800
00000000
00000000
100000E0
0FFFFFF0
03000000
00000000
00030000
00018000
000FF000
00300C00
00600600
00400200
00C00300
00C00300
00C00300
00C00300
00600600
00700E00
003FFC00
000FF000
00000000
00000000
00000000
00000000
00000000
ENDCHAR

STARTCHAR A4BF
ENCODING 42175
SWIDTH 960 0
DWIDTH 32 0
BBX 32 32 0 -8
BITMAP
00000000
00000000
001C0000
00070000
00038000
00030000
00030000
00030000
00030000
00030000
00030000
00030000
00030000
00031C00
0003FE00
00030000
00030000
00030000
00030000
00030000
00030000
00030000
00030000
00030000
00030000
00030000
00030000
00030000
00020000
00020000
00000000
00000000
ENDCHAR

STARTCHAR A4C0
ENCODING 42176
SWIDTH 960 0
DWIDTH 32 0
BBX 32 32 0 -8
BITMAP
00000000
00000000
0000E000
00003800
00301C00
001C1800
000E1800
000C1800
000C1800
000C1800
000C1800
000C1800
000C1800
000C1800
000FF800
000C1800
000C1800
000C1800
000C1800
000C1800
000C1800
000C1800
000C1800
000C1800
000C1800
000C1800
000C1800
00081800
00081000
00001000
00000000
00000000
ENDCHAR

STARTCHAR A4C1
ENCODING 42177
SWIDTH 960 0
DWIDTH 32 0
BBX 32 32 0 -8
BITMAP
00000000
00000000
001C0000
00070000
00038000
00030000
00030000
00030000
00030000
00030000
00031C00
0003FE00
00030000
00030000
00030000
00030000
00030000
00031C00
0003FE00
00030000
00030000
00030000
00030000
00030000
00030000
00030000
00030000
00030000
00020000
00020000
00000000
00000000
ENDCHAR

STARTCHAR A4C2
ENCODING 42178
SWIDTH 960 0
DWIDTH 32 0
BBX 32 32 0 -8
BITMAP
00000000
00000000
0000E000
00003800
00301C00
001C1800
000E1800
000C1800
000C1800
000C1800
000C1800
000C1800
000FF800
000C1800
000C1800
000C1800
000C1800
000C1800
000FF800
000C1800
000C1800
000C1800
000C1800
000C1800
000C1800
000C1800
000C1800
00081800
00081000
00001000
00000000
00000000
ENDCHAR

STARTCHAR A4C3
ENCODING 42179
SWIDTH 960 0
DWIDTH 32 0
BBX 32 32 0 -8
BITMAP
00000000
00000000
0001C000
00007000
00003800
00003000
00003000
00003000
00003000
00003000
00003000
00003000
00003000
00003000
001FF000
000E3000
00003000
00003000
00003000
00003000
00003000
00003000
00003000
00003000
00003000
00003000
00003000
00003000
00002000
00002000
00000000
00000000
ENDCHAR

STARTCHAR A4C4
ENCODING 42180
SWIDTH 960 0
DWIDTH 32 0
BBX 32 32 0 -8
BITMAP
00000000
00000000
00003800
00000E00
000E0700
00038600
0001C600
00018600
00018600
00018600
00018600
00018600
00018600
00018600
00FF8600
00718600
00018600
00018600
00018600
00018600
00018600
00018600
00018600
00018600
00018600
00018600
00010600
00010600
00000400
00000400
00000000
00000000
ENDCHAR

STARTCHAR A4C5
ENCODING 42181
SWIDTH 960 0
DWIDTH 32 0
BBX 32 32 0 -8
BITMAP
00000000
00000000
0001C000
00007000
00003800
00003000
00003000
00003000
00003000
00003000
00003000
001FF000
000C3000
00003000
00003000
00003000
00003000
00003000
001FF000
000C3000
00003000
00003000
00003000
00003000
00003000
00003000
00003000
00003000
00002000
00002000
00000000
00000000
ENDCHAR

STARTCHAR A4C6
ENCODING 42182
SWIDTH 960 0
DWIDTH 32 0
BBX 32 32 0 -8
BITMAP
00000000
00000000
00003800
00000E00
000E0700
00038600
0001C600
00018600
00018600
00018600
00018600
00018600
00FF8600
00618600
00018600
00018600
00018600
00018600
00FF8600
00618600
00018600
00018600
00018600
00018600
00018600
00018600
00010600
00010600
00000400
00000400
00000000
00000000
ENDCHAR

STARTCHAR A4C7
ENCODING 42183
SWIDTH 960 0
DWIDTH 32 0
BBX 32 32 0 -8
BITMAP
00000000
00000000
00000000
00000000
00000000
00000000
000E0000
00038000
0001C000
00018000
00018000
00018000
00018000
00018000
00018000
00018000
00018000
00018000
00018000
20018038
1FFFFFFC
07000000
00000000
00000000
00000000
00000000
00000000
00000000
00000000
00000000
00000000
00000000
ENDCHAR

STARTCHAR A4C8
ENCODING 42184
SWIDTH 960 0
DWIDTH 32 0
BBX 32 32 0 -8
BITMAP
00000000
00000000
00001C00
00000700
00000380
00000300
00000300
00000300
00000300
00780300
001E0300
000C0300
000C0300
000C0300
000C031C
000C03FE
000C0300
000C1F00
000DF300
007F0300
1FF00300
0F000300
00000300
00000300
00000300
00000300
00000300
00000300
00000200
00000200
00000000
00000000
ENDCHAR

STARTCHAR A4C9
ENCODING 42185
SWIDTH 960 0
DWIDTH 32 0
BBX 32 32 0 -8
BITMAP
00000000
00000000
00000380
000000E0
0001C070
00007060
00003860
00003060
00003060
00003060
00003060
01803060
00F03060
00603060
00603FE0
00603060
00603060
00603060
0060F060
006F3060
1FF03060
0F003060
00003060
00003060
00003060
00003060
00003060
00002060
00002040
00000040
00000000
00000000
ENDCHAR

STARTCHAR A4CA
ENCODING 42186
SWIDTH 960 0
DWIDTH 32 0
BBX 32 32 0 -8
BITMAP
00000000
00000000
00001C00
00000700
00000380
00000300
00000300
00000300
00000300
00E00300
00380300
001C0300
00180300
00180300
00180300
00180300
00180300
00180F00
0018F300
001F8300
1FF80300
0F800300
08000300
00000300
00000300
00000300
00000300
00000300
00000200
00000200
00000000
00000000
ENDCHAR

STARTCHAR A4CB
ENCODING 42187
SWIDTH 960 0
DWIDTH 32 0
BBX 32 32 0 -8
BITMAP
00000000
00000000
00000000
00000000
00000000
00000000
00000000
00006000
00003800
00301C00
001C1800
000E1800
000C1800
000C1800
000C1800
000C1800
000C1800
000C1800
000C1800
200C1838
1FFFFFFC
07000000
00000000
00000000
00000000
00000000
00000000
00000000
00000000
00000000
00000000
00000000
ENDCHAR

STARTCHAR A4CC
ENCODING 42188
SWIDTH 960 0
DWIDTH 32 0
BBX 32 32 0 -8
BITMAP
00000000
00000000
00000000
00000000
00000000
00000000
00000000
20000038
1FFFFFFC
07018000
00018000
00018000
00018000
00018000
00018000
00018000
00018000
00018000
00018000
00018000
00018000
00018000
00018000
00010000
00010000
00000000
00000000
00000000
00000000
00000000
00000000
00000000
ENDCHAR

STARTCHAR A4CD
ENCODING 42189
SWIDTH 960 0
DWIDTH 32 0
BBX 32 32 0 -8
BITMAP
00000000
00000000
00000700
000001C0
000000E0
000000C0
000000C0
000000C0
000000C0
000000C0
000000C0
000000C0
000000C0
000007C0
0001F8C0
1FFF00C0
0FEC00C0
040C00C0
000C80C0
000C7FC0
000C18C0
000C00C0
000C00C0
000C00C0
000C00C0
000C00C0
000C00C0
000800C0
00080080
00000080
00000000
00000000
ENDCHAR

STARTCHAR A4CE
ENCODING 42190
SWIDTH 960 0
DWIDTH 32 0
BBX 32 32 0 -8
BITMAP
00000000
00000000
000001C0
00000070
00007038
00001C30
00000E30
00000C30
00000C30
00000C30
00000C30
00000C30
00000C30
00007C30
00078C30
1FF80C30
0FB00C30
04300C30
00340C30
0033FC30
0030CC30
00300C30
00300C30
00300C30
00300C30
00300C30
00300C30
00200830
00200820
00000020
00000000
00000000
ENDCHAR

STARTCHAR A4CF
ENCODING 42191
SWIDTH 960 0
DWIDTH 32 0
BBX 32 32 0 -8
BITMAP
00000000
00000000
00000700
000001C0
000000E0
000000C0
000000C0
000000C0
000000C0
000000C0
000000C0
000000C0
000000C0
000007C0
0001F8C0
1FFF00C0
0FF600C0
040600C0
000600C0
000600C0
000600C0
000600C0
000600C0
000600C0
000600C0
000600C0
000600C0
000400C0
00040080
00000080
00000000
00000000
ENDCHAR

STARTCHAR A4D0
ENCODING 42192
SWIDTH 960 0
DWIDTH 32 0
BBX 32 32 0 -8
BITMAP
00000000
00000000
00000000
00000000
00000000
00000000
00000000
00000000
20000038
1FFFFFFC
070C1800
000C1800
000C1800
000C1800
000C1800
000C1800
000C1800
000C1800
000C1800
000C1800
000C1800
000C1800
000C1800
000C1800
00081800
00081000
00001000
00000000
00000000
00000000
00000000
00000000
ENDCHAR

STARTCHAR A4D1
ENCODING 42193
SWIDTH 960 0
DWIDTH 32 0
BBX 32 32 0 -8
BITMAP
00000000
00000000
00000000
00000000
00000000
00000000
00000000
00000000
00000000
00000000
00000000
00000000
00000000
00000000
00000000
20000038
1FFFFFFC
07000000
00000000
00000000
00000000
00000000
00000000
00000000
00000000
00000000
00000000
00000000
00000000
00000000
00000000
00000000
ENDCHAR

STARTCHAR A4D2
ENCODING 42194
SWIDTH 960 0
DWIDTH 32 0
BBX 32 32 0 -8
BITMAP
00000000
00000000
00000E00
00000380
000001C0
00000180
00000180
00000180
00000180
00000180
00000180
00000180
00000180
00000180
00000180
00000F80
0001F180
1FFF0180
0FE00180
04000180
00000180
00000180
00000180
00000180
00000180
00000180
00000180
00000180
00000100
00000100
00000000
00000000
ENDCHAR

STARTCHAR A4D3
ENCODING 42195
SWIDTH 960 0
DWIDTH 32 0
BBX 32 32 0 -8
BITMAP
00000000
00000000
00070000
0001C000
0000E000
0000C000
0000C000
0000C000
0000C000
0000C000
0000C000
0000C000
0000C000
0000C000
0000C000
0000C000
0000C000
0000C000
0000C000
0000C000
0000C000
0000C000
0000C000
0000C000
0000C000
0000C000
0000C000
0000C000
00008000
00008000
00000000
00000000
ENDCHAR

STARTCHAR A4D4
ENCODING 42196
SWIDTH 960 0
DWIDTH 32 0
BBX 32 32 0 -8
BITMAP
00000000
00000000
00000000
00000000
00000000
00000000
00000000
00000000
00000000
00000000
00000000
00000000
00000000
00000000
00000000
00000000
00000000
00000000
00000000
00000000
00000000
00000000
00000000
00000000
00000000
00000000
00000000
00000000
00000000
00000000
00000000
00000000
ENDCHAR

STARTCHAR A4D5
ENCODING 42197
SWIDTH 960 0
DWIDTH 32 0
BBX 32 32 0 -8
BITMAP
00000000
00000000
00000000
00000000
00000000
00000000
00000000
30030000
1C01C000
0E00E000
0C00C000
0C00C000
0C00C000
0C00C000
0C00C000
0C00C000
0C00C000
0C00C000
0C00C000
0C00C000
0C00C000
0C01C000
0C1EC000
0FF0E038
07007FFC
00000000
00000000
00000000
00000000
00000000
00000000
00000000
ENDCHAR

STARTCHAR A4D6
ENCODING 42198
SWIDTH 960 0
DWIDTH 32 0
BBX 32 32 0 -8
BITMAP
00000000
00000000
00000000
00000000
00000000
00000000
00000000
1C01C070
07007FF8
06006000
06006000
06006000
06006000
06006000
06006000
06006000
06006000
06006000
06006000
06006000
06006000
0600E000
07077038
07F83FFC
03800000
00000000
00000000
00000000
00000000
00000000
00000000
00000000
ENDCHAR

STARTCHAR A4D7
ENCODING 42199
SWIDTH 960 0
DWIDTH 32 0
BBX 32 32 0 -8
BITMAP
00000000
00000000
00000000
00000000
00000000
00000000
00000000
1C001C00
07000700
06000600
06000600
06000600
06000600
06000600
06000E00
06000E00
06000D00
06001880
060018C0
06003060
06003070
06036030
060CC038
07F18018
03820000
00000000
00000000
00000000
00000000
00000000
00000000
00000000
ENDCHAR

STARTCHAR A4D8
ENCODING 42200
SWIDTH 960 0
DWIDTH 32 0
BBX 32 32 0 -8
BITMAP
00000000
00000000
00000000
00000000
00000000
00000000
00000000
30000200
1C000200
0E000700
0C000700
0C000D80
0C000D80
0C0018C0
0C0018C0
0C003060
0C003060
0C006030
0C006030
0C00C018
0C00C018
0C01800C
0C0F800C
0FF3FFFE
0783FFFE
00000000
00000000
00000000
00000000
00000000
00000000
00000000
ENDCHAR

STARTCHAR A4D9
ENCODING 42201
SWIDTH 960 0
DWIDTH 32 0
BBX 32 32 0 -8
BITMAP
00000000
00000000
00000000
00000000
00000000
00000000
00000000
40C0C700
3FFFE1C0
18D8C180
00C0C180
00C0C180
00C0C180
00C0C180
70C0C180
1FC0C180
1800C180
1800C340
1800C360
1800C230
1800C638
1808C418
1870C81C
1FC0D00C
0E00A000
00000000
00000000
00000000
00000000
00000000
00000000
00000000
ENDCHAR

STARTCHAR A4DA
ENCODING 42202
SWIDTH 960 0
DWIDTH 32 0
BBX 32 32 0 -8
BITMAP
00000000
00000000
00000000
00000000
00000000
00000000
00000000
200CE030
1FFE3FF8
060C3000
000C3000
000C3000
000C3000
000C3000
380C3000
0FFC3000
0C003000
0C003000
0C003000
0C003000
0C003000
0C003000
0C07B000
0FFC3030
07C01FF8
00000000
00000000
00000000
00000000
00000000
00000000
00000000
ENDCHAR

STARTCHAR A4DB
ENCODING 42203
SWIDTH 960 0
DWIDTH 32 0
BBX 32 32 0 -8
BITMAP
00000000
00000000
00000000
00000000
00000000
00000000
00000000
40D861C0
3FEC3070
18CC3060
00CC3060
00CC3060
00CC3060
00CC3060
00CC3060
7FCFF0E0
180C30F0
180C30D0
180C3198
180C318C
180C310C
180C330E
186C3206
1F8FF406
0E082800
00000000
00000000
00000000
00000000
00000000
00000000
00000000
ENDCHAR

STARTCHAR A4DC
ENCODING 42204
SWIDTH 960 0
DWIDTH 32 0
BBX 32 32 0 -8
BITMAP
00000000
00000000
00000000
00000000
00000000
00000000
00000000
20180600
1FFC0600
0C180F00
00180F00
00181980
00181980
00181980
001830C0
3FF830C0
180030C0
18006060
18006060
18006060
1800C030
1800C030
180EC030
1FF1FFF8
0F01FFF8
00000000
00000000
00000000
00000000
00000000
00000000
00000000
ENDCHAR

STARTCHAR A4DD
ENCODING 42205
SWIDTH 960 0
DWIDTH 32 0
BBX 32 32 0 -8
BITMAP
00000000
00000000
00000000
00000000
00000000
00000000
00000000
201A0018
1FFDFFFC
0C188000
00180400
00180200
00180700
001818C0
30183060
1FFC2020
18006030
18006030
18006030
18006030
18006030
18003060
180E38E0
1FF01FC0
0F000700
00000000
00000000
00000000
00000000
00000000
00000000
00000000
ENDCHAR

STARTCHAR A4DE
ENCODING 42206
SWIDTH 960 0
DWIDTH 32 0
BBX 32 32 0 -8
BITMAP
00000000
00000000
00000000
00000000
00000000
00000000
00000000
180C6060
0FFE3030
060C3030
060C3030
060C3030
060C3030
060C3030
060C3FF0
060C3030
060C3030
060C3030
060C3030
060C3030
060C3030
060C3030
07FE3FF0
060C3030
04002020
00000000
00000000
00000000
00000000
00000000
00000000
00000000
ENDCHAR

STARTCHAR A4DF
ENCODING 42207
SWIDTH 960 0
DWIDTH 32 0
BBX 32 32 0 -8
BITMAP
00000000
00000000
00000000
00000000
00000000
00000000
00000000
300C0C00
1FFE0700
0C0C0380
0C0C0300
0C0C0300
0C0C0300
0C0C0600
0C0C0600
0C0C0600
0C0C0F00
0C0C0D80
0C0C18C0
0C0C1060
0C0C3070
0C0C2030
0FFE4038
0C0C8018
08090000
00000000
00000000
00000000
00000000
00000000
00000000
00000000
ENDCHAR

STARTCHAR A4E0
ENCODING 42208
SWIDTH 960 0
DWIDTH 32 0
BBX 32 32 0 -8
BITMAP
00000000
00000000
00000000
00000000
00000000
00000000
00000000
300C0300
1FFE0300
0C0C0780
0C0C0480
0C0C0CC0
0C0C0CC0
0C0C0840
0C0C1860
0C0C1860
0C0C1020
0C0C3030
0C0C3030
0C0C2010
0C0C6018
0C0C6018
0C0C4008
0FFEC00C
0C0CFFFC
08000000
00000000
00000000
00000000
00000000
00000000
00000000
ENDCHAR

STARTCHAR A4E1
ENCODING 42209
SWIDTH 960 0
DWIDTH 32 0
BBX 32 32 0 -8
BITMAP
00000000
00000000
00000000
00000000
00000000
00C00300
007FFF80
00600300
00600300
00600300
00600300
00600300
00600300
007FFF80
00600000
00418000
0000C000
00008000
0007F000
00180C00
00300600
00200200
00600300
00600300
00600300
00300600
00380E00
001FFC00
0007F000
00000000
00000000
00000000
ENDCHAR

STARTCHAR A4E2
ENCODING 42210
SWIDTH 960 0
DWIDTH 32 0
BBX 32 32 0 -8
BITMAP
00000000
00000000
00000000
00000000
00000000
00000000
00000000
18188030
0E0E7FF8
06063030
06060030
06060030
06060030
06060030
06060030
07FE0030
06060030
06060030
06060030
06060030
06060030
06060030
07FE0030
06060030
04040020
00000000
00000000
00000000
00000000
00000000
00000000
00000000
ENDCHAR

STARTCHAR A4E3
ENCODING 42211
SWIDTH 960 0
DWIDTH 32 0
BBX 32 32 0 -8
BITMAP
00000000
00000000
00000000
00000000
00000000
00000000
00000000
3018C060
1C0E7FF0
0C063000
0C063000
0C063000
0C063000
0C063000
0FFE3000
0C063000
0C063000
0C063000
0C063000
0C063000
0C063000
0C063000
0FFE3030
0C061FF8
08040000
00000000
00000000
00000000
00000000
00000000
00000000
00000000
ENDCHAR

STARTCHAR A4E4
ENCODING 42212
SWIDTH 960 0
DWIDTH 32 0
BBX 32 32 0 -8
BITMAP
00000000
00000000
00000000
00000000
00000000
00000000
00000000
30C1C818
1C70F7FC
0C306318
0C306018
0C306018
0C306018
0C306018
0FF06018
0C306018
0C30D018
0C30D818
0C309818
0C318C18
0C310C18
0C330E18
0FF20618
0C340610
08280010
00000000
00000000
00000000
00000000
00000000
00000000
00000000
ENDCHAR

STARTCHAR A4E5
ENCODING 42213
SWIDTH 960 0
DWIDTH 32 0
BBX 32 32 0 -8
BITMAP
00000000
00000000
00000000
00000000
00000000
00000000
00000000
61830618
30C1C3FC
30C18300
30C18300
30C18300
30C18300
30C18300
3FC18300
30C38300
30C3C300
30C34300
30C66300
30C63300
30C43300
30CC3B00
3FC81B0C
30D019FE
20A00000
00000000
00000000
00000000
00000000
00000000
00000000
00000000
ENDCHAR

STARTCHAR A4E6
ENCODING 42214
SWIDTH 960 0
DWIDTH 32 0
BBX 32 32 0 -8
BITMAP
00000000
00000000
00000000
00000000
00000000
00000000
00000000
30310060
1C1CFFF0
0C0C6060
0C0C0060
0C0C00C0
0C0C00C0
0C0C0180
0FFC0180
0C0C0300
0C0C0300
0C0C0680
0C0C0440
0C0C0C60
0C0C1830
0C0C1038
0FFC2018
0C0C401C
0808800C
00000000
00000000
00000000
00000000
00000000
00000000
00000000
ENDCHAR

STARTCHAR A4E7
ENCODING 42215
SWIDTH 960 0
DWIDTH 32 0
BBX 32 32 0 -8
BITMAP
00000000
00000000
00000000
00000000
00000000
00000000
00000000
3031C030
1C1C7FF8
0C0C6000
0C0C6000
0C0C6000
0C0C6000
0C0C6000
0C0C6060
0FFC7FF0
0C0C6000
0C0C6000
0C0C6000
0C0C6000
0C0C6000
0C0C6000
0FFC6070
0C0C7FF8
08082000
00000000
00000000
00000000
00000000
00000000
00000000
00000000
ENDCHAR

STARTCHAR A4E8
ENCODING 42216
SWIDTH 960 0
DWIDTH 32 0
BBX 32 32 0 -8
BITMAP
00000000
00000000
00000000
00001800
00C00E00
00700600
00300600
00300600
003FFE00
00300600
00300600
00300600
00300600
003FFE00
00300600
00200400
00018000
0000C000
00008000
0007F000
00180C00
00100400
00300600
00300600
00300600
00100400
00180C00
000FF800
0003E000
00000000
00000000
00000000
ENDCHAR

STARTCHAR A4E9
ENCODING 42217
SWIDTH 960 0
DWIDTH 32 0
BBX 32 32 0 -8
BITMAP
00000000
00000000
00000000
00000000
0018C300
060C6180
030C6180
030C6180
030C6180
03FC7F80
030C6180
030C6180
030C6180
030C6180
03FC7F80
030C6180
02090100
0000C000
00008000
0003E000
000C1800
00180C00
00100400
00300600
00300600
00300600
00180C00
001C1C00
000FF800
0003E000
00000000
00000000
ENDCHAR

STARTCHAR A4EA
ENCODING 42218
SWIDTH 960 0
DWIDTH 32 0
BBX 32 32 0 -8
BITMAP
00000000
00000000
00000000
00000000
00000000
00000000
00000000
00610060
0038FFF0
00306060
00300060
00300060
00600060
00600060
00600060
00E00060
00F00060
01980060
018C0060
030E0060
06070060
04070060
08038060
10038060
20018040
00000000
00000000
00000000
00000000
00000000
00000000
00000000
ENDCHAR

STARTCHAR A4EB
ENCODING 42219
SWIDTH 960 0
DWIDTH 32 0
BBX 32 32 0 -8
BITMAP
00000000
00000000
00000000
00000000
00000000
00000000
00000000
01807000
00E01C00
00701800
00601800
00601800
00E01800
00C01800
00C01800
01C01800
01E01800
03B01800
031C1800
060E1800
060F1800
0C071800
18039800
1003980C
20018FFE
40000000
00000000
00000000
00000000
00000000
00000000
00000000
ENDCHAR

STARTCHAR A4EC
ENCODING 42220
SWIDTH 960 0
DWIDTH 32 0
BBX 32 32 0 -8
BITMAP
00000000
00000000
00000000
00000000
00000000
00000000
00000000
01C06070
00703FF8
00603000
00603000
00E03000
00C03000
00C03000
01C03000
01E03000
01B03000
03183000
031C3000
060E3000
040E3000
0C073000
18073000
10033018
20031FFC
00000000
00000000
00000000
00000000
00000000
00000000
00000000
ENDCHAR

STARTCHAR A4ED
ENCODING 42221
SWIDTH 960 0
DWIDTH 32 0
BBX 32 32 0 -8
BITMAP
00000000
00000000
00000000
00000000
00000000
00000000
00000000
01C0C0C0
00F07070
00603030
00603030
00603030
00E03030
00C03030
00C03FF0
01E03030
01B03030
01983030
03183030
030C3030
060E3030
04063030
0C073FF0
08033030
10032020
20000000
00000000
00000000
00000000
00000000
00000000
00000000
ENDCHAR

STARTCHAR A4EE
ENCODING 42222
SWIDTH 960 0
DWIDTH 32 0
BBX 32 32 0 -8
BITMAP
00000000
00000000
00000000
00000000
00000000
00000000
00000000
018100C0
00F0FFE0
006060C0
006000C0
00600180
00600180
00C00300
00C00300
00C00600
01E00700
01B00D80
03180CC0
030C1860
060E1070
0C063038
08076038
1003401C
2001800C
00000000
00000000
00000000
00000000
00000000
00000000
00000000
ENDCHAR

STARTCHAR A4EF
ENCODING 42223
SWIDTH 960 0
DWIDTH 32 0
BBX 32 32 0 -8
BITMAP
00000000
00000000
00000000
00000000
00000000
00000000
00000000
00018000
00018000
0003C000
0003C000
00066000
00066000
000C3000
000C3000
00181800
00181800
00300C00
00300C00
00600600
00600600
00C00300
00C00300
01FFFF80
01FFFF80
00000000
00000000
00000000
00000000
00000000
00000000
00000000
ENDCHAR

STARTCHAR A4F0
ENCODING 42224
SWIDTH 960 0
DWIDTH 32 0
BBX 32 32 0 -8
BITMAP
00000000
00000000
00000000
00000000
00000000
00000000
00000000
03000600
01C00380
01800300
01800300
03E007C0
0C181830
180C3018
10042008
3006600C
3006600C
3006600C
3006600C
3006600C
3006600C
180C3018
1C1C3838
0FF81FF0
03E007C0
00000000
00000000
00000000
00000000
00000000
00000000
00000000
ENDCHAR

STARTCHAR A4F1
ENCODING 42225
SWIDTH 960 0
DWIDTH 32 0
BBX 32 32 0 -8
BITMAP
00000000
00000000
00000000
00000000
00000000
00000000
00000000
00030000
0001C000
00018000
0007E000
001C3800
00300C00
00600600
00600600
00C00300
00C00300
00C00300
00C00300
00C00300
00E00700
00600600
00700E00
003C3C00
001FF800
0007E000
00000000
00000000
00000000
00000000
00000000
00000000
ENDCHAR

STARTCHAR A4F2
ENCODING 42226
SWIDTH 960 0
DWIDTH 32 0
BBX 32 32 0 -8
BITMAP
00000000
00000000
00000000
00000000
00000000
00000000
00000000
03800C00
01C00700
01800380
03E00300
0C180700
180C0600
10040600
30060E00
30060D00
30060D80
300618C0
30061860
30063070
30063038
180C6018
1C1C401C
0FF8800C
03E10000
00020000
00000000
00000000
00000000
00000000
00000000
00000000
ENDCHAR

STARTCHAR A4F3
ENCODING 42227
SWIDTH 960 0
DWIDTH 32 0
BBX 32 32 0 -8
BITMAP
00000000
00000000
00000000
00000000
00000000
00000000
06000600
03800600
03000600
07800F00
1C600F00
30301980
30301980
601830C0
601830C0
60186060
60186060
6018C030
6018C030
60198018
70398018
3033000C
3873000C
1FE7FFFE
0787FFFE
00000000
00000000
00000000
00000000
00000000
00000000
00000000
ENDCHAR

STARTCHAR A4F4
ENCODING 42228
SWIDTH 960 0
DWIDTH 32 0
BBX 32 32 0 -8
BITMAP
00000000
00000000
00000000
00000000
01000380
00FFFFC0
00600000
00081800
00040C00
00040800
00061000
00061000
040021C0
03FFFFE0
01C00000
00018000
0000E000
0000C000
0003F000
000C0C00
00180600
00100200
00300300
00300300
00300300
00180600
001C0E00
000FFC00
0003F000
00000000
00000000
00000000
ENDCHAR

STARTCHAR A4F5
ENCODING 42229
SWIDTH 960 0
DWIDTH 32 0
BBX 32 32 0 -8
BITMAP
00000000
00000000
00000000
00000000
00000000
02002000
01FC1FC0
00000000
00000000
2003400C
1FFFFFFE
0C206200
00300300
00200200
00F80780
018C0C60
03061830
02021010
06033018
06033018
06033018
06033018
06033018
03061830
038E1C70
01FC0FE0
00700380
00000000
00000000
00000000
00000000
00000000
ENDCHAR

STARTCHAR A4F6
ENCODING 42230
SWIDTH 960 0
DWIDTH 32 0
BBX 32 32 0 -8
BITMAP
00000000
00000000
00000000
00000000
00000000
00000000
20000070
1FFFFFF8
07000000
00000000
00030000
0001C000
00018000
0007E000
00181800
00300C00
00200400
00600600
00600600
00600600
00600600
00600600
00300C00
00381C00
001FF800
0007E000
00000000
00000000
00000000
00000000
00000000
00000000
ENDCHAR

STARTCHAR A4F7
ENCODING 42231
SWIDTH 960 0
DWIDTH 32 0
BBX 32 32 0 -8
BITMAP
00000000
00000000
00000E00
00000380
000001C0
00000180
00000180
00000180
00000180
00000180
0000018C
000001FE
00030180
0181C180
00E0C180
0060C180
0060C180
0060C18C
0060C1FE
0060CF80
4063F180
3FFC0180
0E000180
00000180
00000180
00000180
00000180
00000180
00000100
00000100
00000000
00000000
ENDCHAR

STARTCHAR A4F8
ENCODING 42232
SWIDTH 960 0
DWIDTH 32 0
BBX 32 32 0 -8
BITMAP
00000000
00000000
000001C0
00000070
00007038
00001C30
00000E30
00000C30
00000C30
00000C30
00000C30
00000FF0
000C0C30
03070C30
01C30C30
00C30C30
00C30C30
00C30C30
00C30FF0
00C37C30
40CF8C30
3FF00C30
0E000C30
00000C30
00000C30
00000C30
00000830
00000830
00000020
00000020
00000000
00000000
ENDCHAR

STARTCHAR A4F9
ENCODING 42233
SWIDTH 960 0
DWIDTH 32 0
BBX 32 32 0 -8
BITMAP
00000000
00000000
00000700
000001C0
000000E0
000000C0
000000C0
000000C0
000000C0
000000C0
000000C0
000000C0
000300C0
0181C0C0
00E0E0C0
0070C0C0
0060C0C0
0060C0C0
0060C0C0
0060CFC0
4063F0C0
3FFC00C0
0E0000C0
000000C0
000000C0
000000C0
000000C0
000000C0
00000080
00000080
00000000
00000000
ENDCHAR

STARTCHAR A4FA
ENCODING 42234
SWIDTH 960 0
DWIDTH 32 0
BBX 32 32 0 -8
BITMAP
00000000
00000000
000001C0
00000070
00000038
00000030
00000030
00000030
00000030
00000030
00001FF0
00000C30
00000030
00000030
00000030
00001FF0
00000C30
00000030
00003C30
400FC030
3FF30030
0CC30030
00C30030
00C30030
00C30030
00C30030
00C30030
00C30030
00820020
00820020
00000000
00000000
ENDCHAR

STARTCHAR A4FB
ENCODING 42235
SWIDTH 960 0
DWIDTH 32 0
BBX 32 32 0 -8
BITMAP
00000000
00000000
000000E0
00000038
00001C1C
00000718
00000398
00000318
00000318
00000318
00000318
0000FF18
00006318
00000318
00000318
0000FF18
00006318
00000318
0000E318
401F0318
3FE60318
0CC60318
00C60318
00C60318
00C60318
00C60318
00C60318
00840218
00840210
00000010
00000000
00000000
ENDCHAR

STARTCHAR A4FC
ENCODING 42236
SWIDTH 960 0
DWIDTH 32 0
BBX 32 32 0 -8
BITMAP
00000000
00000000
00000700
000001C0
000000E0
000000C0
000000C0
000000C0
000000C0
000000C0
000000C0
000000C0
000000C0
000000C0
000000C0
00000FC0
4003F0C0
3FFCC0C0
0E60C0C0
0060C0C0
0060C0C0
0060C0C0
0060C0C0
0060C0C0
0060C0C0
0060C0C0
0060C0C0
0060C0C0
00408080
00408080
00000000
00000000
ENDCHAR

STARTCHAR A4FD
ENCODING 42237
SWIDTH 960 0
DWIDTH 32 0
BBX 32 32 0 -8
BITMAP
00000000
00000000
00000000
00000000
00000000
00000000
00000000
00000000
00000000
00000000
00000000
00000000
00000000
00000000
00038000
0007C000
0007C000
0007C000
00038000
00000000
00000000
00000000
00000000
00000000
00000000
00000000
00000000
00000000
00000000
00000000
00000000
00000000
ENDCHAR

STARTCHAR A4FE
ENCODING 42238
SWIDTH 960 0
DWIDTH 32 0
BBX 32 32 0 -8
BITMAP
00000000
00000000
00003800
00000E00
00000700
00000600
00000600
00000600
00000600
00000600
00000600
00000600
00000600
00700600
00F80600
00F80600
00F80600
00700600
00000600
00000600
00000600
00000600
00000600
00000600
00000600
00000600
00000600
00000600
00000400
00000400
00000000
00000000
ENDCHAR

STARTCHAR A5A1
ENCODING 42401
SWIDTH 960 0
DWIDTH 32 0
BBX 32 32 0 -8
BITMAP
00000000
00000000
00000000
00000000
00030000
00030000
00000000
00000000
00000000
00000000
00030000
00030000
001F0000
00030000
00030000
00030000
00030000
00030000
00030000
00030000
00030000
00030000
00030000
00030000
00030000
00030000
00030000
001FE000
00000000
00000000
00000000
00000000
ENDCHAR

STARTCHAR A5A2
ENCODING 42402
SWIDTH 960 0
DWIDTH 32 0
BBX 32 32 0 -8
BITMAP
00000000
00000000
00000000
00000000
00300C00
00300C00
00000000
00000000
00000000
00000000
00300C00
00300C00
01F0FC00
00300C00
00300C00
00300C00
00300C00
00300C00
00300C00
00300C00
00300C00
00300C00
00300C00
00300C00
00300C00
00300C00
00300C00
01FE7F80
00000000
00000000
00000000
00000000
ENDCHAR

STARTCHAR A5A3
ENCODING 42403
SWIDTH 960 0
DWIDTH 32 0
BBX 32 32 0 -8
BITMAP
00000000
00000000
00000000
00000000
01818180
01818180
00000000
00000000
00000000
00000000
01818180
01818180
0F8F8F80
01818180
01818180
01818180
01818180
01818180
01818180
01818180
01818180
01818180
01818180
01818180
01818180
01818180
01818180
0FEFEFF0
00000000
00000000
00000000
00000000
ENDCHAR

STARTCHAR A5A4
ENCODING 42404
SWIDTH 960 0
DWIDTH 32 0
BBX 32 32 0 -8
BITMAP
00000000
00000000
00000000
00000000
01800000
01800000
00000000
00000000
00000000
00000000
018FC1F0
0F830040
01830040
01818080
01818080
01818080
0180C100
0180C100
0180C100
01806200
01806200
01806200
01803400
01803400
01803400
01801800
01801800
0FF01800
00000000
00000000
00000000
00000000
ENDCHAR

STARTCHAR A5A5
ENCODING 42405
SWIDTH 960 0
DWIDTH 32 0
BBX 32 32 0 -8
BITMAP
00000000
00000000
00000000
00000000
00000000
00000000
00000000
00000000
00000000
00000000
01FE3F80
00300400
00300400
00180800
00180800
00180800
000C1000
000C1000
000C1000
00062000
00062000
00062000
00034000
00034000
00034000
00018000
00018000
00018000
00000000
00000000
00000000
00000000
ENDCHAR

STARTCHAR A5A6
ENCODING 42406
SWIDTH 960 0
DWIDTH 32 0
BBX 32 32 0 -8
BITMAP
00000000
00000000
00000000
00000000
00000180
00000180
00000000
00000000
00000000
00000000
07F0F780
01802180
01802180
00C04180
00C04180
00C04180
00608180
00608180
00608180
00310180
00310180
00310180
001A0180
001A0180
001A0180
000C0180
000C0180
000C07E0
00000000
00000000
00000000
00000000
ENDCHAR

STARTCHAR A5A7
ENCODING 42407
SWIDTH 960 0
DWIDTH 32 0
BBX 32 32 0 -8
BITMAP
00000000
00000000
00000000
00000000
00001830
00001830
00000000
00000000
00000000
00000000
3F0FF8F0
0C011830
0C011830
06021830
06021830
06021830
03041830
03041830
03041830
01881830
01881830
01881830
00D01830
00D01830
00F01830
00601830
00601830
00607EFC
00000000
00000000
00000000
00000000
ENDCHAR

STARTCHAR A5A8
ENCODING 42408
SWIDTH 960 0
DWIDTH 32 0
BBX 32 32 0 -8
BITMAP
00000000
00000000
00000000
00000000
00006318
00006318
00000000
00000000
00000000
00000000
7E0FEF78
18026318
18026318
0C046318
0C046318
0C046318
06086318
06086318
06086318
03106318
03106318
03106318
01A06318
01A06318
01A06318
00C06318
00C06318
00C1FFFE
00000000
00000000
00000000
00000000
ENDCHAR

STARTCHAR A5A9
ENCODING 42409
SWIDTH 960 0
DWIDTH 32 0
BBX 32 32 0 -8
BITMAP
00000000
00000000
00000000
00000000
06000000
06000000
00000000
00000000
00000000
00000000
063FC3FC
06060030
3E070060
06030040
060180C0
0601C180
0600E300
06007600
06003C00
06001C00
06003C00
06003E00
06006700
0600C380
060181C0
060300E0
06060070
3FDFC3FC
00000000
00000000
00000000
00000000
ENDCHAR

STARTCHAR A5AA
ENCODING 42410
SWIDTH 960 0
DWIDTH 32 0
BBX 32 32 0 -8
BITMAP
00000000
00000000
00000000
00000000
00000000
00000000
00000000
00000000
00000000
00000000
03FC3FC0
00600300
00700600
00300400
00180C00
001C1800
000E3000
00076000
0003C000
0001C000
0003C000
0003E000
00067000
000C3800
00181C00
00300E00
00600700
03FC3FC0
00000000
00000000
00000000
00000000
ENDCHAR

STARTCHAR A5B0
ENCODING 42416
SWIDTH 960 0
DWIDTH 32 0
BBX 32 32 0 -8
BITMAP
00000000
00000000
00000000
00000000
000FF000
00018000
00018000
00018000
00018000
00018000
00018000
00018000
00018000
00018000
00018000
00018000
00018000
00018000
00018000
00018000
00018000
00018000
00018000
00018000
00018000
00018000
00018000
000FF000
00000000
00000000
00000000
00000000
ENDCHAR

STARTCHAR A5B1
ENCODING 42417
SWIDTH 960 0
DWIDTH 32 0
BBX 32 32 0 -8
BITMAP
00000000
00000000
00000000
00000000
00FFFF00
00181800
00181800
00181800
00181800
00181800
00181800
00181800
00181800
00181800
00181800
00181800
00181800
00181800
00181800
00181800
00181800
00181800
00181800
00181800
00181800
00181800
00181800
00FFFF00
00000000
00000000
00000000
00000000
ENDCHAR

STARTCHAR A5B2
ENCODING 42418
SWIDTH 960 0
DWIDTH 32 0
BBX 32 32 0 -8
BITMAP
00000000
00000000
00000000
00000000
07FFFFE0
00C18300
00C18300
00C18300
00C18300
00C18300
00C18300
00C18300
00C18300
00C18300
00C18300
00C18300
00C18300
00C18300
00C18300
00C18300
00C18300
00C18300
00C18300
00C18300
00C18300
00C18300
00C18300
07FFFFE0
00000000
00000000
00000000
00000000
ENDCHAR

STARTCHAR A5B3
ENCODING 42419
SWIDTH 960 0
DWIDTH 32 0
BBX 32 32 0 -8
BITMAP
00000000
00000000
00000000
00000000
0FFFCFF0
01860080
01860080
01860080
01830100
01830100
01830100
01830100
01818200
01818200
01818200
01818200
0180C400
0180C400
0180C400
0180C400
01806800
01806800
01806800
01806800
01803000
01803000
01803000
0FF03000
00000000
00000000
00000000
00000000
ENDCHAR

STARTCHAR A5B4
ENCODING 42420
SWIDTH 960 0
DWIDTH 32 0
BBX 32 32 0 -8
BITMAP
00000000
00000000
00000000
00000000
07F80FE0
00C00100
00C00100
00600200
00600200
00600200
00300400
00300400
00300400
00180800
00180800
00180800
000C1000
000C1000
000C1000
00062000
00062000
00062000
00034000
00034000
00034000
00018000
00018000
00018000
00000000
00000000
00000000
00000000
ENDCHAR

STARTCHAR A5B5
ENCODING 42421
SWIDTH 960 0
DWIDTH 32 0
BBX 32 32 0 -8
BITMAP
00000000
00000000
00000000
00000000
0FF1FFF0
01802180
01802180
01802180
00C04180
00C04180
00C04180
00C04180
00608180
00608180
00608180
00608180
00310180
00310180
00310180
00310180
001A0180
001A0180
001A0180
001A0180
000C0180
000C0180
000C0180
000C0FF0
00000000
00000000
00000000
00000000
ENDCHAR

STARTCHAR A5B6
ENCODING 42422
SWIDTH 960 0
DWIDTH 32 0
BBX 32 32 0 -8
BITMAP
00000000
00000000
00000000
00000000
3FC7FFFC
06008C60
06008C60
06008C60
03010C60
03010C60
03010C60
03010C60
01820C60
01820C60
01820C60
01820C60
00C40C60
00C40C60
00C40C60
00C40C60
00680C60
00680C60
00680C60
00680C60
00300C60
00300C60
00300C60
00307FFC
00000000
00000000
00000000
00000000
ENDCHAR

STARTCHAR A5B7
ENCODING 42423
SWIDTH 960 0
DWIDTH 32 0
BBX 32 32 0 -8
BITMAP
00000000
00000000
00000000
00000000
7F8FFFFE
0C013330
0C013330
0E013330
06023330
06023330
06023330
06023330
03043330
03043330
03043330
03043330
01883330
01883330
01883330
01883330
00D03330
00D03330
00D03330
00D03330
00603330
00603330
00603330
0061FFFE
00000000
00000000
00000000
00000000
ENDCHAR

STARTCHAR A5B8
ENCODING 42424
SWIDTH 960 0
DWIDTH 32 0
BBX 32 32 0 -8
BITMAP
00000000
00000000
00000000
00000000
0FFFF3F0
018700C0
01870080
01830080
01838100
01818100
0181C100
0180C200
0180E200
01806400
01807400
01803800
01803800
01801C00
01803C00
01802E00
01804600
01804700
01808300
01808380
01810180
018101C0
018200C0
0FEFC7F0
00000000
00000000
00000000
00000000
ENDCHAR

STARTCHAR A5B9
ENCODING 42425
SWIDTH 960 0
DWIDTH 32 0
BBX 32 32 0 -8
BITMAP
00000000
00000000
00000000
00000000
0FFC0FF8
01C000C0
00E00180
00700300
00300600
00380400
001C0C00
000E1800
00063000
00076000
0003C000
0001C000
0001C000
0003E000
00067000
000C3800
00181800
00301C00
00200E00
00600700
00C00300
01800380
030001C0
1FE00FF8
00000000
00000000
00000000
00000000
ENDCHAR

STARTCHAR A5C1
ENCODING 42433
SWIDTH 960 0
DWIDTH 32 0
BBX 32 32 0 -8
BITMAP
00000000
00000000
00000000
00000000
00000000
000000C0
000000C0
000001C0
000003C0
000006C0
00000CC0
000018C0
000030C0
000060C0
0000C0C0
000180C0
000300C0
000600C0
000FFFC0
001800C0
003000C0
006000C0
00C000C0
018000C0
030000C0
060000C0
3FE007F8
00000000
00000000
00000000
00000000
00000000
ENDCHAR

STARTCHAR A5C2
ENCODING 42434
SWIDTH 960 0
DWIDTH 32 0
BBX 32 32 0 -8
BITMAP
00000000
00000000
00000000
00000000
00000000
00FFFE00
00300380
00300180
003000C0
003000C0
003000C0
003000C0
00300080
00600180
00600300
007FFE00
00600300
00600180
00600180
00600180
00C00180
00C00180
00C00380
00C00300
00C00700
00C01E00
03FFF800
00000000
00000000
00000000
00000000
00000000
ENDCHAR

STARTCHAR A5C3
ENCODING 42435
SWIDTH 960 0
DWIDTH 32 0
BBX 32 32 0 -8
BITMAP
00000000
00000000
00000000
00000000
00000000
00FFFFC0
001800C0
001800C0
00180040
00180040
00180040
00180000
00180000
00300000
00300000
00300000
00300000
00300000
00300000
00300000
00600000
00600000
00600000
00600000
00600000
00600000
03FC0000
00000000
00000000
00000000
00000000
00000000
ENDCHAR

STARTCHAR A5C4
ENCODING 42436
SWIDTH 960 0
DWIDTH 32 0
BBX 32 32 0 -8
BITMAP
00000000
00000000
00000000
00000000
00000000
00000060
000000E0
000001E0
00000360
00000660
00000C60
00001860
00003060
000060C0
0000C0C0
000180C0
000300C0
000600C0
000C00C0
001800C0
00300180
00600180
00C00180
01800180
03000180
07FFFF80
07FFFF80
00000000
00000000
00000000
00000000
00000000
ENDCHAR

STARTCHAR A5C5
ENCODING 42437
SWIDTH 960 0
DWIDTH 32 0
BBX 32 32 0 -8
BITMAP
00000000
00000000
00000000
00000000
00000000
00FFFFC0
003000C0
003000C0
00300040
00300040
00300840
00300800
00300800
00601800
007FF800
00603000
00601000
00601000
00601000
00601000
00C00000
00C00000
00C00200
00C00200
00C00600
00C00600
03FFFE00
00000000
00000000
00000000
00000000
00000000
ENDCHAR

STARTCHAR A5C6
ENCODING 42438
SWIDTH 960 0
DWIDTH 32 0
BBX 32 32 0 -8
BITMAP
00000000
00000000
00000000
00000000
00000000
007FFFC0
006001C0
006001C0
00400380
00400700
00000E00
00001C00
00003800
00007000
0000E000
0001C000
00038000
00070000
000E0000
001C0000
00380000
00700000
00E00100
01C00100
03800300
03000300
03FFFF00
00000000
00000000
00000000
00000000
00000000
ENDCHAR

STARTCHAR A5C7
ENCODING 42439
SWIDTH 960 0
DWIDTH 32 0
BBX 32 32 0 -8
BITMAP
00000000
00000000
00000000
00000000
00000000
07F81FE0
00C00300
00C00300
00C00300
00C00300
00C00300
00C00300
01800600
01800600
01800600
01FFFE00
01800600
01800600
01800600
01800600
03000600
03000C00
03000C00
03000C00
03000C00
03000C00
1FC07F80
00000000
00000000
00000000
00000000
00000000
ENDCHAR

STARTCHAR A5C8
ENCODING 42440
SWIDTH 960 0
DWIDTH 32 0
BBX 32 32 0 -8
BITMAP
00000000
00000000
00000000
0003F000
000E1C00
00380600
00600300
00C00300
00C00180
01800180
01800180
03000180
03301980
03301980
03301980
033FF180
03603180
03603180
03603180
03000380
03000380
03000300
03000700
03800600
01800E00
01C01C00
00F07000
003FC000
00000000
00000000
00000000
00000000
ENDCHAR

STARTCHAR A5C9
ENCODING 42441
SWIDTH 960 0
DWIDTH 32 0
BBX 32 32 0 -8
BITMAP
00000000
00000000
00000000
00000000
00000000
0007F800
0000C000
0000C000
0000C000
0000C000
0000C000
00018000
00018000
00018000
00018000
00018000
00018000
00018000
00018000
00030000
00030000
00030000
00030000
00030000
00030000
00030000
001FE000
00000000
00000000
00000000
00000000
00000000
ENDCHAR

STARTCHAR A5CA
ENCODING 42442
SWIDTH 960 0
DWIDTH 32 0
BBX 32 32 0 -8
BITMAP
00000000
00000000
00000000
00000000
00000000
03F8FF80
00C01C00
00C01C00
00C03800
00C07000
00C0E000
00C1C000
01838000
01870000
018E0000
019C0000
01BC0000
01F60000
01E30000
01C18000
0180C000
03006000
03003000
03001800
03000C00
03000600
0FE03FC0
00000000
00000000
00000000
00000000
00000000
ENDCHAR

STARTCHAR A5CB
ENCODING 42443
SWIDTH 960 0
DWIDTH 32 0
BBX 32 32 0 -8
BITMAP
00000000
00000000
00000000
00000000
00000000
000000C0
000001C0
000003C0
000007C0
00000EC0
00001CC0
000038C0
000070C0
000060C0
0000E0C0
0001C0C0
000380C0
000700C0
000E00C0
001C00C0
001800C0
003800C0
007000C0
00E000C0
01C000C0
038000C0
1FF807F8
00000000
00000000
00000000
00000000
00000000
ENDCHAR

STARTCHAR A5CC
ENCODING 42444
SWIDTH 960 0
DWIDTH 32 0
BBX 32 32 0 -8
BITMAP
00000000
00000000
00000000
00000000
00000000
07E0007E
00E00070
00E00070
00F000B0
00F000B0
00F00130
00F80130
01980330
01980260
019C0660
018C0460
018C0C60
018E0860
01861860
01861060
030630C0
030320C0
030360C0
0303C0C0
0301C0C0
030180C0
1FE187F8
00000000
00000000
00000000
00000000
00000000
ENDCHAR

STARTCHAR A5CD
ENCODING 42445
SWIDTH 960 0
DWIDTH 32 0
BBX 32 32 0 -8
BITMAP
00000000
00000000
00000000
00000000
00000000
01F00FE0
00300100
00380100
00380100
003C0100
002C0100
002E0100
00260200
00470200
00430200
00438200
00418200
0041C200
0040C200
0040E200
00406400
00807400
00803400
00803C00
00801C00
00801C00
07F00C00
00000000
00000000
00000000
00000000
00000000
ENDCHAR

STARTCHAR A5CE
ENCODING 42446
SWIDTH 960 0
DWIDTH 32 0
BBX 32 32 0 -8
BITMAP
00000000
00000000
00000000
00000000
00000000
01FFFFE0
01800060
01800060
030000C0
030000C0
030000C0
00000000
00300600
00300600
00300600
003FFE00
00600C00
00600C00
00600C00
00600C00
00000000
00000000
03000180
03000180
03000180
06000300
07FFFF00
06000300
06000300
00000000
00000000
00000000
ENDCHAR

STARTCHAR A5CF
ENCODING 42447
SWIDTH 960 0
DWIDTH 32 0
BBX 32 32 0 -8
BITMAP
00000000
00000000
00000000
00000000
0003F000
000E1C00
00180600
00300300
00600300
00600180
00C00180
00C00180
01800180
01800180
01800180
03000180
03000180
03000300
03000300
03000300
03000600
03000600
03000C00
01800C00
01801800
00C03000
0070E000
001F8000
00000000
00000000
00000000
00000000
ENDCHAR

STARTCHAR A5D0
ENCODING 42448
SWIDTH 960 0
DWIDTH 32 0
BBX 32 32 0 -8
BITMAP
00000000
00000000
00000000
00000000
00000000
03FFFFF0
00600180
00600180
00600180
00600180
00600180
00C00180
00C00300
00C00300
00C00300
00C00300
00C00300
00C00300
00C00300
01800300
01800600
01800600
01800600
01800600
01800600
01800600
0FE03FC0
00000000
00000000
00000000
00000000
00000000
ENDCHAR

STARTCHAR A5D1
ENCODING 42449
SWIDTH 960 0
DWIDTH 32 0
BBX 32 32 0 -8
BITMAP
00000000
00000000
00000000
00000000
00000000
03FFF800
00600E00
00600300
00600380
00600180
00600180
00600180
00600180
00C00180
00C00380
00C00300
00C00700
00C03E00
00FFF000
00C00000
00C00000
01800000
01800000
01800000
01800000
01800000
0FE00000
00000000
00000000
00000000
00000000
00000000
ENDCHAR

STARTCHAR A5D2
ENCODING 42450
SWIDTH 960 0
DWIDTH 32 0
BBX 32 32 0 -8
BITMAP
00000000
00000000
00000000
00000000
00000000
00FFFFE0
00E00060
00700020
00380020
001C0020
000E0000
00070000
00038000
0001C000
0000C000
00018000
00030000
00060000
000C0000
00180000
00300000
00600200
00C00200
01800200
03000600
07FFFE00
07FFFE00
00000000
00000000
00000000
00000000
00000000
ENDCHAR

STARTCHAR A5D3
ENCODING 42451
SWIDTH 960 0
DWIDTH 32 0
BBX 32 32 0 -8
BITMAP
00000000
00000000
00000000
00000000
00000000
03FFFFE0
0300C060
0300C060
0200C020
0200C020
0000C000
0000C000
00018000
00018000
00018000
00018000
00018000
00018000
00018000
00018000
00018000
00030000
00030000
00030000
00030000
00030000
001FE000
00000000
00000000
00000000
00000000
00000000
ENDCHAR

STARTCHAR A5D4
ENCODING 42452
SWIDTH 960 0
DWIDTH 32 0
BBX 32 32 0 -8
BITMAP
00000000
00000000
00000000
00000000
00000000
01807800
01C1FE00
00638F00
00260700
003C0000
00380000
00380000
00300000
00300000
00300000
00300000
00600000
00600000
00600000
00600000
00600000
00C00000
00C00000
00C00000
00C00000
00C00000
07F80000
00000000
00000000
00000000
00000000
00000000
ENDCHAR

STARTCHAR A5D5
ENCODING 42453
SWIDTH 960 0
DWIDTH 32 0
BBX 32 32 0 -8
BITMAP
00000000
00000000
000FF000
00018000
00018000
0007E000
001FB800
00318C00
00618600
00C18600
00C18300
01818300
01818300
03838300
03030300
03030300
03030300
03030300
03030700
03030600
03070600
03060C00
01860C00
01861800
00C63000
0076E000
001F8000
00060000
00060000
003FC000
00000000
00000000
ENDCHAR

STARTCHAR A5D6
ENCODING 42454
SWIDTH 960 0
DWIDTH 32 0
BBX 32 32 0 -8
BITMAP
00000000
00000000
00000000
00000000
00000000
01FF87F8
003800C0
001C00C0
001C0180
000E0300
000E0600
00070C00
00071800
0003B000
0003A000
0001C000
0001C000
0003E000
00066000
000C7000
00183000
00303800
00601800
00C01C00
01800C00
03000E00
1FE07FC0
00000000
00000000
00000000
00000000
00000000
ENDCHAR

STARTCHAR A5D7
ENCODING 42455
SWIDTH 960 0
DWIDTH 32 0
BBX 32 32 0 -8
BITMAP
00000000
00000000
00000000
00000000
00000000
0707E0F0
1F8181F8
19818398
01C18380
01C18380
01C18180
01818180
03818180
03030100
03030300
03030300
03030200
01830600
01830C00
00E33800
003FE000
00060000
00060000
00060000
00060000
00060000
003FC000
00000000
00000000
00000000
00000000
00000000
ENDCHAR

STARTCHAR A5D8
ENCODING 42456
SWIDTH 960 0
DWIDTH 32 0
BBX 32 32 0 -8
BITMAP
00000000
00000000
00000000
00000000
00000000
0003F800
001E1E00
00380700
00700300
00600380
00E00180
00C00180
00C00180
00C00180
00C00380
00E00300
00600700
00700600
00380C00
00181800
000C3000
04042020
04042020
04084020
08084040
0FF87FC0
0FF87FC0
00000000
00000000
00000000
00000000
00000000
ENDCHAR

STARTCHAR A5E1
ENCODING 42465
SWIDTH 960 0
DWIDTH 32 0
BBX 32 32 0 -8
BITMAP
00000000
00000000
00000000
00000000
00000000
00000000
00000000
00000000
00000000
00000000
00000180
00000180
0007C300
001C3300
00301E00
00600E00
00E00E00
00C00C00
00C00C00
01801C00
01801800
01801800
01803800
00C03800
00C07880
0070DD80
001F0F00
00000000
00000000
00000000
00000000
00000000
ENDCHAR

STARTCHAR A5E2
ENCODING 42466
SWIDTH 960 0
DWIDTH 32 0
BBX 32 32 0 -8
BITMAP
00000000
00000000
00000000
00000000
00000000
00000000
0000F000
00031C00
00060600
00040600
00080300
00080300
00080300
00100200
0010E600
0010FC00
00101800
00200C00
00200E00
00200600
00200600
00200600
00400E00
00600C00
00501C00
004C7800
0043E000
00C00000
00C00000
00C00000
00C00000
00000000
ENDCHAR

STARTCHAR A5E3
ENCODING 42467
SWIDTH 960 0
DWIDTH 32 0
BBX 32 32 0 -8
BITMAP
00000000
00000000
00000000
00000000
00000000
00000000
00000000
00000000
00000000
00000000
00000000
00000000
00380C00
007C3C00
000C7C00
0004E000
00058000
00070000
00060000
00060000
000C0000
000C0000
000C0000
001C0000
00180000
00180000
00380000
00380000
00300000
00000000
00000000
00000000
ENDCHAR

STARTCHAR A5E4
ENCODING 42468
SWIDTH 960 0
DWIDTH 32 0
BBX 32 32 0 -8
BITMAP
00000000
00000000
00000000
00000000
001F0000
0039C000
00306000
00301000
00300800
00180000
00180000
000C0000
00060000
00038000
0003C000
000C7000
00181800
00300800
00300C00
00600C00
00600C00
00600C00
00601800
00601800
00303000
00386000
000F8000
00000000
00000000
00000000
00000000
00000000
ENDCHAR

STARTCHAR A5E5
ENCODING 42469
SWIDTH 960 0
DWIDTH 32 0
BBX 32 32 0 -8
BITMAP
00000000
00000000
00000000
00000000
00000000
00000000
00000000
00000000
00000000
00000000
00000000
00000000
0001E000
00061800
000C0400
000C0000
000C0000
00066000
0003F000
000CE000
00180000
00300000
00300000
00300800
00183000
001FE000
00078000
00000000
00000000
00000000
00000000
00000000
ENDCHAR

STARTCHAR A5E6
ENCODING 42470
SWIDTH 960 0
DWIDTH 32 0
BBX 32 32 0 -8
BITMAP
00000000
00000000
00000000
00000000
00010600
00061E00
000C3C00
000C7000
0007C000
00018000
00030000
00060000
000C0000
00180000
00300000
00200000
00600000
00400000
00C00000
00C00000
00C00000
00C00000
00E00000
007F0000
003F8000
0000C000
00004000
00004000
0003C000
00038000
00000000
00000000
ENDCHAR

STARTCHAR A5E7
ENCODING 42471
SWIDTH 960 0
DWIDTH 32 0
BBX 32 32 0 -8
BITMAP
00000000
00000000
00000000
00000000
00000000
00000000
00000000
00000000
00000000
00000000
00000000
00000000
00387800
007DC400
00470200
00060200
00040200
000C0600
00180600
00180400
00300C00
00300C00
00601800
00601800
00C03000
00C03000
00006000
00006000
0000E000
0000C000
0000C000
00000000
ENDCHAR

STARTCHAR A5E8
ENCODING 42472
SWIDTH 960 0
DWIDTH 32 0
BBX 32 32 0 -8
BITMAP
00000000
00000000
00000000
00000000
0000E000
00031800
00060C00
000C0C00
00080600
00180600
00100600
00300600
00300600
00300600
007FFE00
00600600
00600600
00600C00
00600C00
00600C00
00600800
00601800
00601000
00303000
00306000
0018C000
00070000
00000000
00000000
00000000
00000000
00000000
ENDCHAR

STARTCHAR A5E9
ENCODING 42473
SWIDTH 960 0
DWIDTH 32 0
BBX 32 32 0 -8
BITMAP
00000000
00000000
00000000
00000000
00000000
00000000
00000000
00000000
00000000
00000000
00000000
00000000
0000E000
0000E000
0001C000
0001C000
00018000
00038000
00030000
00030000
00020000
00060000
00040000
000C0000
000C0C00
00060C00
00071C00
0003F000
0000E000
00000000
00000000
00000000
ENDCHAR

STARTCHAR A5EA
ENCODING 42474
SWIDTH 960 0
DWIDTH 32 0
BBX 32 32 0 -8
BITMAP
00000000
00000000
00000000
00000000
00000000
00000000
00000000
00000000
00000000
00000000
00300000
00301800
00307C00
00308C00
00310000
00620000
00640000
00680000
007E0000
00630000
00630000
00630000
00C30000
00C30200
00C30400
00C18800
00C0F000
00000000
00000000
00000000
00000000
00000000
ENDCHAR

STARTCHAR A5EB
ENCODING 42475
SWIDTH 960 0
DWIDTH 32 0
BBX 32 32 0 -8
BITMAP
00000000
00000000
00000000
00000000
0001C000
0001F000
00001000
00000800
00000800
00000800
00000800
00001000
00001000
00002000
00002000
00006000
00006000
0000A000
00012000
00032000
00022000
00063000
000C1000
00181800
00381800
00701C00
00600C00
00000000
00000000
00000000
00000000
00000000
ENDCHAR

STARTCHAR A5EC
ENCODING 42476
SWIDTH 960 0
DWIDTH 32 0
BBX 32 32 0 -8
BITMAP
00000000
00000000
00000000
00000000
00000000
00000000
00000000
00000000
00000000
00000000
00080400
001C0E00
001C0E00
001C0E00
00181C00
00381C00
00381C00
00301800
00301800
00303800
00203000
00203000
00602000
00606000
00605100
00D09E00
00CF0C00
01C00000
01C00000
01800000
00000000
00000000
ENDCHAR

STARTCHAR A5ED
ENCODING 42477
SWIDTH 960 0
DWIDTH 32 0
BBX 32 32 0 -8
BITMAP
00000000
00000000
00000000
00000000
00000000
00000000
00000000
00000000
00000000
00000000
00300100
00380100
00380100
00180300
00180200
00180600
00180600
00100C00
00100C00
00101800
00103000
00107000
0020E000
0023C000
003F8000
003E0000
00780000
00000000
00000000
00000000
00000000
00000000
ENDCHAR

STARTCHAR A5EE
ENCODING 42478
SWIDTH 960 0
DWIDTH 32 0
BBX 32 32 0 -8
BITMAP
00000000
00000000
00000000
00000000
0000C000
00010000
00018E00
00007E00
0001C000
00020000
00040000
00040000
00040000
00020000
0003F800
000E3C00
00180000
00300000
00300000
00600000
00600000
00600000
00700000
003FC000
001FF000
00003000
00001800
00001800
00033000
0003C000
00000000
00000000
ENDCHAR

STARTCHAR A5EF
ENCODING 42479
SWIDTH 960 0
DWIDTH 32 0
BBX 32 32 0 -8
BITMAP
00000000
00000000
00000000
00000000
00000000
00000000
00000000
00000000
00000000
00000000
0001E000
00071800
000C0C00
00180C00
00180600
00300600
00300600
00600600
00600600
00600C00
00600C00
00601800
00301800
00303000
0018E000
00078000
00000000
00000000
00000000
00000000
00000000
00000000
ENDCHAR

STARTCHAR A5F0
ENCODING 42480
SWIDTH 960 0
DWIDTH 32 0
BBX 32 32 0 -8
BITMAP
00000000
00000000
00000000
00000000
00000000
00000000
00000000
00000000
00000000
00000000
003FFF80
00FFFF00
01041000
00041000
00081000
00082000
00082000
00182000
00104000
00304000
00304000
0070C000
00E0C000
00E0E200
01E0FC00
00C07000
00000000
00000000
00000000
00000000
00000000
00000000
ENDCHAR

STARTCHAR A5F1
ENCODING 42481
SWIDTH 960 0
DWIDTH 32 0
BBX 32 32 0 -8
BITMAP
00000000
00000000
00000000
00000000
00000000
00000000
00000000
00000000
00000000
00000000
00007000
00018C00
00020600
00060200
000C0300
000C0300
00180300
00180300
00180300
00380300
00380300
00380600
006C0600
006C0C00
00663800
0061E000
00E00000
00E00000
00E00000
00C00000
00000000
00000000
ENDCHAR

STARTCHAR A5F2
ENCODING 42482
SWIDTH 960 0
DWIDTH 32 0
BBX 32 32 0 -8
BITMAP
00000000
00000000
00000000
00000000
00000000
00000000
00000000
00000000
00000000
00000000
00007F00
0003FF00
000FC000
001C3000
00301800
00300800
00600C00
00600C00
00C00C00
00C00C00
00C00C00
00C00C00
00C01800
00C01800
00603000
0070E000
001F8000
00000000
00000000
00000000
00000000
00000000
ENDCHAR

STARTCHAR A5F3
ENCODING 42483
SWIDTH 960 0
DWIDTH 32 0
BBX 32 32 0 -8
BITMAP
00000000
00000000
00000000
00000000
00000000
00000000
00000000
00000000
00000000
00000000
0007FC00
001FFC00
00208000
00010000
00010000
00020000
00020000
00040000
00040000
000C0000
00080000
00080000
00180000
00182000
001C6000
000FC000
00078000
00000000
00000000
00000000
00000000
00000000
ENDCHAR

STARTCHAR A5F4
ENCODING 42484
SWIDTH 960 0
DWIDTH 32 0
BBX 32 32 0 -8
BITMAP
00000000
00000000
00000000
00000000
00000000
00000000
00000000
00000000
00000000
00000000
00001000
00100800
00180C00
00180400
00180600
00180600
00300600
00300600
00200600
00600E00
00400E00
00400C00
00401C00
00401800
00603000
0030E000
001F8000
00000000
00000000
00000000
00000000
00000000
ENDCHAR

STARTCHAR A5F5
ENCODING 42485
SWIDTH 960 0
DWIDTH 32 0
BBX 32 32 0 -8
BITMAP
00000000
00000000
00000000
00000000
00000000
00000000
00000000
00000000
00000000
00000000
000C1C00
00307F00
00606100
00C0C080
00C0C080
01808080
01808080
01808080
01810080
01810100
01810100
01C10200
00C10200
00E20400
007E1800
001FE000
00020000
00020000
00060000
00060000
00060000
00000000
ENDCHAR

STARTCHAR A5F6
ENCODING 42486
SWIDTH 960 0
DWIDTH 32 0
BBX 32 32 0 -8
BITMAP
00000000
00000000
00000000
00000000
00000000
00000000
00000000
00000000
00000000
00000000
001C0380
003E0700
00630E00
00411C00
00011800
00013800
00017000
00016000
0001C000
0001C000
00038000
00070000
00070000
000F0000
001D0000
00390000
00310000
00718200
00E0C600
01C0FC00
03803800
00000000
ENDCHAR

STARTCHAR A5F7
ENCODING 42487
SWIDTH 960 0
DWIDTH 32 0
BBX 32 32 0 -8
BITMAP
00000000
00000000
00000000
00000000
00006000
00006000
00006000
00006000
00004000
0000C000
0000C300
00108380
00208380
00608180
00408180
00C18180
00810180
01810300
01810300
01810300
01830600
01820600
00C20C00
00C21800
00727000
001FC000
00060000
00040000
00040000
000C0000
000C0000
00000000
ENDCHAR

STARTCHAR A5F8
ENCODING 42488
SWIDTH 960 0
DWIDTH 32 0
BBX 32 32 0 -8
BITMAP
00000000
00000000
00000000
00000000
00000000
00000000
00000000
00000000
00000000
00000000
00000C00
00100300
00600100
00C00180
01800080
018080C0
0300C0C0
0301C0C0
0701C0C0
060180C0
060181C0
06018180
06010180
03010300
03030300
01C68E00
00787800
00000000
00000000
00000000
00000000
00000000
ENDCHAR

STARTCHAR A6A1
ENCODING 42657
SWIDTH 960 0
DWIDTH 32 0
BBX 32 32 0 -8
BITMAP
00000000
00000000
00000000
00000000
00000000
00000000
00000000
00000000
00000000
00000000
00000000
00000000
00000000
00000000
00000000
FFFFFFFF
FFFFFFFF
00000000
00000000
00000000
00000000
00000000
00000000
00000000
00000000
00000000
00000000
00000000
00000000
00000000
00000000
00000000
ENDCHAR

STARTCHAR A6A2
ENCODING 42658
SWIDTH 960 0
DWIDTH 32 0
BBX 32 32 0 -8
BITMAP
00018000
00018000
00018000
00018000
00018000
00018000
00018000
00018000
00018000
00018000
00018000
00018000
00018000
00018000
00018000
00018000
00018000
00018000
00018000
00018000
00018000
00018000
00018000
00018000
00018000
00018000
00018000
00018000
00018000
00018000
00018000
00018000
ENDCHAR

STARTCHAR A6A3
ENCODING 42659
SWIDTH 960 0
DWIDTH 32 0
BBX 32 32 0 -8
BITMAP
00000000
00000000
00000000
00000000
00000000
00000000
00000000
00000000
00000000
00000000
00000000
00000000
00000000
00000000
00000000
0001FFFF
0001FFFF
00018000
00018000
00018000
00018000
00018000
00018000
00018000
00018000
00018000
00018000
00018000
00018000
00018000
00018000
00018000
ENDCHAR

STARTCHAR A6A4
ENCODING 42660
SWIDTH 960 0
DWIDTH 32 0
BBX 32 32 0 -8
BITMAP
00000000
00000000
00000000
00000000
00000000
00000000
00000000
00000000
00000000
00000000
00000000
00000000
00000000
00000000
00000000
FFFF8000
FFFF8000
00018000
00018000
00018000
00018000
00018000
00018000
00018000
00018000
00018000
00018000
00018000
00018000
00018000
00018000
00018000
ENDCHAR

STARTCHAR A6A5
ENCODING 42661
SWIDTH 960 0
DWIDTH 32 0
BBX 32 32 0 -8
BITMAP
00018000
00018000
00018000
00018000
00018000
00018000
00018000
00018000
00018000
00018000
00018000
00018000
00018000
00018000
00018000
FFFF8000
FFFF8000
00000000
00000000
00000000
00000000
00000000
00000000
00000000
00000000
00000000
00000000
00000000
00000000
00000000
00000000
00000000
ENDCHAR

STARTCHAR A6A6
ENCODING 42662
SWIDTH 960 0
DWIDTH 32 0
BBX 32 32 0 -8
BITMAP
00018000
00018000
00018000
00018000
00018000
00018000
00018000
00018000
00018000
00018000
00018000
00018000
00018000
00018000
00018000
0001FFFF
0001FFFF
00000000
00000000
00000000
00000000
00000000
00000000
00000000
00000000
00000000
00000000
00000000
00000000
00000000
00000000
00000000
ENDCHAR

STARTCHAR A6A7
ENCODING 42663
SWIDTH 960 0
DWIDTH 32 0
BBX 32 32 0 -8
BITMAP
00018000
00018000
00018000
00018000
00018000
00018000
00018000
00018000
00018000
00018000
00018000
00018000
00018000
00018000
00018000
0001FFFF
0001FFFF
00018000
00018000
00018000
00018000
00018000
00018000
00018000
00018000
00018000
00018000
00018000
00018000
00018000
00018000
00018000
ENDCHAR

STARTCHAR A6A8
ENCODING 42664
SWIDTH 960 0
DWIDTH 32 0
BBX 32 32 0 -8
BITMAP
00000000
00000000
00000000
00000000
00000000
00000000
00000000
00000000
00000000
00000000
00000000
00000000
00000000
00000000
00000000
FFFFFFFF
FFFFFFFF
00018000
00018000
00018000
00018000
00018000
00018000
00018000
00018000
00018000
00018000
00018000
00018000
00018000
00018000
00018000
ENDCHAR

STARTCHAR A6A9
ENCODING 42665
SWIDTH 960 0
DWIDTH 32 0
BBX 32 32 0 -8
BITMAP
00018000
00018000
00018000
00018000
00018000
00018000
00018000
00018000
00018000
00018000
00018000
00018000
00018000
00018000
00018000
FFFF8000
FFFF8000
00018000
00018000
00018000
00018000
00018000
00018000
00018000
00018000
00018000
00018000
00018000
00018000
00018000
00018000
00018000
ENDCHAR

STARTCHAR A6AA
ENCODING 42666
SWIDTH 960 0
DWIDTH 32 0
BBX 32 32 0 -8
BITMAP
00018000
00018000
00018000
00018000
00018000
00018000
00018000
00018000
00018000
00018000
00018000
00018000
00018000
00018000
00018000
FFFFFFFF
FFFFFFFF
00000000
00000000
00000000
00000000
00000000
00000000
00000000
00000000
00000000
00000000
00000000
00000000
00000000
00000000
00000000
ENDCHAR

STARTCHAR A6AB
ENCODING 42667
SWIDTH 960 0
DWIDTH 32 0
BBX 32 32 0 -8
BITMAP
00018000
00018000
00018000
00018000
00018000
00018000
00018000
00018000
00018000
00018000
00018000
00018000
00018000
00018000
00018000
FFFFFFFF
FFFFFFFF
00018000
00018000
00018000
00018000
00018000
00018000
00018000
00018000
00018000
00018000
00018000
00018000
00018000
00018000
00018000
ENDCHAR

STARTCHAR A6AC
ENCODING 42668
SWIDTH 960 0
DWIDTH 32 0
BBX 32 32 0 -8
BITMAP
00000000
00000000
00000000
00000000
00000000
00000000
00000000
00000000
00000000
00000000
00000000
00000000
00000000
00000000
FFFFFFFF
FFFFFFFF
FFFFFFFF
FFFFFFFF
00000000
00000000
00000000
00000000
00000000
00000000
00000000
00000000
00000000
00000000
00000000
00000000
00000000
00000000
ENDCHAR

STARTCHAR A6AD
ENCODING 42669
SWIDTH 960 0
DWIDTH 32 0
BBX 32 32 0 -8
BITMAP
0003C000
0003C000
0003C000
0003C000
0003C000
0003C000
0003C000
0003C000
0003C000
0003C000
0003C000
0003C000
0003C000
0003C000
0003C000
0003C000
0003C000
0003C000
0003C000
0003C000
0003C000
0003C000
0003C000
0003C000
0003C000
0003C000
0003C000
0003C000
0003C000
0003C000
0003C000
0003C000
ENDCHAR

STARTCHAR A6AE
ENCODING 42670
SWIDTH 960 0
DWIDTH 32 0
BBX 32 32 0 -8
BITMAP
00000000
00000000
00000000
00000000
00000000
00000000
00000000
00000000
00000000
00000000
00000000
00000000
00000000
00000000
0003FFFF
0003FFFF
0003FFFF
0003FFFF
0003C000
0003C000
0003C000
0003C000
0003C000
0003C000
0003C000
0003C000
0003C000
0003C000
0003C000
0003C000
0003C000
0003C000
ENDCHAR

STARTCHAR A6AF
ENCODING 42671
SWIDTH 960 0
DWIDTH 32 0
BBX 32 32 0 -8
BITMAP
00000000
00000000
00000000
00000000
00000000
00000000
00000000
00000000
00000000
00000000
00000000
00000000
00000000
00000000
FFFFC000
FFFFC000
FFFFC000
FFFFC000
0003C000
0003C000
0003C000
0003C000
0003C000
0003C000
0003C000
0003C000
0003C000
0003C000
0003C000
0003C000
0003C000
0003C000
ENDCHAR

STARTCHAR A6B0
ENCODING 42672
SWIDTH 960 0
DWIDTH 32 0
BBX 32 32 0 -8
BITMAP
0003C000
0003C000
0003C000
0003C000
0003C000
0003C000
0003C000
0003C000
0003C000
0003C000
0003C000
0003C000
0003C000
0003C000
FFFFC000
FFFFC000
FFFFC000
FFFFC000
00000000
00000000
00000000
00000000
00000000
00000000
00000000
00000000
00000000
00000000
00000000
00000000
00000000
00000000
ENDCHAR

STARTCHAR A6B1
ENCODING 42673
SWIDTH 960 0
DWIDTH 32 0
BBX 32 32 0 -8
BITMAP
0003C000
0003C000
0003C000
0003C000
0003C000
0003C000
0003C000
0003C000
0003C000
0003C000
0003C000
0003C000
0003C000
0003C000
0003FFFF
0003FFFF
0003FFFF
0003FFFF
00000000
00000000
00000000
00000000
00000000
00000000
00000000
00000000
00000000
00000000
00000000
00000000
00000000
00000000
ENDCHAR

STARTCHAR A6B2
ENCODING 42674
SWIDTH 960 0
DWIDTH 32 0
BBX 32 32 0 -8
BITMAP
0003C000
0003C000
0003C000
0003C000
0003C000
0003C000
0003C000
0003C000
0003C000
0003C000
0003C000
0003C000
0003C000
0003C000
0003FFFF
0003FFFF
0003FFFF
0003FFFF
0003C000
0003C000
0003C000
0003C000
0003C000
0003C000
0003C000
0003C000
0003C000
0003C000
0003C000
0003C000
0003C000
0003C000
ENDCHAR

STARTCHAR A6B3
ENCODING 42675
SWIDTH 960 0
DWIDTH 32 0
BBX 32 32 0 -8
BITMAP
00000000
00000000
00000000
00000000
00000000
00000000
00000000
00000000
00000000
00000000
00000000
00000000
00000000
00000000
FFFFFFFF
FFFFFFFF
FFFFFFFF
FFFFFFFF
0003C000
0003C000
0003C000
0003C000
0003C000
0003C000
0003C000
0003C000
0003C000
0003C000
0003C000
0003C000
0003C000
0003C000
ENDCHAR

STARTCHAR A6B4
ENCODING 42676
SWIDTH 960 0
DWIDTH 32 0
BBX 32 32 0 -8
BITMAP
0003C000
0003C000
0003C000
0003C000
0003C000
0003C000
0003C000
0003C000
0003C000
0003C000
0003C000
0003C000
0003C000
0003C000
FFFFC000
FFFFC000
FFFFC000
FFFFC000
0003C000
0003C000
0003C000
0003C000
0003C000
0003C000
0003C000
0003C000
0003C000
0003C000
0003C000
0003C000
0003C000
0003C000
ENDCHAR

STARTCHAR A6B5
ENCODING 42677
SWIDTH 960 0
DWIDTH 32 0
BBX 32 32 0 -8
BITMAP
0003C000
0003C000
0003C000
0003C000
0003C000
0003C000
0003C000
0003C000
0003C000
0003C000
0003C000
0003C000
0003C000
0003C000
FFFFFFFF
FFFFFFFF
FFFFFFFF
FFFFFFFF
00000000
00000000
00000000
00000000
00000000
00000000
00000000
00000000
00000000
00000000
00000000
00000000
00000000
00000000
ENDCHAR

STARTCHAR A6B6
ENCODING 42678
SWIDTH 960 0
DWIDTH 32 0
BBX 32 32 0 -8
BITMAP
0003C000
0003C000
0003C000
0003C000
0003C000
0003C000
0003C000
0003C000
0003C000
0003C000
0003C000
0003C000
0003C000
0003C000
FFFFFFFF
FFFFFFFF
FFFFFFFF
FFFFFFFF
0003C000
0003C000
0003C000
0003C000
0003C000
0003C000
0003C000
0003C000
0003C000
0003C000
0003C000
0003C000
0003C000
0003C000
ENDCHAR

STARTCHAR A6B7
ENCODING 42679
SWIDTH 960 0
DWIDTH 32 0
BBX 32 32 0 -8
BITMAP
0003C000
0003C000
0003C000
0003C000
0003C000
0003C000
0003C000
0003C000
0003C000
0003C000
0003C000
0003C000
0003C000
0003C000
0003C000
0003FFFF
0003FFFF
0003C000
0003C000
0003C000
0003C000
0003C000
0003C000
0003C000
0003C000
0003C000
0003C000
0003C000
0003C000
0003C000
0003C000
0003C000
ENDCHAR

STARTCHAR A6B8
ENCODING 42680
SWIDTH 960 0
DWIDTH 32 0
BBX 32 32 0 -8
BITMAP
00000000
00000000
00000000
00000000
00000000
00000000
00000000
00000000
00000000
00000000
00000000
00000000
00000000
00000000
FFFFFFFF
FFFFFFFF
FFFFFFFF
FFFFFFFF
00018000
00018000
00018000
00018000
00018000
00018000
00018000
00018000
00018000
00018000
00018000
00018000
00018000
00018000
ENDCHAR

STARTCHAR A6B9
ENCODING 42681
SWIDTH 960 0
DWIDTH 32 0
BBX 32 32 0 -8
BITMAP
0003C000
0003C000
0003C000
0003C000
0003C000
0003C000
0003C000
0003C000
0003C000
0003C000
0003C000
0003C000
0003C000
0003C000
0003C000
FFFFC000
FFFFC000
0003C000
0003C000
0003C000
0003C000
0003C000
0003C000
0003C000
0003C000
0003C000
0003C000
0003C000
0003C000
0003C000
0003C000
0003C000
ENDCHAR

STARTCHAR A6BA
ENCODING 42682
SWIDTH 960 0
DWIDTH 32 0
BBX 32 32 0 -8
BITMAP
00018000
00018000
00018000
00018000
00018000
00018000
00018000
00018000
00018000
00018000
00018000
00018000
00018000
00018000
FFFFFFFF
FFFFFFFF
FFFFFFFF
FFFFFFFF
00000000
00000000
00000000
00000000
00000000
00000000
00000000
00000000
00000000
00000000
00000000
00000000
00000000
00000000
ENDCHAR

STARTCHAR A6BB
ENCODING 42683
SWIDTH 960 0
DWIDTH 32 0
BBX 32 32 0 -8
BITMAP
00018000
00018000
00018000
00018000
00018000
00018000
00018000
00018000
00018000
00018000
00018000
00018000
00018000
00018000
FFFFFFFF
FFFFFFFF
FFFFFFFF
FFFFFFFF
00018000
00018000
00018000
00018000
00018000
00018000
00018000
00018000
00018000
00018000
00018000
00018000
00018000
00018000
ENDCHAR

STARTCHAR A6BC
ENCODING 42684
SWIDTH 960 0
DWIDTH 32 0
BBX 32 32 0 -8
BITMAP
00018000
00018000
00018000
00018000
00018000
00018000
00018000
00018000
00018000
00018000
00018000
00018000
00018000
00018000
0001FFFF
0001FFFF
0001FFFF
0001FFFF
00018000
00018000
00018000
00018000
00018000
00018000
00018000
00018000
00018000
00018000
00018000
00018000
00018000
00018000
ENDCHAR

STARTCHAR A6BD
ENCODING 42685
SWIDTH 960 0
DWIDTH 32 0
BBX 32 32 0 -8
BITMAP
00000000
00000000
00000000
00000000
00000000
00000000
00000000
00000000
00000000
00000000
00000000
00000000
00000000
00000000
00000000
FFFFFFFF
FFFFFFFF
0003C000
0003C000
0003C000
0003C000
0003C000
0003C000
0003C000
0003C000
0003C000
0003C000
0003C000
0003C000
0003C000
0003C000
0003C000
ENDCHAR

STARTCHAR A6BE
ENCODING 42686
SWIDTH 960 0
DWIDTH 32 0
BBX 32 32 0 -8
BITMAP
00018000
00018000
00018000
00018000
00018000
00018000
00018000
00018000
00018000
00018000
00018000
00018000
00018000
00018000
FFFF8000
FFFF8000
FFFF8000
FFFF8000
00018000
00018000
00018000
00018000
00018000
00018000
00018000
00018000
00018000
00018000
00018000
00018000
00018000
00018000
ENDCHAR

STARTCHAR A6BF
ENCODING 42687
SWIDTH 960 0
DWIDTH 32 0
BBX 32 32 0 -8
BITMAP
0003C000
0003C000
0003C000
0003C000
0003C000
0003C000
0003C000
0003C000
0003C000
0003C000
0003C000
0003C000
0003C000
0003C000
0003C000
FFFFFFFF
FFFFFFFF
00000000
00000000
00000000
00000000
00000000
00000000
00000000
00000000
00000000
00000000
00000000
00000000
00000000
00000000
00000000
ENDCHAR

STARTCHAR A6C0
ENCODING 42688
SWIDTH 960 0
DWIDTH 32 0
BBX 32 32 0 -8
BITMAP
0003C000
0003C000
0003C000
0003C000
0003C000
0003C000
0003C000
0003C000
0003C000
0003C000
0003C000
0003C000
0003C000
0003C000
0003C000
FFFFFFFF
FFFFFFFF
0003C000
0003C000
0003C000
0003C000
0003C000
0003C000
0003C000
0003C000
0003C000
0003C000
0003C000
0003C000
0003C000
0003C000
0003C000
ENDCHAR

STARTCHAR A6C1
ENCODING 42689
SWIDTH 960 0
DWIDTH 32 0
BBX 32 32 0 -8
BITMAP
00000000
00000000
00000000
00000000
00000000
00000000
00000000
00000000
00000000
00000000
00000000
00000000
00000000
00000000
00000000
FFFFC000
FFFFC000
0003C000
0003C000
0003C000
0003C000
0003C000
0003C000
0003C000
0003C000
0003C000
0003C000
0003C000
0003C000
0003C000
0003C000
0003C000
ENDCHAR

STARTCHAR A6C2
ENCODING 42690
SWIDTH 960 0
DWIDTH 32 0
BBX 32 32 0 -8
BITMAP
00000000
00000000
00000000
00000000
00000000
00000000
00000000
00000000
00000000
00000000
00000000
00000000
00000000
00000000
FFFF8000
FFFF8000
FFFF8000
FFFF8000
00018000
00018000
00018000
00018000
00018000
00018000
00018000
00018000
00018000
00018000
00018000
00018000
00018000
00018000
ENDCHAR

STARTCHAR A6C3
ENCODING 42691
SWIDTH 960 0
DWIDTH 32 0
BBX 32 32 0 -8
BITMAP
0003C000
0003C000
0003C000
0003C000
0003C000
0003C000
0003C000
0003C000
0003C000
0003C000
0003C000
0003C000
0003C000
0003C000
0003C000
FFFFC000
FFFFC000
00000000
00000000
00000000
00000000
00000000
00000000
00000000
00000000
00000000
00000000
00000000
00000000
00000000
00000000
00000000
ENDCHAR

STARTCHAR A6C4
ENCODING 42692
SWIDTH 960 0
DWIDTH 32 0
BBX 32 32 0 -8
BITMAP
00018000
00018000
00018000
00018000
00018000
00018000
00018000
00018000
00018000
00018000
00018000
00018000
00018000
00018000
FFFF8000
FFFF8000
FFFF8000
FFFF8000
00000000
00000000
00000000
00000000
00000000
00000000
00000000
00000000
00000000
00000000
00000000
00000000
00000000
00000000
ENDCHAR

STARTCHAR A6C5
ENCODING 42693
SWIDTH 960 0
DWIDTH 32 0
BBX 32 32 0 -8
BITMAP
0003C000
0003C000
0003C000
0003C000
0003C000
0003C000
0003C000
0003C000
0003C000
0003C000
0003C000
0003C000
0003C000
0003C000
0003C000
0003FFFF
0003FFFF
00000000
00000000
00000000
00000000
00000000
00000000
00000000
00000000
00000000
00000000
00000000
00000000
00000000
00000000
00000000
ENDCHAR

STARTCHAR A6C6
ENCODING 42694
SWIDTH 960 0
DWIDTH 32 0
BBX 32 32 0 -8
BITMAP
00018000
00018000
00018000
00018000
00018000
00018000
00018000
00018000
00018000
00018000
00018000
00018000
00018000
00018000
0001FFFF
0001FFFF
0001FFFF
0001FFFF
00000000
00000000
00000000
00000000
00000000
00000000
00000000
00000000
00000000
00000000
00000000
00000000
00000000
00000000
ENDCHAR

STARTCHAR A6C7
ENCODING 42695
SWIDTH 960 0
DWIDTH 32 0
BBX 32 32 0 -8
BITMAP
00000000
00000000
00000000
00000000
00000000
00000000
00000000
00000000
00000000
00000000
00000000
00000000
00000000
00000000
00000000
0003FFFF
0003FFFF
0003C000
0003C000
0003C000
0003C000
0003C000
0003C000
0003C000
0003C000
0003C000
0003C000
0003C000
0003C000
0003C000
0003C000
0003C000
ENDCHAR

STARTCHAR A6C8
ENCODING 42696
SWIDTH 960 0
DWIDTH 32 0
BBX 32 32 0 -8
BITMAP
00000000
00000000
00000000
00000000
00000000
00000000
00000000
00000000
00000000
00000000
00000000
00000000
00000000
00000000
0001FFFF
0001FFFF
0001FFFF
0001FFFF
00018000
00018000
00018000
00018000
00018000
00018000
00018000
00018000
00018000
00018000
00018000
00018000
00018000
00018000
ENDCHAR

STARTCHAR A6C9
ENCODING 42697
SWIDTH 960 0
DWIDTH 32 0
BBX 32 32 0 -8
BITMAP
0003C000
0003C000
0003C000
0003C000
0003C000
0003C000
0003C000
0003C000
0003C000
0003C000
0003C000
0003C000
0003C000
0003C000
0003C000
0003FFFF
0003FFFF
00018000
00018000
00018000
00018000
00018000
00018000
00018000
00018000
00018000
00018000
00018000
00018000
00018000
00018000
00018000
ENDCHAR

STARTCHAR A6CA
ENCODING 42698
SWIDTH 960 0
DWIDTH 32 0
BBX 32 32 0 -8
BITMAP
00018000
00018000
00018000
00018000
00018000
00018000
00018000
00018000
00018000
00018000
00018000
00018000
00018000
00018000
00018000
0003FFFF
0003FFFF
0003C000
0003C000
0003C000
0003C000
0003C000
0003C000
0003C000
0003C000
0003C000
0003C000
0003C000
0003C000
0003C000
0003C000
0003C000
ENDCHAR

STARTCHAR A6CB
ENCODING 42699
SWIDTH 960 0
DWIDTH 32 0
BBX 32 32 0 -8
BITMAP
0003C000
0003C000
0003C000
0003C000
0003C000
0003C000
0003C000
0003C000
0003C000
0003C000
0003C000
0003C000
0003C000
0003C000
0003FFFF
0003FFFF
0003FFFF
0003FFFF
00018000
00018000
00018000
00018000
00018000
00018000
00018000
00018000
00018000
00018000
00018000
00018000
00018000
00018000
ENDCHAR

STARTCHAR A6CC
ENCODING 42700
SWIDTH 960 0
DWIDTH 32 0
BBX 32 32 0 -8
BITMAP
00018000
00018000
00018000
00018000
00018000
00018000
00018000
00018000
00018000
00018000
00018000
00018000
00018000
00018000
0003FFFF
0003FFFF
0003FFFF
0003FFFF
0003C000
0003C000
0003C000
0003C000
0003C000
0003C000
0003C000
0003C000
0003C000
0003C000
0003C000
0003C000
0003C000
0003C000
ENDCHAR

STARTCHAR A6CD
ENCODING 42701
SWIDTH 960 0
DWIDTH 32 0
BBX 32 32 0 -8
BITMAP
0003C000
0003C000
0003C000
0003C000
0003C000
0003C000
0003C000
0003C000
0003C000
0003C000
0003C000
0003C000
0003C000
0003C000
0003C000
FFFFC000
FFFFC000
00018000
00018000
00018000
00018000
00018000
00018000
00018000
00018000
00018000
00018000
00018000
00018000
00018000
00018000
00018000
ENDCHAR

STARTCHAR A6CE
ENCODING 42702
SWIDTH 960 0
DWIDTH 32 0
BBX 32 32 0 -8
BITMAP
00018000
00018000
00018000
00018000
00018000
00018000
00018000
00018000
00018000
00018000
00018000
00018000
00018000
00018000
00018000
FFFFC000
FFFFC000
0003C000
0003C000
0003C000
0003C000
0003C000
0003C000
0003C000
0003C000
0003C000
0003C000
0003C000
0003C000
0003C000
0003C000
0003C000
ENDCHAR

STARTCHAR A6CF
ENCODING 42703
SWIDTH 960 0
DWIDTH 32 0
BBX 32 32 0 -8
BITMAP
0003C000
0003C000
0003C000
0003C000
0003C000
0003C000
0003C000
0003C000
0003C000
0003C000
0003C000
0003C000
0003C000
0003C000
FFFFC000
FFFFC000
FFFFC000
FFFFC000
00018000
00018000
00018000
00018000
00018000
00018000
00018000
00018000
00018000
00018000
00018000
00018000
00018000
00018000
ENDCHAR

STARTCHAR A6D0
ENCODING 42704
SWIDTH 960 0
DWIDTH 32 0
BBX 32 32 0 -8
BITMAP
00018000
00018000
00018000
00018000
00018000
00018000
00018000
00018000
00018000
00018000
00018000
00018000
00018000
00018000
FFFFC000
FFFFC000
FFFFC000
FFFFC000
0003C000
0003C000
0003C000
0003C000
0003C000
0003C000
0003C000
0003C000
0003C000
0003C000
0003C000
0003C000
0003C000
0003C000
ENDCHAR

STARTCHAR A6D1
ENCODING 42705
SWIDTH 960 0
DWIDTH 32 0
BBX 32 32 0 -8
BITMAP
00000000
00000000
00000000
00000000
00000000
00000000
00000000
00000000
00000000
00000000
00000000
00000000
00000000
00000000
FFFF8000
FFFFFFFF
FFFFFFFF
FFFF8000
00018000
00018000
00018000
00018000
00018000
00018000
00018000
00018000
00018000
00018000
00018000
00018000
00018000
00018000
ENDCHAR

STARTCHAR A6D2
ENCODING 42706
SWIDTH 960 0
DWIDTH 32 0
BBX 32 32 0 -8
BITMAP
00000000
00000000
00000000
00000000
00000000
00000000
00000000
00000000
00000000
00000000
00000000
00000000
00000000
00000000
0001FFFF
FFFFFFFF
FFFFFFFF
0001FFFF
00018000
00018000
00018000
00018000
00018000
00018000
00018000
00018000
00018000
00018000
00018000
00018000
00018000
00018000
ENDCHAR

STARTCHAR A6D3
ENCODING 42707
SWIDTH 960 0
DWIDTH 32 0
BBX 32 32 0 -8
BITMAP
00000000
00000000
00000000
00000000
00000000
00000000
00000000
00000000
00000000
00000000
00000000
00000000
00000000
00000000
FFFFC000
FFFFFFFF
FFFFFFFF
FFFFC000
0003C000
0003C000
0003C000
0003C000
0003C000
0003C000
0003C000
0003C000
0003C000
0003C000
0003C000
0003C000
0003C000
0003C000
ENDCHAR

STARTCHAR A6D4
ENCODING 42708
SWIDTH 960 0
DWIDTH 32 0
BBX 32 32 0 -8
BITMAP
00000000
00000000
00000000
00000000
00000000
00000000
00000000
00000000
00000000
00000000
00000000
00000000
00000000
00000000
0003FFFF
FFFFFFFF
FFFFFFFF
0003FFFF
0003C000
0003C000
0003C000
0003C000
0003C000
0003C000
0003C000
0003C000
0003C000
0003C000
0003C000
0003C000
0003C000
0003C000
ENDCHAR

STARTCHAR A6D5
ENCODING 42709
SWIDTH 960 0
DWIDTH 32 0
BBX 32 32 0 -8
BITMAP
00018000
00018000
00018000
00018000
00018000
00018000
00018000
00018000
00018000
00018000
00018000
00018000
00018000
00018000
FFFF8000
FFFFFFFF
FFFFFFFF
FFFF8000
00000000
00000000
00000000
00000000
00000000
00000000
00000000
00000000
00000000
00000000
00000000
00000000
00000000
00000000
ENDCHAR

STARTCHAR A6D6
ENCODING 42710
SWIDTH 960 0
DWIDTH 32 0
BBX 32 32 0 -8
BITMAP
00018000
00018000
00018000
00018000
00018000
00018000
00018000
00018000
00018000
00018000
00018000
00018000
00018000
00018000
0001FFFF
FFFFFFFF
FFFFFFFF
0001FFFF
00000000
00000000
00000000
00000000
00000000
00000000
00000000
00000000
00000000
00000000
00000000
00000000
00000000
00000000
ENDCHAR

STARTCHAR A6D7
ENCODING 42711
SWIDTH 960 0
DWIDTH 32 0
BBX 32 32 0 -8
BITMAP
0003C000
0003C000
0003C000
0003C000
0003C000
0003C000
0003C000
0003C000
0003C000
0003C000
0003C000
0003C000
0003C000
0003C000
FFFFC000
FFFFFFFF
FFFFFFFF
FFFFC000
00000000
00000000
00000000
00000000
00000000
00000000
00000000
00000000
00000000
00000000
00000000
00000000
00000000
00000000
ENDCHAR

STARTCHAR A6D8
ENCODING 42712
SWIDTH 960 0
DWIDTH 32 0
BBX 32 32 0 -8
BITMAP
0003C000
0003C000
0003C000
0003C000
0003C000
0003C000
0003C000
0003C000
0003C000
0003C000
0003C000
0003C000
0003C000
0003C000
0003FFFF
FFFFFFFF
FFFFFFFF
0003FFFF
00000000
00000000
00000000
00000000
00000000
00000000
00000000
00000000
00000000
00000000
00000000
00000000
00000000
00000000
ENDCHAR

STARTCHAR A6D9
ENCODING 42713
SWIDTH 960 0
DWIDTH 32 0
BBX 32 32 0 -8
BITMAP
00018000
00018000
00018000
00018000
00018000
00018000
00018000
00018000
00018000
00018000
00018000
00018000
00018000
00018000
FFFF8000
FFFFFFFF
FFFFFFFF
FFFF8000
00018000
00018000
00018000
00018000
00018000
00018000
00018000
00018000
00018000
00018000
00018000
00018000
00018000
00018000
ENDCHAR

STARTCHAR A6DA
ENCODING 42714
SWIDTH 960 0
DWIDTH 32 0
BBX 32 32 0 -8
BITMAP
00018000
00018000
00018000
00018000
00018000
00018000
00018000
00018000
00018000
00018000
00018000
00018000
00018000
00018000
0001FFFF
FFFFFFFF
FFFFFFFF
0001FFFF
00018000
00018000
00018000
00018000
00018000
00018000
00018000
00018000
00018000
00018000
00018000
00018000
00018000
00018000
ENDCHAR

STARTCHAR A6DB
ENCODING 42715
SWIDTH 960 0
DWIDTH 32 0
BBX 32 32 0 -8
BITMAP
0003C000
0003C000
0003C000
0003C000
0003C000
0003C000
0003C000
0003C000
0003C000
0003C000
0003C000
0003C000
0003C000
0003C000
0003C000
FFFFFFFF
FFFFFFFF
00018000
00018000
00018000
00018000
00018000
00018000
00018000
00018000
00018000
00018000
00018000
00018000
00018000
00018000
00018000
ENDCHAR

STARTCHAR A6DC
ENCODING 42716
SWIDTH 960 0
DWIDTH 32 0
BBX 32 32 0 -8
BITMAP
00018000
00018000
00018000
00018000
00018000
00018000
00018000
00018000
00018000
00018000
00018000
00018000
00018000
00018000
00018000
FFFFFFFF
FFFFFFFF
0003C000
0003C000
0003C000
0003C000
0003C000
0003C000
0003C000
0003C000
0003C000
0003C000
0003C000
0003C000
0003C000
0003C000
0003C000
ENDCHAR

STARTCHAR A6DD
ENCODING 42717
SWIDTH 960 0
DWIDTH 32 0
BBX 32 32 0 -8
BITMAP
0003C000
0003C000
0003C000
0003C000
0003C000
0003C000
0003C000
0003C000
0003C000
0003C000
0003C000
0003C000
0003C000
0003C000
FFFFC000
FFFFFFFF
FFFFFFFF
FFFF8000
00018000
00018000
00018000
00018000
00018000
00018000
00018000
00018000
00018000
00018000
00018000
00018000
00018000
00018000
ENDCHAR

STARTCHAR A6DE
ENCODING 42718
SWIDTH 960 0
DWIDTH 32 0
BBX 32 32 0 -8
BITMAP
0003C000
0003C000
0003C000
0003C000
0003C000
0003C000
0003C000
0003C000
0003C000
0003C000
0003C000
0003C000
0003C000
0003C000
0003FFFF
FFFFFFFF
FFFFFFFF
0001FFFF
00018000
00018000
00018000
00018000
00018000
00018000
00018000
00018000
00018000
00018000
00018000
00018000
00018000
00018000
ENDCHAR

STARTCHAR A6DF
ENCODING 42719
SWIDTH 960 0
DWIDTH 32 0
BBX 32 32 0 -8
BITMAP
00018000
00018000
00018000
00018000
00018000
00018000
00018000
00018000
00018000
00018000
00018000
00018000
00018000
00018000
FFFF8000
FFFFFFFF
FFFFFFFF
FFFFC000
0003C000
0003C000
0003C000
0003C000
0003C000
0003C000
0003C000
0003C000
0003C000
0003C000
0003C000
0003C000
0003C000
0003C000
ENDCHAR

STARTCHAR A6E0
ENCODING 42720
SWIDTH 960 0
DWIDTH 32 0
BBX 32 32 0 -8
BITMAP
00018000
00018000
00018000
00018000
00018000
00018000
00018000
00018000
00018000
00018000
00018000
00018000
00018000
00018000
0001FFFF
FFFFFFFF
FFFFFFFF
0003FFFF
0003C000
0003C000
0003C000
0003C000
0003C000
0003C000
0003C000
0003C000
0003C000
0003C000
0003C000
0003C000
0003C000
0003C000
ENDCHAR

STARTCHAR A6E1
ENCODING 42721
SWIDTH 960 0
DWIDTH 32 0
BBX 32 32 0 -8
BITMAP
0003C000
0003C000
0003C000
0003C000
0003C000
0003C000
0003C000
0003C000
0003C000
0003C000
0003C000
0003C000
0003C000
0003C000
FFFFFFFF
FFFFFFFF
FFFFFFFF
FFFFFFFF
00018000
00018000
00018000
00018000
00018000
00018000
00018000
00018000
00018000
00018000
00018000
00018000
00018000
00018000
ENDCHAR

STARTCHAR A6E2
ENCODING 42722
SWIDTH 960 0
DWIDTH 32 0
BBX 32 32 0 -8
BITMAP
00018000
00018000
00018000
00018000
00018000
00018000
00018000
00018000
00018000
00018000
00018000
00018000
00018000
00018000
FFFFFFFF
FFFFFFFF
FFFFFFFF
FFFFFFFF
0003C000
0003C000
0003C000
0003C000
0003C000
0003C000
0003C000
0003C000
0003C000
0003C000
0003C000
0003C000
0003C000
0003C000
ENDCHAR

STARTCHAR A6E3
ENCODING 42723
SWIDTH 960 0
DWIDTH 32 0
BBX 32 32 0 -8
BITMAP
0003C000
0003C000
0003C000
0003C000
0003C000
0003C000
0003C000
0003C000
0003C000
0003C000
0003C000
0003C000
0003C000
0003C000
FFFFC000
FFFFFFFF
FFFFFFFF
FFFFC000
0003C000
0003C000
0003C000
0003C000
0003C000
0003C000
0003C000
0003C000
0003C000
0003C000
0003C000
0003C000
0003C000
0003C000
ENDCHAR

STARTCHAR A6E4
ENCODING 42724
SWIDTH 960 0
DWIDTH 32 0
BBX 32 32 0 -8
BITMAP
0003C000
0003C000
0003C000
0003C000
0003C000
0003C000
0003C000
0003C000
0003C000
0003C000
0003C000
0003C000
0003C000
0003C000
0003FFFF
FFFFFFFF
FFFFFFFF
0003FFFF
0003C000
0003C000
0003C000
0003C000
0003C000
0003C000
0003C000
0003C000
0003C000
0003C000
0003C000
0003C000
0003C000
0003C000
ENDCHAR

STARTCHAR A7A1
ENCODING 42913
SWIDTH 960 0
DWIDTH 32 0
BBX 32 32 0 -8
BITMAP
00000000
00000000
00000000
000001C0
00000360
00000620
00000630
00000C30
00000C30
00001860
03061860
03061860
030630C0
030630C0
03063180
03063180
060C3300
060C3300
060C1600
060C1C00
060C1830
071C7830
0DBC6E60
0CE703C0
0C000000
0C000000
0C000000
0C000000
0C000000
00000000
00000000
00000000
ENDCHAR

STARTCHAR A7A2
ENCODING 42914
SWIDTH 960 0
DWIDTH 32 0
BBX 32 32 0 -8
BITMAP
00000000
00000000
00000000
00000070
000000D8
00000188
0000018C
0000030C
0000030C
0000030C
0000060C
0DCF8618
3E78C618
0C30C618
0C30C638
0C30C630
0C30C330
0C30C360
0C30C3E0
0C30C1C0
0C30C1C0
0C30C1F0
0C30C7BC
3EF9E61C
00000000
00000000
00000000
00000000
00000000
00000000
00000000
00000000
ENDCHAR

STARTCHAR A7A3
ENCODING 42915
SWIDTH 960 0
DWIDTH 32 0
BBX 32 32 0 -8
BITMAP
00000000
00000000
00000000
00060180
001E02C0
00060660
00060660
00060C30
00060C30
00060C30
00061830
00061830
01E61870
061E1860
0C0E1860
0C061840
180618C0
18061880
18060980
18060F00
18060618
0C060E18
0E0E3E38
07FE3770
01E783C0
00000000
00000000
00000000
00000000
00000000
00000000
00000000
ENDCHAR

STARTCHAR A7A4
ENCODING 42916
SWIDTH 960 0
DWIDTH 32 0
BBX 32 32 0 -8
BITMAP
00000000
00000000
00003000
00007800
0000CC00
00018C00
00030C00
00030C00
00060C00
00060C00
00041800
000C1800
000C1800
000C3000
000C3000
000C6000
000C6000
0006C000
0007C000
00038000
00070C00
001F0C00
007B9800
0060F000
00000000
00000000
00000000
00000000
00000000
00000000
00000000
00000000
ENDCHAR

STARTCHAR A7A5
ENCODING 42917
SWIDTH 960 0
DWIDTH 32 0
BBX 32 32 0 -8
BITMAP
00000000
00000000
0C0000C0
0C0001E0
3C000330
0C000630
0C000630
0C000C30
0C000C30
0C000C30
0C3F1830
0C0C1830
0C181860
0C301860
0C601860
0CC018C0
0D8018C0
0FC00D80
0EE00F00
0C700E00
0C381C18
0C1C7618
0C0E2330
3F3F81E0
00000000
00000000
00000000
00000000
00000000
00000000
00000000
00000000
ENDCHAR

STARTCHAR A7A6
ENCODING 42918
SWIDTH 960 0
DWIDTH 32 0
BBX 32 32 0 -8
BITMAP
00000000
00000000
00000000
00000000
00000000
00000000
00000000
00000000
00000000
00000000
00720720
018E18E0
03063060
03023020
06026020
06006000
06006000
06006000
06006000
06026020
03023020
03023020
01841840
00780780
00000000
00000000
00000000
00000000
00000000
00000000
00000000
00000000
ENDCHAR

STARTCHAR A7A7
ENCODING 42919
SWIDTH 960 0
DWIDTH 32 0
BBX 32 32 0 -8
BITMAP
00000000
00000000
00000000
0000001C
00000002
00000002
0000001C
00000002
00000002
0000001C
0DB86CC0
3ECDF760
0CCC6660
0CCC6660
0CCC6660
0CCC6660
0CCC6660
0CCC6660
0CCC6660
0CCC6660
0CCC6660
0CCC6660
0CCC6660
3DEEEF78
00000000
00000000
00000000
00000000
00000000
00000000
00000000
00000000
ENDCHAR

STARTCHAR A7A8
ENCODING 42920
SWIDTH 960 0
DWIDTH 32 0
BBX 32 32 0 -8
BITMAP
00000000
00000000
00000000
00000038
00000004
00000004
00000038
00000004
00000004
00000038
03837780
0C6F98C0
183318C0
183318C0
300318C0
300318C0
300318C0
300318C0
300318C0
301318C0
301318C0
181318C0
1C2318C0
07C7BDE0
00000000
00000000
00000000
00000000
00000000
00000000
00000000
00000000
ENDCHAR

STARTCHAR A7A9
ENCODING 42921
SWIDTH 960 0
DWIDTH 32 0
BBX 32 32 0 -8
BITMAP
00000000
00000000
00000000
000001C0
00000020
00000020
000001C0
00000020
00000020
000001C0
0378F000
0F8D1800
03060C00
03060C00
03060C00
03060C00
03060C00
03060C00
03060C00
03060C00
03060C00
03060C00
03060C00
0FDFBF00
00000000
00000000
00000000
00000000
00000000
00000000
00000000
00000000
ENDCHAR

STARTCHAR A7AA
ENCODING 42922
SWIDTH 960 0
DWIDTH 32 0
BBX 32 32 0 -8
BITMAP
00000000
00000000
18000000
1800001C
78000002
18000002
1800001C
18000002
18000002
1800001C
18FBBBC0
1821CC60
18418C60
18818C60
19018C60
1B018C60
1D818C60
19818C60
18C18C60
18C18C60
18618C60
18618C60
18318C60
7EFBDEF0
00000000
00000000
00000000
00000000
00000000
00000000
00000000
00000000
ENDCHAR

STARTCHAR A7AB
ENCODING 42923
SWIDTH 960 0
DWIDTH 32 0
BBX 32 32 0 -8
BITMAP
00000000
00000000
00E00000
03600000
06000000
06000000
06000000
06000000
06000000
06000000
060379E0
1FC78E30
06030C30
06030C30
06030C30
06030C30
06030C30
06030C30
06030C30
06030C30
06030C30
06030C30
06030C30
1F879E78
00000000
00000000
00000000
00000000
00000000
00000000
00000000
00000000
ENDCHAR

STARTCHAR A7AC
ENCODING 42924
SWIDTH 960 0
DWIDTH 32 0
BBX 32 32 0 -8
BITMAP
00000000
00000000
00000000
00000000
00000000
00000000
00000000
00000000
00000000
00000000
3BC1B9F0
1C63C718
18618618
18618618
18618618
18618618
18618618
18618618
18618618
18618618
18618618
18618618
18618618
3CF3CF3C
00000000
00000000
00000000
00000000
00000000
00000000
00000000
00000000
ENDCHAR

STARTCHAR A7AD
ENCODING 42925
SWIDTH 960 0
DWIDTH 32 0
BBX 32 32 0 -8
BITMAP
00000000
00000000
00000000
00000000
00000000
00000000
00000000
00000000
00000000
00000000
0C30DDE0
0C33E730
0C30C630
0C30C630
0C30C630
0C30C630
1860C630
1860C630
1860C630
1860C630
1860C630
1860C630
1C60C630
3B99EF78
30000000
30000000
30000000
30000000
00000000
00000000
00000000
00000000
ENDCHAR

STARTCHAR A7AE
ENCODING 42926
SWIDTH 960 0
DWIDTH 32 0
BBX 32 32 0 -8
BITMAP
00000000
00000000
00000000
00000000
00000000
00000000
00000000
00000000
00000000
00000000
37B837B8
79CC79CC
318C318C
318C318C
318C318C
318C318C
318C318C
318C318C
318C318C
318C318C
318C318C
318C318C
318C318C
7BDE7BDE
00000000
00000000
00000000
00000000
00000000
00000000
00000000
00000000
ENDCHAR

STARTCHAR A7AF
ENCODING 42927
SWIDTH 960 0
DWIDTH 32 0
BBX 32 32 0 -8
BITMAP
00000000
00000000
00000000
00000000
00000000
00000000
00000000
00000000
00000000
00000000
03C1BEF0
0C33C718
18118618
18198618
30198618
30018618
30018618
30018618
30018618
30118618
18118618
18118618
0C218618
07C3CF3C
00000000
00000000
00000000
00000000
00000000
00000000
00000000
00000000
ENDCHAR

STARTCHAR A7B0
ENCODING 42928
SWIDTH 960 0
DWIDTH 32 0
BBX 32 32 0 -8
BITMAP
00000000
00000000
18000000
78000000
18000000
18000000
18000000
18000000
18000000
18000000
187CDF78
1811E38C
1820C30C
1840C30C
1880C30C
1900C30C
1B80C30C
1D80C30C
18C0C30C
18C0C30C
1860C30C
1860C30C
1830C30C
7EFDE79E
00000000
00000000
00000000
00000000
00000000
00000000
00000000
00000000
ENDCHAR

STARTCHAR A7B1
ENCODING 42929
SWIDTH 960 0
DWIDTH 32 0
BBX 32 32 0 -8
BITMAP
00000000
00000000
0000001C
00000002
00000002
0000000C
00000010
00000010
0000001E
00000000
37B86F70
79CCF398
318C6318
318C6318
318C6318
318C6318
318C6318
318C6318
318C6318
318C6318
318C6318
318C6318
318C6318
7BDEF7BC
00000000
00000000
00000000
00000000
00000000
00000000
00000000
00000000
ENDCHAR

STARTCHAR A7B2
ENCODING 42930
SWIDTH 960 0
DWIDTH 32 0
BBX 32 32 0 -8
BITMAP
00000000
00000000
0000001C
00000002
00000002
0000000C
00000010
00000010
0000001E
00000000
03C37DE0
0C278E30
18330C30
10330C30
30030C30
30030C30
30030C30
30030C30
30030C30
30130C30
38130C30
18130C30
1C230C30
07C79E78
00000000
00000000
00000000
00000000
00000000
00000000
00000000
00000000
ENDCHAR

STARTCHAR A7B3
ENCODING 42931
SWIDTH 960 0
DWIDTH 32 0
BBX 32 32 0 -8
BITMAP
00000000
00000000
000000E0
00000010
00000010
00000060
00000080
00000080
000000F0
0379F800
0F8F1C00
03060C00
03060C00
03060C00
03060C00
03060C00
03060C00
03060C00
03060C00
03060C00
03060C00
03060C00
03060C00
0F8F1F00
00000000
00000000
00000000
00000000
00000000
00000000
00000000
00000000
ENDCHAR

STARTCHAR A7B4
ENCODING 42932
SWIDTH 960 0
DWIDTH 32 0
BBX 32 32 0 -8
BITMAP
00000000
00000000
1800001C
78000002
18000002
1800000C
18000010
18000010
1800001E
18000000
187CDEE0
1811E730
1820C630
1840C630
1880C630
1900C630
1A00C630
1F00C630
1980C630
18C0C630
1860C630
1830C630
1818C630
7E7DEF78
00000000
00000000
00000000
00000000
00000000
00000000
00000000
00000000
ENDCHAR

STARTCHAR A7B5
ENCODING 42933
SWIDTH 960 0
DWIDTH 32 0
BBX 32 32 0 -8
BITMAP
00000000
00000000
06000000
1E000000
06000000
06000000
06000000
06000000
06000000
06000000
06F01F80
071830C0
060C30C0
060C00C0
060C00C0
060C00C0
060C1FC0
060C30C0
060C60C0
060C60C0
060C60C0
060C60C0
060C31C0
1FBF1F70
00000000
00000000
00000000
00000000
00000000
00000000
00000000
00000000
ENDCHAR

STARTCHAR A7B6
ENCODING 42934
SWIDTH 960 0
DWIDTH 32 0
BBX 32 32 0 -8
BITMAP
00000000
00000000
00000000
00000000
00000000
00000000
00000000
00000000
00000000
00000000
01860630
01861DB0
018619E0
018630C0
030C30C0
030C30C0
030C30C0
030C3180
07181B80
06181E00
06183000
061C3000
07771F80
0DE71CE0
0C001860
0C003030
0C003030
0C001860
0C001CE0
0C000780
00000000
00000000
ENDCHAR

STARTCHAR A7B7
ENCODING 42935
SWIDTH 960 0
DWIDTH 32 0
BBX 32 32 0 -8
BITMAP
00000000
00000000
00000000
00000000
00000000
00000000
00000000
00000000
00000000
00000000
1BBC0F98
3CE618D8
18C63060
18C63060
18C63060
18C63060
18C63060
18C618C0
18C60F80
18C61000
18C63000
18C63000
18C61FE0
3DEF1030
00002018
00006018
00006018
00006018
00003030
00001FC0
00000000
00000000
ENDCHAR

STARTCHAR A7B8
ENCODING 42936
SWIDTH 960 0
DWIDTH 32 0
BBX 32 32 0 -8
BITMAP
00000000
00000000
0C000000
3C000000
0C000000
0C000000
0C000000
0C000000
0C000000
0C000000
0C3E0FCC
0C08187C
0C103020
0C203030
0C403030
0CC03030
0DC03030
0E601860
0C600FC0
0C303800
0C303000
0C183000
0C181FE0
3F7E0870
00003038
00006018
00006018
00006038
00003070
00001FE0
00000000
00000000
ENDCHAR

STARTCHAR A7B9
ENCODING 42937
SWIDTH 960 0
DWIDTH 32 0
BBX 32 32 0 -8
BITMAP
00000000
00000000
03000000
03000000
0F000000
03000300
03000300
03000300
03000300
03000300
0307DFF0
03010300
03020300
03040300
03080300
03100300
03380300
03580300
039C0300
030C0300
030E0300
03060300
03070380
0FDFC1F0
00000000
00000000
00000000
00000000
00000000
00000000
00000000
00000000
ENDCHAR

STARTCHAR A7BA
ENCODING 42938
SWIDTH 960 0
DWIDTH 32 0
BBX 32 32 0 -8
BITMAP
00000000
00000000
00000000
00000000
00000030
00000030
000000F0
00000030
00000030
00000030
03C1F030
0C631830
18330C30
10300C30
30000C30
30000C30
3000FC30
30019C30
30030C30
30130C30
30130C30
18138C30
1C219C30
07C0EF7C
00000000
00000000
00000000
00000000
00000000
00000000
00000000
00000000
ENDCHAR

STARTCHAR A7BB
ENCODING 42939
SWIDTH 960 0
DWIDTH 32 0
BBX 32 32 0 -8
BITMAP
00000000
00000000
30000018
70000078
30000018
30000018
30000018
30000018
30000018
30000018
31E63F18
30890198
31198198
32118198
34300198
3C301D98
3C303398
36303198
36303198
33303198
3331B198
3191B198
31993398
7BCE1CFE
00000000
00000000
00000000
00000000
00000000
00000000
00000000
00000000
ENDCHAR

STARTCHAR A7BC
ENCODING 42940
SWIDTH 960 0
DWIDTH 32 0
BBX 32 32 0 -8
BITMAP
00000000
00000000
000C0000
000CFF80
003C30C0
000C3060
000C3060
000C3060
000C3060
000C3060
000C3060
01CC30C0
073C3F80
0C1C30C0
0C0C3060
180C3020
180C3030
180C3030
180C3030
180C3030
180C3030
0C1C3060
0E3C30E0
03ECFF80
00000000
00000000
00000000
00000000
00000000
00000000
00000000
00000000
ENDCHAR

STARTCHAR A7BD
ENCODING 42941
SWIDTH 960 0
DWIDTH 32 0
BBX 32 32 0 -8
BITMAP
00000000
00000000
00000000
00000C00
00000C00
00000C00
00001800
00001800
00001800
00001800
377831F8
798C330C
318C3606
318C3606
318C3600
318C6700
318C63F0
318C60FC
318C600E
318C6006
318CC606
318CC606
318CC30C
7BDEC1F8
00018000
00018000
00018000
00018000
00000000
00000000
00000000
00000000
ENDCHAR

STARTCHAR A7BE
ENCODING 42942
SWIDTH 960 0
DWIDTH 32 0
BBX 32 32 0 -8
BITMAP
00000000
00000000
0000001C
00001802
00001802
0000180C
00003010
00003010
0000301E
00003000
376063E0
7BB06630
33306C18
33306C18
3330CC00
3330CE00
3330C7C0
3330C0F0
33318038
33318018
33318C18
33318C18
33330630
7FFB03E0
00030000
00030000
00060000
00060000
00000000
00000000
00000000
00000000
ENDCHAR

STARTCHAR A7BF
ENCODING 42943
SWIDTH 960 0
DWIDTH 32 0
BBX 32 32 0 -8
BITMAP
00000000
00000000
00000000
00000000
00000000
00000000
00000000
00000000
00000000
00000000
030007C0
03381C60
0FCE3030
03863030
03033000
03033800
03031F80
030307E0
03030070
03030030
03033030
03863830
03CE1860
037C0FC0
03000000
03000000
03000000
03000000
03000000
0FC00000
00000000
00000000
ENDCHAR

STARTCHAR A7C0
ENCODING 42944
SWIDTH 960 0
DWIDTH 32 0
BBX 32 32 0 -8
BITMAP
00000000
00000000
00000000
00000000
00000000
00000000
00000000
00000000
00000000
00000000
01BC0F80
07C618C0
01863060
01863060
01863000
01863000
01861F00
01860FC0
018600E0
01860060
01863060
01863060
01861CC0
07CF8F80
00000000
00000000
00000000
00000000
00000000
00000000
00000000
00000000
ENDCHAR

STARTCHAR A7C1
ENCODING 42945
SWIDTH 960 0
DWIDTH 32 0
BBX 32 32 0 -8
BITMAP
00000000
00000000
00000000
00000000
00000000
00000000
00000000
00000000
00000000
00000000
01830F80
018318E0
01833030
01833030
03863000
03063800
03061F80
030607E0
03060070
030C0030
060C3030
060C3870
071E1CE0
05F38780
0C718000
0C000000
0C000000
0C000000
0C000000
0C000000
00000000
00000000
ENDCHAR

STARTCHAR A7C2
ENCODING 42946
SWIDTH 960 0
DWIDTH 32 0
BBX 32 32 0 -8
BITMAP
00000000
00000000
00000000
00000000
00000000
00000000
00000000
00000000
00000000
00000000
0DCE0FC0
3E731C60
0C633030
0C633030
0C633000
0C633C00
0C630F80
0C6303E0
0C630070
0C630030
0C633030
0C633870
0C631CE0
3EF7CFC0
00000000
00000000
00000000
00000000
00000000
00000000
00000000
00000000
ENDCHAR

STARTCHAR A7C3
ENCODING 42947
SWIDTH 960 0
DWIDTH 32 0
BBX 32 32 0 -8
BITMAP
00000000
00000000
0003F8FC
0000C010
0000C010
00006020
00006020
00006020
00006020
00003040
06F03040
1F0C3040
06043040
06061880
06061880
06061880
06061880
06060D00
06060D00
06060D00
06060D00
06040600
070C0600
06F00600
06000000
06000000
06000000
06000000
1F800000
00000000
00000000
00000000
ENDCHAR

STARTCHAR A7C4
ENCODING 42948
SWIDTH 960 0
DWIDTH 32 0
BBX 32 32 0 -8
BITMAP
00000000
00000000
0003F8FC
0000C010
0000C010
00006020
00006020
00006020
00006020
00003040
06F83040
1F1C3040
060C3040
060C1880
060C1880
060C1880
060C1880
060C0D00
060C0D00
060C0D00
060C0D00
060C0600
060C0600
1FBF0600
00000000
00000000
00000000
00000000
00000000
00000000
00000000
00000000
ENDCHAR

STARTCHAR A7C5
ENCODING 42949
SWIDTH 960 0
DWIDTH 32 0
BBX 32 32 0 -8
BITMAP
00000000
00000000
0003F1F8
0000C020
0000C060
0000C040
0000C040
0000C040
000060C0
00006080
030C6080
030C6080
030C7080
030C3100
03183100
06183100
06183100
06181A00
06301A00
0C301A00
0C301E00
0C300C00
0E700C00
1BDC0C00
18000000
18000000
18000000
18000000
18000000
18000000
00000000
00000000
ENDCHAR

STARTCHAR A7C6
ENCODING 42950
SWIDTH 960 0
DWIDTH 32 0
BBX 32 32 0 -8
BITMAP
00000000
00000000
0003F8FC
0000C010
0000C010
00006020
00006020
00006020
00006020
00003040
0DEE3040
3E733040
0C633040
0C631880
0C631880
0C631880
0C631880
0C630D00
0C630D00
0C630D00
0C630D00
0C630600
0C630600
3EF7C600
00000000
00000000
00000000
00000000
00000000
00000000
00000000
00000000
ENDCHAR

STARTCHAR A7C7
ENCODING 42951
SWIDTH 960 0
DWIDTH 32 0
BBX 32 32 0 -8
BITMAP
00000000
00000000
0C03F1F0
1C00C040
0C00C040
0C00C040
0C00C040
0C006080
0C006080
0C006080
0C3E6080
0C083100
0C103100
0C203100
0C403100
0C801A00
0D001A00
0F801A00
0DC01A00
0CE00C00
0C700C00
0C380C00
0C1C0C00
1E7F0C00
00000000
00000000
00000000
00000000
00000000
00000000
00000000
00000000
ENDCHAR

STARTCHAR A7C8
ENCODING 42952
SWIDTH 960 0
DWIDTH 32 0
BBX 32 32 0 -8
BITMAP
00000000
00000000
3E0FFEF8
0E0B1820
0E0B1820
0E0B1820
0E0B1820
0B1B0C40
0B130C40
0B130C40
0B130C40
0B130C40
09B30C40
09A30680
09A30680
09A30680
09A30680
08E30680
08C30780
08C30300
08C30300
08C30300
08C30300
3E0FC300
00000000
00000000
00000000
00000000
00000000
00000000
00000000
00000000
ENDCHAR

STARTCHAR A7C9
ENCODING 42953
SWIDTH 960 0
DWIDTH 32 0
BBX 32 32 0 -8
BITMAP
00000000
00000000
00000600
00000600
00000600
00000600
00000B00
00000B00
00000B00
00000B00
06F00B00
0F0C1180
06041180
06061180
06061180
060620C0
060620C0
06063FC0
060620C0
060620C0
06064060
06044060
070C4060
06F1F1F8
06000000
06000000
06000000
06000000
06000000
1F800000
00000000
00000000
ENDCHAR

STARTCHAR A7CA
ENCODING 42954
SWIDTH 960 0
DWIDTH 32 0
BBX 32 32 0 -8
BITMAP
00000000
00000000
00000C00
00000C00
00000C00
00000C00
00000C00
00001600
00001600
00001600
0DF01600
3E381600
0C182300
0C182300
0C182300
0C182300
0C187F80
0C184180
0C184180
0C184180
0C1880C0
0C1880C0
0C1880C0
3E7FE3F0
00000000
00000000
00000000
00000000
00000000
00000000
00000000
00000000
ENDCHAR

STARTCHAR A7CB
ENCODING 42955
SWIDTH 960 0
DWIDTH 32 0
BBX 32 32 0 -8
BITMAP
00000000
00000000
00000300
00000300
00000780
00000780
00000680
00000C80
00000C40
03000C40
030C0C40
030C1840
030C1820
030C1820
06181820
06183020
06183FF0
06183010
06383010
0C307010
0C306008
0C306008
0FFC6008
0DCDF87E
0C000000
1C000000
18000000
18000000
18000000
18000000
18000000
00000000
ENDCHAR

STARTCHAR A7CC
ENCODING 42956
SWIDTH 960 0
DWIDTH 32 0
BBX 32 32 0 -8
BITMAP
00000000
00000000
00000600
00000600
00000600
00000600
00000600
00000B00
00000B00
00000B00
1BDC0B00
3CE61180
18C61180
18C61180
18C61180
18C620C0
18C63FC0
18C620C0
18C620C0
18C640E0
18C64060
18C64060
18C64060
3DEFF1F8
00000000
00000000
00000000
00000000
00000000
00000000
00000000
00000000
ENDCHAR

STARTCHAR A7CD
ENCODING 42957
SWIDTH 960 0
DWIDTH 32 0
BBX 32 32 0 -8
BITMAP
00000000
00000000
0C000600
3C000600
0C000600
0C000B00
0C000B00
0C000B00
0C000B00
0C000B00
0C3F1180
0C081180
0C101180
0C201180
0C401180
0C8020C0
0D803FC0
0FC020C0
0CE020C0
0C7020C0
0C384060
0C1C4060
0C0E4060
3F3FF1F8
00000000
00000000
00000000
00000000
00000000
00000000
00000000
00000000
ENDCHAR

ENDFONT
